<?xml version="1.0" encoding="UTF-8"?>
<svg id="_레이어_1" data-name=" 레이어 1" xmlns="http://www.w3.org/2000/svg" version="1.1" viewBox="0 0 1417.3 566.9">
  <defs>
    <style>
      .cls-1 {
        fill: #00599c;
      }

      .cls-1, .cls-2, .cls-3, .cls-4, .cls-5 {
        stroke-width: 0px;
      }

      .cls-1, .cls-2, .cls-4, .cls-5 {
        fill-rule: evenodd;
      }

      .cls-2 {
        fill: #004482;
      }

      .cls-6 {
        fill: none;
        stroke: #00599c;
        stroke-miterlimit: 10;
        stroke-width: 30px;
      }

      .cls-3 {
        fill: #005a9c;
      }

      .cls-4 {
        fill: #fff;
      }

      .cls-7 {
        isolation: isolate;
      }

      .cls-5 {
        fill: #659ad2;
      }
    </style>
  </defs>
  <path class="cls-2" d="M272.5,76.3c6.8-3.8,15.1-3.8,21.9,0l168.1,94.3c6.7,3.7,10.9,10.8,11,18.5v188.7c0,7.6-4.2,14.7-11,18.5l-168.1,94.3c-6.8,3.8-15.1,3.8-21.9,0l-168-94.4c-6.7-3.7-10.9-10.8-11-18.5v-188.6c0-7.6,4.2-14.7,11-18.5,33.5-18.8,134.5-75.5,168-94.3h0Z"/>
  <path class="cls-5" d="M96.5,387.4c-2.7-3.6-3-6.9-3-11.5v-187.5c0-7.6,4.2-14.6,10.9-18.4l167.5-93.8c6.8-3.8,15.9-3.7,22.7,0,33.4,18.7,133.7,74.6,167.1,93.3,2.7,1.5,4.8,3.4,6.6,5.8L96.5,387.4Z"/>
  <path class="cls-4" d="M283.5,143.4c77.3,0,140,62.7,140,140s-62.7,140-140,140-140-62.7-140-140,62.7-140,140-140ZM283.5,213.4c38.6,0,70,31.4,70,70s-31.4,70-70,70-70-31.4-70-70,31.4-70,70-70Z"/>
  <path class="cls-1" d="M468.4,175.4c5.2,4.8,5.1,12.1,5.1,17.8,0,38-.3,145.9,0,183.8,0,4-1.3,8.1-3.2,11.3l-190.8-105,188.9-108h0Z"/>
  <rect class="cls-6" x="28.3" y="28.3" width="510.2" height="510.2" rx="141.7" ry="141.7"/>
  <g class="cls-7">
    <g class="cls-7">
      <g class="cls-7">
        <path class="cls-3" d="M765.1,330.7v13.8c0,15.7-1.1,28-3.4,36.9-7.8,36.6-34.9,54.9-81.4,54.9s-30.2-1.1-40.3-3.4-19-7.3-26.8-15.1c-9.5-9.2-15.4-19.8-17.8-31.9-2.4-12-3.6-29.9-3.6-53.7v-104.4c0-28.5,7.5-49.4,22.4-62.7,15-13.3,36.7-19.9,65.2-19.9s30.6,1.5,40.7,4.4c10.1,2.9,18.9,8.7,26.4,17.2s12.7,19.8,15.5,33.8c2,10.1,2.9,24.7,2.9,44v15.1h-71.3v-44.9c0-8.4,0-13.3-.4-14.7-1.4-7-5.5-10.5-12.2-10.5-9.5,0-14.3,6-14.3,18v162.3c0,14.8,4.6,22.2,13.8,22.2s9.5-2.4,10.9-7.1c1.4-4.8,2.1-14.4,2.1-28.9v-36.5h71.3v10.9l.3.2Z"/>
        <path class="cls-3" d="M947,141.1l-85.5,299.4h-54.5l86.4-299.4h53.7-.1Z"/>
        <path class="cls-3" d="M1167.2,330.7v13.8c0,15.7-1.1,28-3.4,36.9-7.8,36.6-34.9,54.9-81.4,54.9s-30.2-1.1-40.3-3.4c-10.1-2.2-19-7.3-26.8-15.1-9.5-9.2-15.4-19.8-17.8-31.9-2.4-12-3.6-29.9-3.6-53.7v-104.4c0-28.5,7.5-49.4,22.4-62.7,15-13.3,36.7-19.9,65.2-19.9s30.6,1.5,40.7,4.4,18.9,8.7,26.4,17.2,12.7,19.8,15.5,33.8c2,10.1,2.9,24.7,2.9,44v15.1h-71.3v-44.9c0-8.4,0-13.3-.4-14.7-1.4-7-5.5-10.5-12.2-10.5-9.5,0-14.3,6-14.3,18v162.3c0,14.8,4.6,22.2,13.8,22.2s9.5-2.4,10.9-7.1c1.4-4.8,2.1-14.4,2.1-28.9v-36.5h71.3v10.9l.3.2Z"/>
      </g>
    </g>
  </g>
  <g class="cls-7">
    <g class="cls-7">
      <g class="cls-7">
        <g class="cls-7">
          <path class="cls-3" d="M1257.1,302.2h-42.8v43h-29.3v-43h-42.5v-28.2h42.5v-43h29.3v43h42.8v28.2Z"/>
        </g>
      </g>
    </g>
  </g>
  <g class="cls-7">
    <g class="cls-7">
      <g class="cls-7">
        <g class="cls-7">
          <path class="cls-3" d="M1384.7,302.2h-42.8v43h-29.3v-43h-42.5v-28.2h42.5v-43h29.3v43h42.8v28.2Z"/>
        </g>
      </g>
    </g>
  </g>
</svg>