<?xml version="1.0" encoding="UTF-8"?>
<svg id="_레이어_1" data-name=" 레이어 1" xmlns="http://www.w3.org/2000/svg" version="1.1" viewBox="0 0 1417.3 566.9">
  <defs>
    <style>
      .cls-1 {
        fill: #e44d26;
      }

      .cls-1, .cls-2, .cls-3, .cls-4 {
        stroke-width: 0px;
      }

      .cls-5 {
        isolation: isolate;
      }

      .cls-2 {
        fill: #ebebeb;
      }

      .cls-6 {
        fill: none;
        stroke: #e44d26;
        stroke-miterlimit: 10;
        stroke-width: 30px;
      }

      .cls-3 {
        fill: #f16529;
      }

      .cls-4 {
        fill: #fff;
      }
    </style>
  </defs>
  <path class="cls-1" d="M135.1,448L102.1,77.8h362.7l-33,370.2-148.5,41.2-148.1-41.1h-.1Z"/>
  <path class="cls-3" d="M283.5,457.7l120-33.3,28.2-316.4h-148.3v349.6h0Z"/>
  <path class="cls-2" d="M283.5,245.4h-60.1l-4.1-46.5h64.2v-45.4h-113.9l1.1,12.2,11.2,125.1h101.6v-45.4ZM283.5,363.3h-.2l-50.6-13.6-3.2-36.2h-45.6l6.4,71.3,93,25.8h.2v-47.3Z"/>
  <path class="cls-4" d="M283.3,245.4v45.4h55.9l-5.3,58.9-50.6,13.7v47.2l93.1-25.8.7-7.7,10.7-119.6,1.1-12.2h-105.6ZM283.3,153.5v45.4h109.7l.9-10.2,2.1-23,1.1-12.2h-113.8Z"/>
  <rect class="cls-6" x="28.3" y="28.3" width="510.2" height="510.2" rx="141.7" ry="141.7"/>
  <g class="cls-5">
    <path class="cls-1" d="M785.2,420.9h-45.9l-5-197-80.5,197h-46.9l-8.3-269.4h44.5l1.8,188.5,75.9-188.5h49.4l5,186.5,72.7-186.5h44l-106.8,269.4Z"/>
    <path class="cls-1" d="M867.2,420.9l46.1-269.4h163.7l-7.7,45h-118.2l-10.5,61.2h114.4l-7.7,45h-114.5l-12.6,73.1h127.1l-7.5,45h-172.5Z"/>
    <path class="cls-1" d="M1073.3,420.9l46.1-269.4h75.7c20.2,0,34.6,1.3,43.2,3.9,13.3,3.9,23.6,11.2,30.9,21.9,7.2,10.7,10.8,23.8,10.8,39.5s-3.5,29-10.5,39.7c-7,10.7-17.5,18.7-31.4,24.3,10.9,3.7,19.6,10.3,26.2,19.8s9.8,20.7,9.8,33.4-3.9,33.1-11.8,47.2c-7.9,14.1-18.2,24.2-30.9,30.4-12.7,6.2-30.7,9.3-53.9,9.3h-104.2ZM1126,377.6h43.8c17.2,0,29-1.2,35.3-3.7,6.4-2.4,11.7-7,16-13.5,4.3-6.6,6.4-13.9,6.4-22.1s-2.8-17.3-8.5-22.8c-5.6-5.5-14.5-8.3-26.6-8.3h-54.4l-12.1,70.4ZM1146.2,260.3h34.7c15.2,0,26.1-1.2,32.7-3.7,6.6-2.4,11.8-6.7,15.6-12.7,3.8-6,5.7-12.9,5.7-20.6s-1.4-11.5-4.2-15.9c-2.8-4.3-6.4-7.3-10.7-8.7-4.3-1.5-13.5-2.2-27.8-2.2h-35.1l-11,63.8Z"/>
  </g>
</svg>