<?xml version="1.0" encoding="UTF-8"?>
<svg id="_레이어_2" data-name=" 레이어 2" xmlns="http://www.w3.org/2000/svg" version="1.1" viewBox="0 0 1589.8 540.2">
  <defs>
    <style>
      .cls-1 {
        isolation: isolate;
      }

      .cls-2 {
        fill: none;
        stroke: #610051;
        stroke-miterlimit: 10;
        stroke-width: 30px;
      }

      .cls-3 {
        fill: #610051;
        stroke-width: 0px;
      }
    </style>
  </defs>
  <rect class="cls-2" x="15" y="15" width="510.2" height="510.2" rx="141.7" ry="141.7"/>
  <g class="cls-1">
    <g class="cls-1">
      <g class="cls-1">
        <g class="cls-1">
          <path class="cls-3" d="M558.1,383.3v-218.3h28.9v108.3l108.4-108.3h39.2l-91.6,88.5,95.6,129.9h-38.1l-77.7-110.5-35.7,34.8v75.7h-29Z"/>
          <path class="cls-3" d="M824.2,383.3v-92.5l-84.1-125.8h35.1l43,65.8c7.9,12.3,15.3,24.6,22.2,36.9,6.6-11.4,14.5-24.3,23.8-38.6l42.3-64.2h33.7l-87.1,125.8v92.5h-28.9Z"/>
          <path class="cls-3" d="M957.3,276.9c0-36.2,9.7-64.6,29.2-85.1s44.6-30.8,75.4-30.8,38.3,4.8,54.5,14.4c16.2,9.6,28.5,23.1,37,40.3s12.7,36.8,12.7,58.6-4.5,41.9-13.4,59.4-21.6,30.7-38,39.7-34.1,13.5-53,13.5-38.9-5-55.1-14.9c-16.2-9.9-28.4-23.5-36.8-40.7-8.3-17.2-12.5-35.3-12.5-54.5h0ZM987.1,277.4c0,26.3,7.1,47,21.2,62.2,14.1,15.1,31.9,22.7,53.2,22.7s39.6-7.6,53.7-22.9c14-15.3,21.1-37,21.1-65.1s-3-33.3-9-46.5c-6-13.3-14.8-23.5-26.4-30.8s-24.5-10.9-38.9-10.9c-20.5,0-38.1,7-52.8,21.1s-22.1,37.5-22.1,70.4v-.2Z"/>
          <path class="cls-3" d="M1258.9,383.3v-192.6h-71.9v-25.8h173.1v25.8h-72.2v192.6h-29Z"/>
          <path class="cls-3" d="M1375.4,276.9c0-36.2,9.7-64.6,29.2-85.1s44.6-30.8,75.4-30.8,38.3,4.8,54.5,14.4c16.2,9.6,28.5,23.1,37,40.3s12.7,36.8,12.7,58.6-4.5,41.9-13.4,59.4-21.6,30.7-38,39.7-34.1,13.5-53,13.5-38.9-5-55.1-14.9-28.4-23.5-36.8-40.7c-8.3-17.2-12.5-35.3-12.5-54.5h0ZM1405.2,277.4c0,26.3,7.1,47,21.2,62.2,14.1,15.1,31.9,22.7,53.2,22.7s39.6-7.6,53.7-22.9c14-15.3,21.1-37,21.1-65.1s-3-33.3-9-46.5c-6-13.3-14.8-23.5-26.4-30.8s-24.6-10.9-38.9-10.9c-20.5,0-38.1,7-52.8,21.1-14.7,14.1-22.1,37.5-22.1,70.4v-.2Z"/>
        </g>
      </g>
    </g>
  </g>
  <path class="cls-3" d="M324.2,43.4c0,.6-.8,2-1.9,3.5-1.3,1.7-1.9,2.9-1.9,3.7s-.5,2-1.1,3c-.9,1.7-1.2,1.9-3,2.4-1.2.3-2.2.9-2.6,1.4-.5.6-1,.9-2.1.9-1.7,0-2.2.7-1.6,2.3.2.6.3,2.2.1,4.1-.4,4.3-.2,5.3,1.2,5.8,1.5.5,2.3,2.9,1.4,4-.4.4-.6,1-.6,1.3s-.6.9-1.3,1.3c-.7.3-1.4,1-1.5,1.4-.5,1.4-2.4,2.4-2.4,1.2s-1-1.5-2.3-2.8c-2.5-2.6-3.7-2.9-5.7-1.5-.9.7-1.7.9-4.2.9-4.6.1-8.6.5-9.6,1-.6.3-2.2.3-6.4,0-5.7-.5-5.9-.5-6.7,1.1-.2.5-1,1-1.9,1.3-1.3.3-1.5.6-1.4,1.4,0,.5.2,1.6.2,2.5s.3,1.8.6,2.1c.3.3.5,1.3.6,2.1.2,1.3,0,1.5-.5,1.4-.7-.1-3,2-3.8,3.4-.3.7-.3,1,.2,1.7.3.5.6,1.6.6,2.4,0,2.1-1,2.9-3.9,3-1.2,0-2.7.2-3.2.2-.6,0-1.9,1-3.2,2.2-2.3,2.2-3.9,2.9-5.6,2.4-.7-.2-1.2.2-2.4,1.7-1.8,2-2.8,2.5-4.3,1.9-1.1-.4-3.6,0-5.3.9-.5.3-1.6.5-2.3.5s-1.4.2-1.5.4c-.3.8-2.5,0-3.7-1.3-1.1-1.2-1.1-1.2-2.3-.6-1.6.7-5.3.7-6.2,0-.9-.7-4.6-1.5-6.2-1.2-1.2.2-1.5,0-2.3-.8-.8-.8-1.3-1-2.7-1.1-1.3,0-2.1-.3-2.7-.9s-1.1-.8-1.5-.8-.9-.3-1.3-.6c-.7-.6-.8-.5-2.4,1-1.4,1.4-2,1.7-3.4,1.7-2.1.2-2.9.6-4,2-.7.9-.9,1.1-1.7.8-1.6-.6-2.6-.4-3.8.7-.9.8-1.2,1.5-1.4,2.8-.2.9-.2,1.9,0,2.1.2.3-.1.4-.6.4-1.3,0-4,2.3-4.5,3.8-.2.7-.6,1.5-.7,1.7-.5.6-.8,7.3-.4,7.5.2.1.4.9.4,1.7,0,1.2-.2,1.6-1.1,2.2-.6.5-1.4.8-1.8.8s-.9.3-1.3.6c-.4.3-1.4.7-2.3.9l-1.7.3-.3,3.5c-.3,4-.6,4.7-1.8,3.6-.7-.6-.9-.6-2-.2-1.8.7-2.3.7-2.4-.2-.2-1.1-1.2-2.1-2-2.1s-4,1.5-5.6,2.7c-.5.4-1.5.7-2.2.7-1.2,0-2.4.9-4,3.1-.5.7-1.3,1.2-2.4,1.4-3.4.8-3.9,2.5-1.7,5.8,1.5,2.3,2.6,3.2,3.8,3.2s1.4,1.2.9,4.4c-.2,1.4-.3,3-.2,3.6.3,1.7-.5,3.5-2.1,4.5-1.1.7-1.4,1.2-1.4,2,0,1.5-.7,2.9-2.2,4.6-.7.8-1.4,1.9-1.6,2.5-.2.8-.7,1.3-1.9,1.8-2,.9-2.7,1.9-2.7,3.8s-.2,1.5-.3,1.6c-.2.1-.8.9-1.2,1.9-.5.9-1.5,2.3-2.3,3-1,1-1.5,1.8-1.5,2.5s-.3,1.6-.6,2.3c-.7,1.4-1.2,3.3-1.4,5.2,0,.8-.4,1.9-.8,2.6s-.6,1.5-.6,1.8-.4.5-.9.5c-1.1,0-2.8,2.3-2.8,3.8s-.2,1.1-.8,1.3c-1.2.3-2.2,1.3-2.2,2s-.7,1.2-1.5,1.9c-1.1.9-1.5,1.6-1.5,2.3,0,.5,0,1.4,0,1.9,0,.5-.1,1.7-.2,2.7-.3,1.5-.2,1.8.6,2.2.8.4.8.6.6,2.7-.1,1.3-.6,2.9-1,3.5-.9,1.5-1.1,6.9-.2,7.7.3.3.6.9.6,1.5s.4,1.4,1.5,2.2c.8.6,1.8,1.8,2.1,2.4.4.7.9,1.4,1.2,1.5.8.3,2.2-.8,3-2.3.5-1.1,1-1.5,2.3-1.8l1.7-.5,1.1,2.4c.9,2.1,1.2,2.4,1.7,2,.4-.3.9-.3,2.3,0,3.5.9,5.6.9,7.3,0,1.9-1,3.1-1,3.9-.1,1,1.1.8,1.9-.7,2.8-1.9,1.3-2.4,4.3-1.1,8,.5,1.5,2.2,4.7,2.4,4.7s.4.5.6,1c.4,1.7.9,2,3.1,2s2.3-.2,3-.8l.9-.8,1,1.2c.6.7,1.5,1.5,2.3,1.8.8.3,1.2.8,1.2,1.2,0,1.1,2.4,3.2,4,3.4,1.3.2,1.4.3,1.5,1.5,0,.7.2,1.7.3,2,.2.5,0,1.3-.6,2.4-.7,1.4-1.5,2-3.5,3.2-1.4.8-3.1,2-3.7,2.5l-1.1,1-.8-1.1c-.4-.6-1.1-1-1.6-1s-1-.2-1.2-.4-.8-.2-1.5,0c-.9.3-1.1.5-1.2,1.7s-.5,1.7-.9,2c-.4.4-.7,1.1-.7,1.6s-.3,1-.9,1.2c-.9.3-1.1.8-1,1.7,0,.2-.3.7-.8,1.2-.7.7-.8,1.4-.9,4,0,1.7-.3,3.2-.5,3.3-.2.1-.5.6-.8,1-.3.7-.2,1,1,2.3.8.9,1.5,1.6,1.8,1.6s.7.7,1.2,1.5c.6,1.1,1.1,1.5,1.7,1.5,1.4,0,2.5,1.1,2.7,2.7.2.8.4,1.6.6,1.7.2.1.3.8.3,1.6,0,1.7.9,2.9,2.3,3.2.8.2,1.2,0,2.2-1.2.6-.8,1.2-1.8,1.2-2.3s.3-.9,1.1-1c.6-.2,1.2-.3,1.4-.5.2-.1.7-.2,1.1-.3.4,0,1.7-.3,2.8-.5l2-.5,1.1,1.3c2.2,2.6,2.3,2.7,1.5,4.7-.4,1-1,2.5-1.3,3.2-.3.8-.6,1.7-.6,2s-.3.9-.6,1.3c-.5.5-.5,1.1-.2,3.4.2,1.6.2,3.6,0,4.8-.2,1.2-.4,3.1-.5,4.3l-.2,2.2,2,2.2c2.1,2.4,2.7,2.6,3.8,1.7,1-.8,2-.7,2.4.2.2.4.9.9,1.5,1.1.8.3,1.1.7,1.2,1.4,0,.6.5,1.2.9,1.5,1.1.6,3.2,2.8,4,4.3.4.7,1.1,1.7,1.5,2,.5.4,1.1,1.4,1.4,2.1.3.8.8,1.7,1,2.1.2.5.2.8,0,1.1s-.4.8-.4,1.3c0,1.3-.8,2.6-1.7,3.1-.9.4-.9.5-.3,1.5.3.6.8,1.3,1.1,1.4,1.1.7,4.4,4.7,4.6,5.6.2.6.6,1.4,1,1.8,1.2,1.3,1.5,3,1,5.8-.5,2.7-1.3,3.8-2.9,3.8s-1.4.4-2.3,1.5c-1.1,1.3-1.2,1.7-1,3,.1.8,0,1.9-.2,2.4-.3.8-.2,1,.3,1.3.5.3.5.5-.2,1.2-1,1-1,2.1,0,2.8.9.5.9.6.2,1.4-.5.6-.8,1.5-.9,3.5-.2,2.5,0,2.9.8,4.3.9,1.5,2,4.2,1.7,4.5s-7.1,1.1-8,1c-.4,0-1.4.5-2.2,1.1-1.4,1.1-1.5,1.1-2.1.5-1-.9-3.9-1.2-5-.5-.5.3-1.6.8-2.5,1.1-.9.3-1.8.7-2,1-.2.3-.7.5-.9.5-.9,0-.7,3.2.2,4,.6.5.8,1.1.8,2.4s.2,2,1.3,3.4c1.4,1.7,1.8,3.9.8,4.3-.3.1-.6.6-.6,1s-.3,1.2-.6,1.5-.6,1-.7,1.4c0,.6-.9,3.7-1.7,6.2-.2.6-.3,1.2-.2,1.4.2.2-.2.8-.6,1.2-.6.6-.8,1.2-.6,1.8.2.6,0,1.1-.3,1.2-.3.2-.6.8-.7,1.4,0,.9-.3,1.1-1,1.1s-2,1.5-2,2.8-1.4,2.1-1.7,1.5c-.1-.2-.4-.4-.6-.4-.5,0-2.6,4.9-2.6,6s-.2,1.2-.4,1.4c-.3.3-.2.6.2.9.6.5,1.7.5,6.4-.3,1.4-.2,2.7-.2,3.5,0,1.6.5,2.9,0,3.7-1.7.7-1.4,2.4-3.3,2.9-3.3s.8-.5,1.4-1l1.1-1,1.5.7c1.5.6,1.5.6,2.6-.2.8-.7,1.3-.8,2.4-.6,1.5.3,2.6,1.2,2.6,2,0,.9,1.8,2.1,2.4,1.6s1.9-.5,2.7.2c.4.3,1,.6,1.3.6s.7.3.9.6c.2.6,2.3.8,3.1.3s.6-.8.8-1.3.6-1,1.4-1,1.6-.5,2.3-1c1.1-.8,1.6-.9,3.1-.8,1,.1,2.1.3,2.5.5.5.3.7,0,.9-.8.2-.9.5-1.2,1.9-1.5,1.3-.3,1.7-.6,1.7-1.2s.3-1.3.6-1.9c.5-.9.7-1,1.2-.8.8.4,1.3.2,1.9-1,.2-.5.8-.8,1.1-.8.7,0,2.3-1.5,2.3-2.1s.5-.8,1-1.4c1.1-1.1,2.4-1.4,4.1-.6,1.2.5,5.8.5,6.3,0,.2-.2,1.6-.3,3-.3,2.1,0,3-.2,4.1-.8,1.3-.8,1.3-.8.8-1.7-.3-.5-.9-.9-1.3-1.1-.4-.1-.8-.4-.8-.7,0-.5-1.3-3-2.6-5.2-.9-1.4-1.6-3.4-1.4-3.9.1-.3-.2-.8-.6-1.2-.5-.4-1.1-1.4-1.5-2.2-.4-.9-1-1.8-1.3-2-.7-.6-.8-4.7-.2-5.1.7-.5,2,.1,2.4,1,.3.7.6.8,1.7.7.7,0,1.9-.5,2.7-.8,1-.5,2.2-.7,4.4-.7h3v1.2c.2.9.5,1.4,1.2,1.7s1,.8,1.1,1.3c.2.9,1.2,1.2,4.5,1.7,1.6.3,1.7.3,1.8,1.5,0,.7,0,2.2-.3,3.4-.4,2-.3,2.2.4,2.7.4.3.8.7.8,1,0,.5,2.7,2.8,3.3,2.8s.5.3.6.6c.1.3.4.5.7.5.4,0,.5.7.6,2.9,0,1.7.3,3.1.5,3.2.2.2.4.8.5,1.5,0,.7.3,1.3.5,1.3.2,0,.5,0,.7.1.1,0,0,.3-.3.7-.8.9-2.2,3.7-2,4,0,.1-.3,1.1-.8,2.2-.5,1.1-1,2.6-1,3.3,0,.8-.2,1.5-.4,1.7s-.2.9,0,2.1c.2,1,.3,2.2.2,2.7-.2.6,0,.9.6,1.1.9.2,1,.8.2,1.7-.4.4-.6,1.5-.7,3.2-.2,2.8-.7,4.6-1.5,4.6s-2.9,3.3-3.2,5.1c-.2,1.4-.3,1.7-1.1,1.7-1.3,0-2.1,2.3-2.4,6.2-.1,2.8-.3,3.5-1,4.3-.8.8-.8.9-.1,1.4.3.3.6.8.6,1.1s.2,1,.4,1.4c.3.6.6.6,1.6.3.7-.2,1.3-.3,1.3-.3s.3.5.7,1.1c.3.7.9,1.1,1.3,1.1.6,0,.8.3.8,1.6,0,4.9,0,4.6,1.6,4.7h1.4v2.3c0,2.4,0,2.3,3.6,3.5,2.3.7,3.9,1.6,7.3,4.1,2.4,1.8,3.2,2.2,3.5,1.8.7-1.1.3-2.1-1.4-3.7-2.1-2.1-2.9-3.5-2.7-5.2,0-1.1,0-1.5-.8-2-.8-.6-.9-.6-.6,0,.3.9-.2.8-1.8-.3-.8-.5-1.7-.8-2.2-.7-1.1.2-1.6-.7-.8-1.4.4-.3.4-.7,0-2.1-.3-.9-.8-1.7-1.1-1.7s-.6-.4-.7-.8c-.9-4.2-.9-4.3-.3-4.6.3-.2,1.1-.8,1.6-1.4s1.6-1.2,2.3-1.5,1.8-.9,2.4-1.5c.7-.7,1.4-.9,2.1-.9.8,0,1.5-.2,2.4-1.1,1.3-1.1,1.6-1.2,4.9-1.4,2,0,3.6-.3,3.6-.6s.7-1,1.5-1.8,1.5-1.8,1.5-2.2c0-1,2.1-1.7,2.8-.9.3.3.6.8.6,1.1s.3.5.8.5,1.2.7,2.1,2.1c.8,1.1,1.5,2.1,1.7,2.1.5,0,2.5-1.2,10.1-5.9,2.8-1.7,5.4-3.5,5.8-3.8,1.4-1.2,5.6-3,7.2-3,.8,0,2.5,0,3.8.2,1.6.2,2.6.1,3.2-.2.9-.5,1.3-1.7,2.3-8.8.2-1.5.5-2.9.7-3.3.2-.4.4-.9.4-1.2s.4-.8.9-1c.5-.2,1.2-1.1,1.6-2,.8-1.5.9-1.6,2.7-1.8,1.1-.2,2.4-.6,3-1.1.9-.7,1.2-.8,2.1-.4s1.1.3,1.8-.6c.8-.9.9-1,2.6-.5,1.4.4,1.8.8,2.6,2.3s.9,2.4,1,3.2c0,.8,0,1.5.1,1.7,0,.2.3.3.7.3s1.3.7,2,1.6l1.4,1.6,2.7-.5c1.5-.2,3.4-.5,4.4-.5,1.6,0,1.7,0,2.4-1.5s1-4,.5-4.8c-.3-.4-.6-.3-1.7.1-4.3,1.8-7-1.2-6.5-7.2.2-2.8.5-3.6,2.5-7,.9-1.5,1.9-3.4,2.3-4.2l.7-1.4-1.2-1.3c-1.1-1.2-1.2-1.3-.5-1.5.4-.2,1.6-.3,2.6-.3,1.7,0,1.9,0,2,.9.2,1.2.7,2.5,1.8,4,1.6,2.3,2,3.5,2.1,6.3,0,2.3-.2,3.1-.9,5-.6,1.2-1,2.7-1,3.4,0,1.1.2,1.3,1.2,1.7,1.6.6,1.8.5,1.6-.2-.2-.5,0-.6,1.2-.4,3.6.5,3.9.7,3.9,1.7s-.4,1.3-1,1.8c-1.6,1.3-1,2,1.7,2s2.4-.2,3.4-1.1c1.3-1.2,1.9-3,2-6,0-1.7,0-2.1-.8-2.6-.8-.5-.9-.8-.7-2.4.2-1.7,0-2-.9-3.5-1.1-1.7-1.4-2.8-.8-2.8s1.8-1.6,2.3-3c.2-.8.9-2.5,1.4-3.8l1-2.5h2.9c3.7-.2,4.1,0,4.1,1.6s.4,2,1,2.9c1.3,2,1.5,2.1,2.9,2.1s1.7.3,2.4.7c1.5.8,6.7,2.3,8.1,2.3h1l-1-1.4c-.6-.9-.9-2-.9-2.8,0-1.8-1.5-3.7-3-3.7s-1.2-.3-1.5-.6-1.1-.6-1.8-.6-1.8-.3-2.6-.5c-1.1-.5-1.3-.8-1.3-1.7s-.5-2-4-5.9c-1.9-2-2.4-2.8-2.4-3.8s-1.1-2.7-2.3-2.7-1-1.9.2-3.3c.7-.9.9-1.3.6-2.2-.2-.9-.1-1.3.8-2.1.9-.9,1.1-1.3.9-3-.2-3-.6-3.6-2.6-3.4-.9.1-2.1,0-2.7-.2-1.2-.5-1.2-.3-.3-5.7,0-.8,0-1.5-.2-1.6-.2-.2-1.3,0-2.4.3-1.1.3-2.7.7-3.5.9s-1.9.5-2.3.7c-1.1.6-1.2.6-1.2,0s-1.2-1.1-2.6-.8c-.6.2-1.1,0-1.1-.1,0-.6-2.6-.8-3.3-.2-.6.4-.8.3-1.5-.4l-.8-.9,1-1.2c.5-.6.9-1.3.8-1.5s.4-1.2,1.1-2.4c1.8-2.6,2.4-3.4,2.9-3.1.6.4,1.4-.7,1.4-2s-.4-1.9-.9-2.7c-.5-.8-1-2.1-1.2-3.1s-.5-2.1-.8-2.6c-.6-1.2-.2-2.1,1.6-2.8,1.4-.6,1.4-.5.7-5.6-.1-.8-.3-2.2-.4-3.1-.2-1.4-.3-1.5-.9-1.2-1.6.9-5.2,0-5.8-1.2-.2-.5,0-1.9.8-4.4.6-1.9.5-2.1-.7-3.5-.6-.7-1.1-1.5-1.1-1.7s-.2-1.1-.5-1.9c-.4-1.2-.7-1.5-1.7-1.7-.9-.2-1.5-.7-2.4-1.8-.6-.9-1.7-2-2.4-2.3-1.4-.7-1.8-1.7-1.4-3.1.1-.5,0-1.3-.3-1.8-.8-1.4.1-3.4,2-4.5.9-.5,1.8-.9,2.1-.9s.8-.3,1.3-.8c3.8-3.6,4.2-3.8,5.1-3.6,2.7.7,3,.7,3.7-.2,1.3-1.5,2.2-3.8,2.7-6.6.5-2.4.4-2.8-.1-3.7-.4-.5-.6-1.7-.6-2.5s-.4-2.3-.9-3.4c-1.1-2.1-1.1-3-.4-5.2.5-1.4,3.5-5,4.3-5s.3-.8.3-1.8c0-1,.3-2.7.7-3.8.6-2,.6-2-.4-3.7-.6-.9-1.4-2-1.9-2.4s-.9-.8-.9-.9.4-.9.9-1.6c.5-.8.9-1.9.9-2.6,0-1.9,1.2-4.3,3-5.8,1.7-1.5,1.8-2,2-8,0-1.2.3-2.3.5-2.6.2-.3.5-1.1.6-1.8.1-1.2.2-1.3,1.1-1.2s1,0,1.2-1.3c.1-.8.3-1.9.4-2.4.1-.6.5-1.5.8-2.1.5-.8.7-1.8.7-4.2,0-1.8.2-3.8.5-4.5,1.1-3,1.3-3.7,1.5-5,.2-1.2,0-1.5-.8-2s-1-.9-.9-2c.1-.8,0-1.6-.1-1.9s-.4-1.2-.6-2.1c-.3-1.6,0-2.3,2-4.7.5-.6,1-2,1.3-4,.5-2.9,1.2-4.3,2.6-4.7.5-.2.6-3.9.2-5.4-.2-.7-.7-1.2-1.4-1.5-.8-.3-1.1-.2-1.7.6l-.8.9v-.8c0-.6-.4-1-1.2-1.4-2.4-1.1-3.2-2.2-4-5.9-.2-.7-.5-1.7-.8-2.2s-.5-1.7-.6-2.6-.4-2-.8-2.4c-.5-.5-.6-1-.3-2.1.6-2.8.5-3.7-.6-4.3-1.2-.7-1.7-2.7-1.1-4.2.2-.6.4-1.7.4-2.4s.2-1.7.5-1.9c.7-.6.3-2.3-.8-3.4-1.2-1.3-3.2-6.1-3.2-7.6s-.3-1.7-.6-2.1c-.5-.6-.7-1.8-.7-3.8,0-3.2-.6-4.3-2.6-6q-1.1-1-.7-3c.5-2,.5-2-.5-2.8-.9-.7-1-1-.8-2.4.2-.9,0-1.9-.2-2.5-.3-.7-.3-1.2,0-2,.4-1,.7-1.3,3.2-2.5.6-.3,1.7-1,2.3-1.6l1.2-1.1-.3-3c-.2-2-.2-3.7,0-5,.5-2.3,0-4.1-1.2-5.2-.9-.8-1-2.1-.3-2.1s1.1-.6,1.8-1.4c1.2-1.2,1.4-1.7,1.5-3.5.2-1.9.3-2.3,1.7-3.7,1.8-1.7,1.8-2,1-3.2-.5-.8-.5-1.1-.1-2,.3-.6.9-1.5,1.5-2,1.2-1,1.3-2,.4-4-.6-1.4-.5-1.4.8-4.3,1.2-2.6,1.6-3,3.3-4,1.1-.6,2.4-1.7,3-2.6.9-1.3,1.1-1.8,1-3.7,0-2.1,0-2.1,1.4-3.3,1.1-.9,1.6-1.5,1.7-2.6.1-.8.5-1.9.8-2.4.3-.6.6-1.4.6-1.8,0-1.2-1.8-4.9-2.3-4.9-1.8,0-3.9,2.1-5,4.9-.3.9-1,2.3-1.4,3-.4.7-.8,1.6-1,2-.2.5-.5.6-1,.5-.9-.2-4.8.5-5.4,1-.3.2-.5.7-.5,1.1s-.3.8-.6.9c-.4.1-1.4.5-2.2.9-2,.9-2.1.9-3.9-.6-.9-.7-1.8-1.3-2.1-1.3s-1-.9-1.6-2-1.4-2.2-1.7-2.5c-.3-.3-.6-1.1-.6-1.9s-.5-2.2-2.3-4.9c-2.4-3.7-2.6-4.4-1.7-7.5.6-1.9.6-2-.4-3.7-.7-1.2-1.2-1.7-1.8-1.7s-1.2-.3-1.7-.6c-.7-.5-.8-.8-.6-1.8.1-.7,0-2.1-.3-3.2-.5-1.7-.8-2-2.3-2.7-1.7-.7-2.3-1.9-1.3-2.5.8-.5.4-3.4-.6-4.9-.5-.8-.9-1.5-.9-1.7,0-.4-1-.6-2.9-.7-.7,0-2.5-.8-4.3-1.8-3.6-2-5.2-2.2-5.2-.7ZM336.6,422.2c0,.2,0,.4-.2.4-.1,0-.3-.2-.4-.4-.1-.2,0-.4.2-.4s.4.2.4.4Z"/>
</svg>