<?xml version="1.0" encoding="UTF-8"?>
<svg id="_레이어_2" data-name=" 레이어 2" xmlns="http://www.w3.org/2000/svg" version="1.1" viewBox="0 0 2455.4 691.3">
  <defs>
    <style>
      .cls-1 {
        fill: #40dfee;
      }

      .cls-1, .cls-2, .cls-3, .cls-4, .cls-5, .cls-6, .cls-7, .cls-8, .cls-9, .cls-10, .cls-11, .cls-12 {
        stroke-width: 0px;
      }

      .cls-2 {
        fill: #331011;
      }

      .cls-3 {
        fill: #ed6869;
      }

      .cls-4 {
        fill: #01576e;
      }

      .cls-5 {
        fill: #a0430a;
      }

      .cls-6 {
        fill: #fdfcfa;
      }

      .cls-7 {
        fill: #f8c15a;
      }

      .cls-8 {
        fill: #01677b;
      }

      .cls-9 {
        fill: #000;
      }

      .cls-10 {
        fill: #047c85;
      }

      .cls-13 {
        isolation: isolate;
      }

      .cls-11 {
        fill: #903508;
      }

      .cls-12 {
        fill: #49180f;
      }
    </style>
  </defs>
  <g>
    <g>
      <path class="cls-2" d="M1371.6,186.7c.9,5.3-5,17.4-10.2,19.5-.3.1-2,.4-2.8.5-7.2,1.1-18.9-2.4-19.7-10.7-5.6,7.6-12.7-.2-14.8,0-.4,0-4.6,3.1-6.5,3.7-15.3,4.8-31.3,3.1-33.9,3.7-1,.2-2.3,2.2-2.8,2.3-1.2.3-4.8-1.8-5.1-1.9-5.1-.5-24.6,4.3-32,3.7-.7.7,1.7,6.6,2.1,7.9,1,3.1,1.7,4.2,1.9,4.6,3.3,8.8,12,28.6,16.2,36.4,3.8,7,9.1,13,12.1,18.3,4.4,8,19.6,40.2,21.3,41.8-10.7,0-34.6,1.7-43.6.5-.7-.1-1.7.1-2.1,0-1.4-.5-12.5-20.8-15.1-24.8-11.5-17.9-23.5-35.7-38.5-50.8.2-.3,2.2-7.2,2.6-7.4,1.8-1,23.3,4.6,25.1-25.1-4.3,1.9-8.8,3.4-13,5.6-1.8.9-3.5,3.8-6,3.2-1.7-8.4,20.2-12.2,32.9-19,4.3-2.3,10.5-7.7,11.1-7.9,2.2-.5,9.3,3.8,18.1-.5,2.4-1.2,5.2-4.6,5.6-4.6,1.6-.2,16.1,10.7,23.2-12.1,14.4,20.8,40.4,3.1,27.2-16.9-.5-4.4,9.8,0,7.9,13.5-.6,4.6-6.2,6.9,3,14.1,16.5,12.9,29.4-2.9,31.1-2.8.4,0,4.5,2.6,4.9,5.1h0Z"/>
      <path class="cls-6" d="M1388.3,181.1c-5.3,8.2-13,8.6-13.5,9.5-.1.3,0,3.9-.9,6.5-3.8,9.6-14.1,14.8-14.4,15.8-.6,1.8,1,16-12.5,34.8-15.9,22.1-35.3,18.4-39.2,19.7-1.4.5-7.1,12.1-26.2,11.8,4.6,8,8.8,16.2,13,24.4,1,2,5.9,13.4,6.5,13.9-1.2.6-2.8-.1-3.7-.9-1.7-1.6-16.9-33.8-21.3-41.8,11.4,3.2,16.7.9,25.1-6.5,1.6-1.5,3.4-2.8,4.6-4.6.4,0,1.5-.9,1.6-.9,2.4.1,5.9,2.7,16.7-1.4,8.8-3.3,17.5-11.9,22.5-19.7,11.7-18.1,9.5-30,10.2-31.6.2-.5,5.4-1.8,4.6-3.9,5.2-2.1,11.1-14.1,10.2-19.5,21.4-3.1,15.6-24,15.8-25.8,0-.3,1.9-2.1,2.3-5.1,1.1-8.4-2.8-12.2-2.8-13.9,0-1.2,6.6-11.4-1.9-23.7-3.1-4.4-7.8-6.4-7.9-7-.3-1.2,6-8.3-.5-23.2-7.1-16.3-19.8-15.5-20.4-16.7-.2-.3.9-4.1.5-7.4-1.4-9.5-11.8-23-22.3-16-.4-1.8-1.3-2.6-1.4-2.8-7-18.8-23.9-22.3-31.1-18.6-.6-.2-.7-.9-.9-1.4-7.5-12.7-25.4-17.8-37.6-8.8-.6.4-1.1,1-1.9.9-4.1-14.9-32.4-15.3-42.9-7.9-1.4,1-6.5,6.4-6.7,7.9-6.7-15.1-33.8-11.8-40.4,1.9-.2.4-.4,1.3-.9,1.4-8.8-7.3-25.7-2.3-29.2,8.8,0,.1-.9.4-.9,1.9-19.8-3.2-20.8,14.5-22,15.3-1.2.7-15.4-1.9-14.6,18.6-.5,0-.4.2-.5.5-18.3-1.8-19,16.8-19.5,18.3-.2.5-4.2,2.4-6,4.6-7.4,8.9-3.4,22-3.7,23.2-.2.7-5.5,5.2-7.4,11.6-3,10-1.9,40.2,4.2,49,.4.6,1.3,2.4,1.9,2.8,4.3,21.4,23.1,33.3,44.6,30.2-4.9,28.4,25.1,49.2,51.3,44.6,1.8-.3,3.9-2.3,4.2-2.3.8,0,5,3.4,16.7-.9,1.1-.4,8.2-4.6,8.6-5.1,15,15.1,27,33,38.5,50.8,2.6,4,13.7,24.3,15.1,24.8.4.1,1.3-.1,2.1,0,0,1.8-3,.9-5.1.9,1-1.4-.3-.8-.5-.9-3-3.1-36.4-59.2-49.9-70.5-21.2,10.3-49.8,12.2-69.1-3.2-18.6-14.9-15.1-32.3-16.7-33.4-1.8-1.3-25.2,1.2-37.8-19-2.4-3.9-10.2-23.1-11.1-27.6-1.2-6.3-2.5-28.7-1.9-34.8,1.4-12.8,8.6-17.5,8.8-18.6.2-1-3.1-9.9,1.4-19.9,2.8-6.3,8.5-8.3,8.8-8.8,1.3-2.4.6-17.4,19-20.4,1.9-20.6,14.8-18.6,16-19.3.2-.1,1.3-3.8,2.1-4.9,9.2-12.8,17.1-9.2,19.3-10,.8-.3,3.7-8.6,13-12.1,11.6-4.4,18.1.1,19,0,1.4-.2,7.7-11.1,24.1-11.6,13.1-.4,18,6.1,19,6,1.6,0,7.3-10.4,28.8-8.8,16,1.1,21.9,9.6,23.2,9.8,1.3.2,10.4-6.4,26.4,0,9.3,3.7,13.5,10.9,14.4,11.1,2.2.7,7.7-2.2,18.6,4.2,11,6.5,12.9,15.4,13.9,15.8.9.3,9.5-1.1,17.4,8.1,7.5,8.7,5.6,17,6,18.1.4,1.1,10.3,2.2,17.6,14.8,9.5,16.3,4.3,26.4,4.6,27.8.2.9,7.8,6.1,9.8,14.8,2.3,10.2-1.4,16.7-1.4,17.6,0,.7,2.8,1.5,2.3,14.4,0,1.4-1.8,4.9-1.9,5.6,0,1,3.4,7.9-3.7,18.8h0Z"/>
      <g>
        <g>
          <path class="cls-4" d="M1328.9,213.6c1.6,6.1,6,3.6,7.9,5.6-32.6-2.2-53.3-6.3-89.1.9-.2-.4-.8-1.5-1.9-4.6,32.9-5.5,51.4-3.8,83.1-1.9Z"/>
          <path class="cls-8" d="M1353.9,220.1c-.8.5-14.7-.8-17.2-.9-1.9-1.9-6.3.6-7.9-5.6,3.2.2,23.8.2,24.8.9.6.4,0,4.6.2,5.6h0Z"/>
        </g>
        <g>
          <path class="cls-1" d="M1361.4,206.2c.7,2.1-4.4,3.4-4.6,3.9-.7,1.5,1.5,13.5-10.2,31.6-5.1,7.8-13.7,16.4-22.5,19.7-10.8,4.1-14.3,1.5-16.7,1.4,0,0-1.3,1-1.6.9-8.2-.9-23-7.3-29.5-12.5-8.4-6.8-6.8-12.1-13.7-10,11.1,16.8,20,20.9,38.5,27.2-8.3,7.4-13.7,9.7-25.1,6.5-3-5.3-8.2-11.4-12.1-18.3-4.3-7.8-13-27.7-16.2-36.4,35.8-7.2,56.5-3.2,89.1-.9,2.4.2,16.4,1.4,17.2.9,3.1-2.1-1.5-11.8,6-12.8l-1.4-.7c.7-.1,2.4-.3,2.8-.5h0Z"/>
          <g>
            <path class="cls-4" d="M1305.7,263.7c-1.3,1.8-3,3.2-4.6,4.6-18.5-6.3-27.4-10.4-38.5-27.1,6.9-2.1,5.3,3.1,13.7,10,6.5,5.3,21.2,11.6,29.5,12.5h0Z"/>
            <path class="cls-4" d="M1277.6,221c7.2-.3,14.6.2,21.8,0v4.2c-6-.8-42.5,3.1-44.6,2.3-.6-.2-3.2-4.6-.9-4.6,7.9-.2,15.8-1.6,23.7-1.9Z"/>
            <path class="cls-8" d="M1305,236.8c10.1-.9,28.2,3.6,39.2,4.4-.9.8-3.4,5.2-3.9,5.3-3.5,1-29.2-4.7-34.8-7-3.9-1.6-6.5-2.2-.5-2.8h0Z"/>
            <g>
              <path class="cls-8" d="M1301,233.6c-1.1-2.7,3.8-2.9,3.7-5.1,14.9-.2,29.5,2,44.3,3.2.9.5-1.9,4.7-2.1,4.9-2.5,1.9-27.9-3.2-32.7-3.5-4.5-.3-8.8.4-13.2.5h0Z"/>
              <path class="cls-4" d="M1304.8,228.5c0,2.2-4.9,2.4-3.7,5.1-11.5.2-40.5,3.2-42.5,2.3-.3-.1-1.4-3.3-2.1-3.9,16-.8,32.2-3.2,48.3-3.5h0Z"/>
            </g>
            <path class="cls-8" d="M1308.2,221l44.6,2.3c1.5.6-.3,5.2-1.9,5.6-14.3-2.5-29.3-2.3-43.4-5.3l.7-2.6h0Z"/>
            <g>
              <path class="cls-4" d="M1312.7,245.6c1.1,2.5-2,2.9,0,5.6-9.5-2.3-18.2-7.5-26.9-11.8,2.7-.2,9.2-1.5,10.9-1.2.9.2,4,4.2,16,7.4Z"/>
              <path class="cls-8" d="M1312.7,251.2c-2-2.6,1.1-3.1,0-5.6,8.2,2.2,16.7,2.6,25.1,3.9-1,.8-4,4.3-4.4,4.4-1.7.5-17.6-2.1-20.7-2.8Z"/>
            </g>
            <path class="cls-8" d="M1268.3,255.9c8.7,10.2,25.3,13.6,25.3,15.1-1.3.7-3.1,3-4.4,3-1.9,0-23.1-8.6-20.9-18.1h0Z"/>
            <g>
              <path class="cls-4" d="M1304.8,254c-.7,3,.8,4.4-2.3,4.6-12.4-3.4-20.6-9.6-29.2-18.8,9-3.1,6.6-.4,8.8,1.9,6.3,6.5,13.9,10.2,22.7,12.3h0Z"/>
              <path class="cls-8" d="M1302.4,258.6c3.2-.2,1.6-1.6,2.3-4.6,7.2,1.7,21.3,1.9,21.3,3-6.4,6.5-15.8,3.8-23.7,1.6h0Z"/>
            </g>
            <path class="cls-10" d="M1304.1,220.6l1.2.7c-.6,5.9-3.2-.2-1.2-.7Z"/>
          </g>
        </g>
        <g>
          <path class="cls-1" d="M1358.6,206.7l1.4.7c-7.5.9-2.9,10.7-6,12.8-.2-1,.3-5.2-.2-5.6-1-.7-21.7-.7-24.8-.9-31.6-1.9-50.1-3.7-83.1,1.9-.4-1.2-2.8-7.2-2.1-7.9,7.4.6,26.9-4.2,32-3.7.3,0,3.9,2.1,5.1,1.9.5-.1,1.8-2.1,2.8-2.3,2.6-.6,18.5,1.1,33.9-3.7,1.9-.6,6.1-3.7,6.5-3.7,2.2-.2,9.3,7.6,14.8,0,.8,8.3,12.5,11.7,19.7,10.7h0Z"/>
          <path class="cls-4" d="M1321.7,202.5c.8-.1,15,1.6,15.8,1.9.5.2,2.3,3.9,2.1,4.4-4.8.1-15-2.1-18.3-1.6-1.4.2-5.1,3.6-11.1,1.9-.8-.7,10.9-6.4,11.6-6.5h0Z"/>
        </g>
      </g>
      <g>
        <path class="cls-2" d="M1261.6,17.3c.8,0,1.3-.5,1.9-.9,1.5-.1,2.9,4,3.2,5.3,4.7,18.3-8.7,27-9.8,29.7-1.4,3.8-.8,27.8-2.6,28.5l-3.9-.7c1.3-7.2-.2-24.7,2.3-30.2,1.8-3.8,14.6-10.6,8.8-31.8h0Z"/>
        <path class="cls-2" d="M1334.5,48c-.7.5-4.6,5.3-5.1,6.3-9.2,17.1,9.7,34.9-2.8,33.4-3.2-18.2-11-27.5,6.5-42.5,0,.2.9,1,1.4,2.8h0Z"/>
        <path class="cls-2" d="M1214.3,129.2c0-1.8-.8-2-1.4-3.2.9.2,1.4-.4,2.3-.5,5.7-.5,9.2.3,18.3-3.2,4.4-1.7,27.3-16.2,29.5-19.3,4.5-6.4,1.5-17.7,6.5-24.6,1.7-2.3,4.8-3.7,6.5-6,12.1-16.4-3.8-43.2,11.1-42.2-5.7,13.3,1.7,19.5-3.2,36.2-1.1,3.8-4.6,3.6-.5,9.3-14.2,2.1-11.4,9-13,19.5-1.2,8.1-5.1,7,1.9,10.2.3,2.2-5.6,1.7-11.8,4.9-8.5,4.3-23.4,22.2-46.2,19h0Z"/>
        <path class="cls-2" d="M1215.2,114.3c-1.5-2.5,2.4-5.1,4.6-7,1.7-1.4,5.2-2.8,6.7-4.2,12.4-10.8-.4-15.1-5.3-20.9-.8-.9-1.1-2-1.4-2.3.2-1,1.2-2.5,1.9-3.2.2-.3.6-.6.9-.9,2.9-3.1,6.7-5.5,9.5-8.8,4.7,3.3-2.4,7-7.7,13.2,0,2.5,32.8,15.2-9.3,34.1Z"/>
        <g>
          <path class="cls-3" d="M1261.6,17.3c5.8,21.1-7.1,28-8.8,31.8-2.5,5.4-1.1,22.9-2.3,30.2l3.9.7c1.7-.8,1.1-24.7,2.6-28.5,1-2.7,14.4-11.4,9.8-29.7-.3-1.3-1.8-5.5-3.2-5.3,12.2-9,30.1-3.9,37.6,8.8-8.4,2-10.5,14.5-4.2,14.2-1.6-5.9,3.5-11.9,5.1-12.8,7.2-3.7,24.1-.2,31.1,18.6-17.5,15-9.7,24.3-6.5,42.5,12.4,1.5-6.4-16.3,2.8-33.4.5-1,4.4-5.8,5.1-6.3,10.4-7,20.9,6.5,22.3,16,.5,3.3-.6,7.1-.5,7.4.7,1.2,13.3.4,20.4,16.7,6.5,14.8.2,22,.5,23.2.1.5,4.8,2.6,7.9,7,8.4,12.2,1.9,22.4,1.9,23.7,0,1.8,3.9,5.5,2.8,13.9-.4,2.9-2.3,4.8-2.3,5.1-.2,1.7,5.6,22.6-15.8,25.8-.4-2.5-4.5-5.1-4.9-5.1-1.7-.1-14.6,15.7-31.1,2.8-9.2-7.2-3.7-9.6-3-14.1,1.9-13.5-8.4-17.9-7.9-13.5,13.2,20.1-12.7,37.7-27.2,16.9-7.1,22.8-21.7,11.9-23.2,12.1-.4,0-3.1,3.4-5.6,4.6-8.8,4.3-15.9,0-18.1.5-.7.1-6.8,5.6-11.1,7.9-12.8,6.8-34.6,10.7-32.9,19,2.5.6,4.2-2.3,6-3.2,4.2-2.2,8.7-3.7,13-5.6-1.7,29.6-23.3,24.1-25.1,25.1-.4.2-2.3,7.1-2.6,7.4-.4.5-7.5,4.7-8.6,5.1-11.7,4.3-15.8.8-16.7.9-.2,0-2.3,2-4.2,2.3-26.2,4.7-56.2-16.1-51.3-44.6.4-2.4,1.3-4.4,2.3-6.5.5-1,1.2-2.3,1.9-3.2,7.8-11.1,21.9-14.7,34.3-17.2.3,0,3.2.5,5.6-.7-7.1-4.6-6.6-17.3.7-19.7,2.1-.7,4.2-.2,6.3-.5.1,0,.3.8,2.6.5,10.9-1.6,23-4.8,31.8-11.6,6.6,1.5,23.7,3.2,21.1-1.9-6,.4-11.9-.4-17.9-.9,3.3-3.3,8.4-9.6,8.3-14.4,22.8,3.2,37.7-14.8,46.2-19,6.3-3.2,12.1-2.7,11.8-4.9-6.9-3.2-3.1-2.1-1.9-10.2,1.6-10.5-1.2-17.4,13-19.5-4.2-5.7-.7-5.5.5-9.3,5-16.7-2.4-22.9,3.2-36.2-14.9-1,1,25.9-11.1,42.2-1.7,2.3-4.8,3.7-6.5,6-5,6.9-2,18.2-6.5,24.6-2.2,3.1-25,17.5-29.5,19.3-9.1,3.6-12.6,2.7-18.3,3.2.8-1.9,0-2.1,0-2.3.4-2.1,2.4-5,1.9-7.2-.2-.7-1.5-1-1.9-1.6,42.1-18.9,9.3-31.6,9.3-34.1,5.3-6.2,12.3-9.9,7.7-13.2-2.8,3.3-6.6,5.7-9.5,8.8-3-15.6-6.2-31.2-8.8-46.9,13.4,2.1,11.7-5.1-.5-3.7-.4-2.5-1.8-5.3-1.4-7.9.3-1.5,5.4-6.9,6.7-7.9,10.5-7.4,38.9-7,42.9,7.9h0Z"/>
          <g>
            <path class="cls-12" d="M1301,25.2c.3.5.3,1.2.9,1.4-1.6.8-6.7,6.9-5.1,12.8-6.3.4-4.2-12.1,4.2-14.1h0Z"/>
            <path class="cls-2" d="M1343,63.3c8.4,2.3,5.3,18.3,5.8,19.3.5.9,11.5,0,15.3,12.1-2.9,3.6-7.6-10.4-16.2-6.5-.9,3.8-7.9,10.8-8.3,12.1-.3.9-.2,5.8-.5,7-2.3,8.7-12.2,9-12.5,9.8-.5,1.1,4.5,9.8-5.6,22.3,9.3,2.3,4.7.1,7.9-6,5.8-11.1,18.4-7.9,19.3-8.6.7-.5-3-10.2,1.6-16.9,5.5-8,16.9-3.3,13.2.2-14.7-3.8-13.3,16.1-5.6,23.7,7.9-3.1,5.2-6.1,6.5-6.5l13.7,10c-3.6,8.8-8.8-9.1-18.1.5,1.4,5,.6,12,.9,12.5.5.7,10.1-1.4,13.5,9.3,1.3,4.1,3.2,25-4.2,20.4,2-8.4,2.9-28-10.2-25.1,0,8.3-4.4,14.6-4.2,15.3.2.8,3.9.5,4.2,3.7-1.2,3.4-12.8,1.9-13,.5,9.8-6,14.8-39.6,2.6-43.4-11.4-3.5-19.6,8.4-18.3,12.8.2.9,5.6,2.1,3.9,4.9-22.4-9.1-29.8,4.5-31.8,3.5-.3-.1-2.2-4.5-3.2-5.1,38.6-8.6,21.2-44.1,8.1-35-7.2,5-.2,12-.2,12.8s-4.8,7-5.6,7.9c-18.8,24.2-53.9,17.2-68.4,20.2-9.8,2-20.1,11.3-31.6,14.9-9.2,2.8-19.3,3.5-28.8,5.6-4.6-5.6,9.4-4.9,19-7.4,20.3-5.2,28.8-14.4,37.6-16.7,13.2-3.4,46.8,2.6,65-14.9,9.3-9,5.7-12.4,5.8-13.2,1.2-13.7,8.3-12.9,8.8-13.9.4-.8-.7-11.7,7.7-14.2,7.2-2.1-2.6,3.6-3.5,13.7,11.3,4.2,8.1,12.1,16.9,6.7,6-3.7,4.3-9.8,5.3-12.8,1.6-4.8,14.3-8,7.2-35h0Z"/>
            <path class="cls-2" d="M1292.9,142.6c8.4-.2-10,3-3.9,18.8,2.5,6.6,8,5.9,3,10.4-7.2-4.5-10.7,4.9-13,3.7-4.8-13.6-17.9-14.1-26.4-2.8-4.3-4.6.2-7.7-12.5-5.1-5.8,1.2-12.4,5.8-16.7,7-7.6,2.1-19.5.4-30.6,8.8-5.5,4.2-9.9,13.2-13.7,9.5,15.5-23,29.1-18.8,42.9-22.5,5.1-1.4,10.3-5.2,15.3-6.5,1.4-.4,13.8-2.2,14.4-1.9.7.4.6,3.2,1.9,3.2s12.8-13.4,27.8,4.2c10.4-4.8-1.7-7.9,3-20.2,1-2.6,5.8-6.7,8.6-6.7h0Z"/>
            <path class="cls-2" d="M1182.5,179.7c6.5-.2-7.5,11.3-13.5,12.5-8.1,1.7-19.1-1.5-27.4,7-8.7,8.9-5.6,23.5,3.2,20.9.6-.2,3.9-4.3,5.1-5.1,7.9-5.3,14.5-2.2,17.6-3.7,1.2-.6,6.3-10.9,10.9-6.3-8.5,15.9-7.3,8.7-19.3,10.4-10.1,1.5-15.2,12.6-10,21.1-9.7,4.9-5.5-11.3-6-12.1-.5-.7-8.6,1.3-10.7-7-2.2-8.7,1.4-18.5,8.6-23.9,13-9.9,22.8,1.6,41.3-13.9Z"/>
            <path class="cls-2" d="M1307.3,39.6l9.1,6.3c-5.2,2.1-6.5,1.5-8.8,7-1.2,2.9-4.5,21.9-5.1,26.5-.1.9,1.4.9,1.4,1.4,0,1.4-5.6,12.6-7,14.4-1.8,2.4-7.1,6.5-9.3,9.3-5.8,7.4-16.4,25.9-19.9,18.6,6.5-5.9,10.6-13.7,15.8-20.4,2.5-3.2,7.3-6.6,9.8-10.2,8.3-12.2,5.6-34.1,14.2-52.7h0Z"/>
            <path class="cls-2" d="M1238.6,181.6l2.1,3.5c-13.2,11.8-19.1,7.1-28.5,9.1-15.1,3.1-24.2,18.3-13.2,31.3,0,1-4.1-.3-5.8.2-2.4.7-5.3,8.2-10.9,4.9-.6-.8,8.7-7.7,8.8-8.4.4-1.8-5.6-14.9,6.3-25.3,13.6-11.9,28.1-2.2,41.3-15.3h0Z"/>
            <path class="cls-2" d="M1234.4,17.3h2.3c1.5,4.5,10.8,31.4,9.5,33.6-1,.6-1.9.8-3,.7-1.6-.6-8.2-29.1-10-32.7l1.2-1.6h0Z"/>
            <path class="cls-2" d="M1152.8,228.9c5.4,3.5,15,.4,16.2.9,1.2.5,2.4,8.7,3,10.4,1.5,4.2,5.3,3.4,1.2,6.7-8.1-4.5-5.7-11.8-7.4-12.5-2.1-.9-15.1,2.2-13-5.6h0Z"/>
          </g>
        </g>
        <path class="cls-12" d="M1168.3,157.5c-2.1.2-4.1-.2-6.3.5-7.3,2.4-7.8,15.1-.7,19.7-2.4,1.2-5.3.6-5.6.7-8-10-.8-28.6,12.5-20.9h0Z"/>
        <path class="cls-2" d="M1213.8,28.9c-.2-1.2-.3-2.5-.5-3.7,12.1-1.4,13.9,5.8.5,3.7Z"/>
        <path class="cls-3" d="M1219.8,107.4c1.7-8.3,1.4-16.6,1.4-25.1,4.9,5.8,17.7,10.1,5.3,20.9-1.6,1.3-5,2.8-6.7,4.2Z"/>
      </g>
    </g>
    <g>
      <path class="cls-7" d="M1119.6,198.8c-1.1,2.1-1.9,4.1-2.3,6.5-21.5,3.2-40.3-8.8-44.6-30.2,5.3,3.2,14.8-2.5,15.6-2.3.5.1,2.8,4,7,7.9,1.1,1,6.4,3.8,6.7,4.4.5,1,.2,12.4,10.4,18.3,5.9,1.2-7.9-7.2-6-16.7,2.6,1.2,10.6,1.2,11.1,1.4,1.3.6,0,7.4,2.1,10.7h0Z"/>
      <path class="cls-11" d="M1121.4,195.5c-.7.9-1.3,2.2-1.9,3.2-2-3.3-.7-10.1-2.1-10.7-.5-.2-8.5-.2-11.1-1.4-1.9,9.6,12,17.9,6,16.7-10.3-5.9-9.9-17.4-10.4-18.3-.3-.6-5.6-3.4-6.7-4.4-4.1-3.9-6.4-7.8-7-7.9-.8-.1-10.3,5.5-15.6,2.3-.6-.4-1.4-2.2-1.9-2.8,2.2,2.3,15.3-.8,15.8-3,.3-1.7-8.6-13.5-.5-33.9-14,2.9-.4-3.9,10-9.1,1.2.6-7.9,8.1-9.5,19.3-3.1,21.2,9.5,39.7,31.8,39.7,2.1-6.7,13.3-25.8,17.4-21.1-7.7,8.6-16.7,18.9-14.4,31.3h0Z"/>
      <path class="cls-12" d="M1205.9,143.5c6,.5,11.8,1.3,17.9.9,2.6,5.1-14.6,3.4-21.1,1.9-2.6-.6-9.1-1.7-8.1-4.2,3.8.7,7.5,1.1,11.4,1.4h0Z"/>
      <g>
        <path class="cls-7" d="M1211.9,17.3c-.5,2.6,1,5.4,1.4,7.9.2,1.2.3,2.5.5,3.7,2.7,15.6,5.8,31.3,8.8,46.9-.3.3-.7.7-.9.9-11.4-9.5-3.8-24.3-16.5-31.1-2.7-1.5-12.6,1-2.6-20.6-7.7-1.5-9.9,19.3-4.9,22,.8.4,10.2.3,12.8,10,1.9,7-2.8,8.7,9.3,23,.3.3.6,1.4,1.4,2.3,0,8.4.3,16.8-1.4,25.1-2.3,1.8-6.1,4.4-4.6,7,.4.6,1.7,1,1.9,1.6.5,2.2-1.5,5.1-1.9,7.2-5-10.2-31.2-19.3-27.6-10.7,8.7-.7,21.3,5.6,25.3,13.5.6,1.2,1.4,1.4,1.4,3.3,0,4.8-5.1,11.1-8.3,14.4-3.8-.3-7.6-.7-11.4-1.4-1,2.4,5.5,3.6,8.1,4.2-8.8,6.9-20.9,10-31.8,11.6-2.2.3-2.4-.5-2.6-.5-13.3-7.7-20.5,10.9-12.5,20.9-12.5,2.5-26.5,6.1-34.3,17.2-2.3-12.4,6.7-22.8,14.4-31.3-4.1-4.7-15.3,14.5-17.4,21.1-22.3,0-34.8-18.4-31.8-39.7,1.6-11.1,10.7-18.7,9.5-19.3-10.3,5.1-24,11.9-10,9-8.1,20.4.8,32.2.5,33.9-.4,2.2-13.6,5.4-15.8,3-6.1-8.8-7.1-38.9-4.2-49,1.9-6.4,7.3-10.9,7.4-11.6.3-1.2-3.7-14.3,3.7-23.2,1.9-2.2,5.8-4.1,6-4.6.5-1.5,1.2-20.1,19.5-18.3-.2.7-.3,1.5-.9,2.1,8.1,2.8,10.2,1.4,1.4-2.6-.8-20.4,13.4-17.8,14.6-18.6,1.3-.8,2.3-18.5,22-15.3,0,2.2,10.3,6,10.7,7.2.3,1-2.6,8.4-1.9,20.4.6,8.6,5.5,30.5,15.8,30.2.8-.9-5.3-6.6-7.9-13-8.2-20.2-1.8-37.1-2.3-39-.2-.8-11.7-6.9-13.5-7.7,3.5-11.2,20.4-16.1,29.2-8.8.4.3,6,7.9,6,8.6,0,1.8-9.4,18.2-7.9,34.8,5.9,3.7,2.4-4.4,5.1-17.2,3.3-15.9,13-16.4-2.3-27.6,6.6-13.6,33.7-17,40.4-1.9h0Z"/>
        <g>
          <path class="cls-11" d="M1140.5,31.2c0-1.4.9-1.8.9-1.9,1.7.8,13.2,6.9,13.5,7.7.5,1.9-5.9,18.8,2.3,39,2.6,6.4,8.7,12.1,7.9,13-10.3.3-15.2-21.6-15.8-30.2-.8-12,2.2-19.4,1.9-20.4-.4-1.2-10.8-5-10.7-7.2h0Z"/>
          <path class="cls-5" d="M1170.6,20.6c.5,0,.7-1,.9-1.4,15.3,11.2,5.6,11.7,2.3,27.6-2.7,12.8.8,20.9-5.1,17.2-1.5-16.6,8-33,7.9-34.8,0-.6-5.6-8.2-6-8.6h0Z"/>
          <path class="cls-11" d="M1103.3,65.6c0-.2,0-.5.5-.5,8.8,3.9,6.7,5.3-1.4,2.6.6-.6.7-1.3.9-2.1Z"/>
          <path class="cls-11" d="M1215.2,123.1c0,.3.8.4,0,2.3-.9,0-1.4.6-2.3.5-4-7.9-16.6-14.1-25.3-13.5-3.6-8.6,22.7.5,27.6,10.7h0Z"/>
          <path class="cls-11" d="M1133.8,50.3l.7.7c-8.1,28.3,3.7,38.9,22,57.3,2.2-.4.3-16.3,5.3-13.2l.2,6.7c12.8-13.2,32.5-18.5,49.7-11.1,3.4,6.8-4.9-.5-17.6,0-11,.4-27.3,8.2-33.6,17.4-3.8,5.4,1.8,5.2.7,10-17.6.8-47.2,7-52.7,26.7-4.1,14.8,2.3,26.4-2.8,21.8-8.4-27.9,10.8-38.2,11.6-40.4,1-2.8-2.9-5.8,3.5-5.8.7.5-.4,3.8.9,4.2,1.8.6,21.3-10.1,35-10.4-8-10.9-20.6-18-25.5-31.1-3-8.2-6-28,2.6-32.7h0Z"/>
          <path class="cls-5" d="M1221.7,76.7c-.6.7-1.7,2.3-1.9,3.2-12-14.3-7.4-16-9.3-23-2.6-9.7-12-9.6-12.8-10-5-2.8-2.8-23.5,4.9-22-10.1,21.7-.2,19.2,2.6,20.6,12.7,6.8,5.1,21.6,16.5,31.1h0Z"/>
          <path class="cls-11" d="M1106.8,83.7c4.2-.8,1.7,2.3,3,5.8,4.1,11.3,16,5.8,14.8,9.3-14.1,1.4-26.6,7.8-38.8,14.6-4.5-6.4,24.2-14.1,24.8-15.6.3-.7-6.8-5.9-3.9-14.2h0Z"/>
          <path class="cls-5" d="M1178.3,131.9c4.8-1.7,2.8,5.3,2.8,13.5-3.5-4-28.2-7.2-31.6-7-4.3.3-4.5,4.7-4.4-1.6,1.3-2.1,10.8-.8,16-.2,17.2,1.8,17.4,6.8,17.2-4.6h0Z"/>
          <path class="cls-11" d="M1188.1,52.1c2.8-.8,3.3,9,6.7,14.1-4.7,5.1-9.3-13.4-6.7-14.1Z"/>
        </g>
      </g>
    </g>
  </g>
  <g class="cls-13">
    <g class="cls-13">
      <path class="cls-9" d="M341.5,555.8c0,3-3.1,4.5-9.4,4.5h-108.6c-6.6,0-9.9-1.3-9.9-4s7.7-4.5,23.2-5.5c8.2-.7,13-2.1,14.3-4.2,1.3-2.2,2-9.9,2-23.2v-145.6H102.5v141.5c0,15,1.2,23.8,3.5,26.5,2.3,2.7,10.2,4.5,23.5,5.5,8.7.7,13,2.2,13,4.5s-3.3,4.5-10,4.5H24c-6.7,0-10-1.3-10-4s3.3-4.3,10-5c4.3-.3,8.8-.7,13.5-1,7.3-.7,12-2.3,14-5,1-1.7,1.5-11,1.5-28V253.8c0-15-.8-23.8-2.2-26.5-1.5-2.7-6.8-4.2-15.8-4.5-10.3-.7-16.4-1.2-18.2-1.6-1.8-.3-2.8-1.8-2.8-4.2s2.2-4.2,6.5-4.2,4.2.2,8.5.5c8.3.7,28,1,59,1s28.8-.2,35.5-.8c2.3-.5,5.3-.8,9-.8,6,0,9,1.7,9,5s-5.4,4.5-16.2,4.5-17.3,1.3-19.5,3.8c-2.2,2.5-3.2,10.5-3.2,23.8v115.4h150.5v-107.9c0-17.7-1.3-28.2-4-31.4-2.7-3.2-12-4.6-28-4.3-5,0-7.5-1.5-7.5-4.5s2.8-4.5,8.5-4.5h109c7,0,10.5,1.5,10.5,4.5s-7.3,4.7-22,5c-4.3,0-7.5.3-9.5,1-3.3,1-5.4,2.8-6.2,5.5-.8,2.7-1.2,10.5-1.2,23.5v266c0,16,.8,25.3,2.5,28,3.3,3.7,12.8,5.5,28.6,5.5,5.3-.7,7.9.7,7.9,4Z"/>
      <path class="cls-9" d="M464.5,557.3c0,2-1.5,3-4.5,3h-84c-5.7,0-8.5-.9-8.5-2.6s3.7-3.6,11-3.9c10-.7,15.2-1.8,15.8-3.5.5-1.7.8-8.9.8-21.7v-162.1c0-13.1-.3-20.7-1-22.9-.7-2.2-3.2-3.4-7.5-3.8h-15c-3,0-4.5-1.2-4.5-3.5s2.2-3.5,6.5-3.5c-.3,0,.7,0,3,0h79.5c5.3,0,8,1.3,8,4s-5.7,3.2-17,3.5c-4.7,0-7.5.8-8.5,2.2s-1.5,6.1-1.5,13.8v188.5c0,3.3,1.2,5.5,3.8,6.5s8.4,1.8,17.8,2.5c4,.3,6,1.5,6,3.5Z"/>
      <path class="cls-9" d="M661,387.8c0,18.3-7.5,33.1-22.4,44.2-14.9,11.2-34.5,16.8-58.7,16.8s-10.3-.5-19.9-1.5h-3v90.5c0,9,2.2,13.9,6.6,14.8,4.4.8,10.7,1.2,18.9,1.2s5.4,1.2,5.4,3.5-1.9,2.7-5.8,3c-3.8.3-17.1.5-39.8.5s-44.8-.2-49.5-.5c-4.7-.3-7-1.4-7-3.3s1.3-3.6,4-3.3h7.5c7.7-.7,12.2-1.1,13.5-1.2,1.3-.2,2.3-.8,3-1.8.7-1,1-6.7,1-17v-167.5c0-13.3-.2-20.5-.5-21.5-1-3-6.4-4.5-16.3-4.5h-6.6c-3.7,0-5.6-1.3-5.6-4s1.8-2.7,5.5-3c3.7-.3,16.2-.5,37.6-.5,42.8,0,69,.8,78.7,2.5,35.4,6,53.1,23.5,53.1,52.5ZM617.5,388.1c0-31.8-14.1-47.7-42.1-47.7s-13.4.7-15.4,2-3,5.2-3,11.6v86.4c40.3,0,60.5-17.4,60.5-52.3Z"/>
      <path class="cls-9" d="M855,387.8c0,18.3-7.5,33.1-22.4,44.2-14.9,11.2-34.5,16.8-58.7,16.8s-10.3-.5-19.9-1.5h-3v90.5c0,9,2.2,13.9,6.6,14.8,4.4.8,10.7,1.2,18.9,1.2s5.4,1.2,5.4,3.5-1.9,2.7-5.8,3c-3.8.3-17.1.5-39.8.5s-44.8-.2-49.5-.5c-4.7-.3-7-1.4-7-3.3s1.3-3.6,4-3.3h7.5c7.7-.7,12.2-1.1,13.5-1.2,1.3-.2,2.3-.8,3-1.8.7-1,1-6.7,1-17v-167.5c0-13.3-.2-20.5-.5-21.5-1-3-6.4-4.5-16.3-4.5h-6.6c-3.7,0-5.6-1.3-5.6-4s1.8-2.7,5.5-3c3.7-.3,16.2-.5,37.6-.5,42.8,0,69,.8,78.7,2.5,35.4,6,53.1,23.5,53.1,52.5ZM811.5,388.1c0-31.8-14.1-47.7-42.1-47.7s-13.4.7-15.4,2-3,5.2-3,11.6v86.4c40.3,0,60.5-17.4,60.5-52.3Z"/>
      <path class="cls-9" d="M1102,448.1c0,32.3-10.5,59.6-31.5,82.1s-46.7,33.7-77,33.7-59.6-11.4-81.8-34.2c-22.2-22.8-33.2-50.6-33.2-83.6s10.6-62.3,31.8-84.1c21.2-21.8,48.2-32.7,81.2-32.7s57.6,11.4,78.8,34.2c21.2,22.8,31.8,51,31.8,84.6ZM1055,449.6c0-38.6-7.8-69-23.5-91.3-10-14.3-23.8-21.5-41.5-21.5s-42,13.3-53,39.9c-7.7,18.6-11.5,42.2-11.5,70.8s6,61,18,80.3,28.7,28.9,50,28.9c41,0,61.5-35.8,61.5-107.3Z"/>
      <path class="cls-9" d="M1330,485.8c0,1-.2,3.8-.5,8.5-1.3,18-2,30.7-2,38s.5,12.3,1.5,22v3.5c0,3.3-1.3,5-4,5s-5.3-2.8-8-8.5l-4.5-9.5c-.3-.7-.8-1.7-1.5-3-15,14.7-35.7,22-62,22s-61.7-11.2-84-33.7c-22.3-22.5-33.5-50.6-33.5-84.6s10.3-61.8,31-83.6c20.7-21.8,47-32.7,79-32.7s46,6.5,63,19.5c1.3,1.3,2.7,2,4,2s3.2-2.2,4.5-6.5c2.3-7.3,5.2-11,8.5-11s3.5,1.3,3.5,4-.3,1.8-1,4.5c-2,11.3-3.2,28.2-3.5,50.5-.3,14-2.2,21-5.5,21s-4.5-2.5-5.5-7.5c-3.3-17.9-7.3-31.1-12-39.7-10.7-18.9-28.2-28.3-52.5-28.3s-36.5,9.8-48.5,29.3-18,46-18,79.5,6.7,59.9,20,79.5c13.3,19.5,31.3,29.3,54,29.3s31.8-5.8,43.2-17.5,19.1-27.9,22.8-48.6c1.7-8.6,3.8-12.8,6.5-12.8s5,3.2,5,9.5Z"/>
      <path class="cls-9" d="M1579.5,557.8c0,2-3.3,3-10,3h-98.5c-6,0-9-1.3-9-4s6-4.1,18-4.5c14.3-.3,21.5-2,21.5-5s-1-3.8-3-9.4c-.7-2.6-4.5-13.7-11.5-33.3l-6-16.9h-71.5c-13.7,34.3-20.5,54.2-20.5,59.5s2,4.7,6,5l6.5.5h7.5l4.5,1.5c4,0,6,1,6,3s-3.5,3.5-10.5,3.5-6.9-.2-17.8-.8c-10.8-.5-20.4-.8-28.8-.8h-4.5l-4.5.8-5.5.8h-1c-5.3,0-8-1-8-3s2.2-3.7,6.5-4c6-.3,10-.7,12-1,5.7-1,9.3-2.5,11-4.5,2-1,10.2-20.1,24.5-57.1,5.7-15,11.2-29.1,16.5-42.1,2-4.7,3.3-8.2,4-10.5.7-2.3,2-5.9,4-10.5,5.7-13.7,13.7-34.4,24-62.2l7.5-21,3.5-9c2-5,4-7.5,6-7.5s3.2,4.7,6.5,14c10,24.3,35.8,88.7,77.5,193,4,10.3,7.8,15.8,11.5,16.5,1,.3,6.3.8,16,1.5,6.3.3,9.5,1.8,9.5,4.5ZM1478,479.3l-32.2-85.4c-8.1,20-19.2,48.5-33.4,85.4h65.6Z"/>
      <path class="cls-9" d="M1835,556.8c0,2.7-3,4-9,4,1.3,0-.3,0-5,0h-84c-6,0-9-1.2-9-3.5s.8-2.3,2.2-2.6c1.5-.3,7.1-.6,16.8-.9,7-.3,11.1-1.3,12.2-3,1.2-1.7,1.8-7.9,1.8-18.6v-161.4c-6,16.7-15.7,44.2-29,82.5-7.7,23-17.3,52.7-29,89-3.3,10.3-6,15.5-8,15.5s-5.5-4.5-8.5-13.5c-7.7-23-30.2-80-67.5-171v171.5c0,4.3,1.7,7,5,8,4.7.3,10.7.5,18,.5s6.5,1.2,6.5,3.5-3.3,4-10,4h-57c-5,0-7.5-1.3-7.5-4s5.3-3.7,16-4c7.3-.3,11.6-1.2,12.8-2.8,1.2-1.5,1.8-6.9,1.8-16.2v-169.5c0-11.3-1.1-18-3.2-20-2.2-2-9.4-3.2-21.8-3.5-4.3,0-6.5-1.3-6.5-4s2.8-3.2,8.5-3.5c5.7-.3,25.7-.5,60-.5l2,5.5c1.7,3.7,3.8,8.8,6.5,15.5l12,30c3.3,8.3,9,22.3,17,42l26.4,65.4c5.1-16,9-27.8,11.7-35.4l43.1-123h60c8.7-.3,13,1.1,13,4.2s-3.2,3.9-9.5,4.2c-8.7.3-13.8.7-15.5,1-4.7,1.7-7,5.3-7,11v176.5c0,13.3,1.2,20.5,3.5,21.5,2.3,1,10,1.5,23,1.5s7.5,1.3,7.5,4Z"/>
      <path class="cls-9" d="M2025,387.8c0,18.3-7.5,33.1-22.4,44.2-14.9,11.2-34.5,16.8-58.7,16.8s-10.3-.5-19.9-1.5h-3v90.5c0,9,2.2,13.9,6.6,14.8,4.4.8,10.7,1.2,18.9,1.2s5.4,1.2,5.4,3.5-1.9,2.7-5.8,3c-3.8.3-17.1.5-39.8.5s-44.8-.2-49.5-.5c-4.7-.3-7-1.4-7-3.3s1.3-3.6,4-3.3h7.5c7.7-.7,12.2-1.1,13.5-1.2,1.3-.2,2.3-.8,3-1.8.7-1,1-6.7,1-17v-167.5c0-13.3-.2-20.5-.5-21.5-1-3-6.4-4.5-16.3-4.5h-6.6c-3.7,0-5.6-1.3-5.6-4s1.8-2.7,5.5-3c3.7-.3,16.2-.5,37.6-.5,42.8,0,69,.8,78.7,2.5,35.4,6,53.1,23.5,53.1,52.5ZM1981.5,388.1c0-31.8-14.1-47.7-42.1-47.7s-13.4.7-15.4,2-3,5.2-3,11.6v86.4c40.3,0,60.5-17.4,60.5-52.3Z"/>
      <path class="cls-9" d="M2268.5,336.8c0,2.3-2.7,3.5-8,3.5h-12.5c-5.3,0-8,3.3-8,10v92.1c0,32.2-.7,52.9-2,62.2-1.3,9.3-4.8,18.6-10.5,27.9-13,20.9-36,31.4-69,31.4s-49.2-6.3-65.5-19c-15-11.6-22.5-34.1-22.5-67.4v-105.3c0-18-.6-27.8-1.8-29.4-1.2-1.7-6.1-2.5-14.8-2.5s-10.5-1.3-10.5-4,2.3-3.5,7-3.5h79c6,0,9,1.3,9,4s-6.2,4.8-18.5,4.5c-3.7,0-5.8.6-6.5,1.8-.7,1.2-1,4.9-1,11.2v119.7c0,32.6,4.2,53.7,12.5,63.4,9.3,11,23.2,16.5,41.5,16.5s43.2-10.6,52.5-31.9c4.7-10.6,7-27.7,7-51.3,0,.3,0-1.5,0-5.5v-115c0-4.3-.9-7-2.5-8-1.7-1-6.4-1.5-14-1.5s-11.5-1.5-11.5-4.5,2-3.5,6-3.5h56.5c5.3,0,8,1.3,8,4Z"/>
      <path class="cls-9" d="M2444.4,496.1c0,18.6-8,34.5-24,47.8s-35.3,19.9-58,19.9-34.5-5.2-52.5-15.5c-2-.6-3.3-1-4-1-2,0-3.2,1.6-3.5,4.7-.3,3.1-.8,5.9-1.5,8.2-.7,2.4-2.3,3.5-5,3.5s-5-1.7-5-5,.3-5.7,1-15c.7-9.3,1-17.3,1-24v-25.5c0-6.3,1.7-9.5,5-9.5s5.8,5.2,7.5,15.5c6.3,36.7,26,55,59,55s42-13.9,42-41.8-3.3-22.2-10-29.9c-6.7-7.6-19.7-16.3-39-25.9-25.3-12.6-41.5-22.6-48.5-29.9-9-9.6-13.5-21.6-13.5-35.8s6.7-33.3,20-45c13.3-11.8,30.2-17.7,50.5-17.7s26.2,3.8,40.5,11.5c1.7,1,3,1.5,4,1.5,2.3,0,3.8-2.4,4.5-7.2.7-4.8,2.7-7.2,6-7.2s5,1.7,5,5-.2,2-.5,4c-.7,5.3-1,12.2-1,20.5s.5,14,1.5,27c.3,1.3.5,2.8.5,4.5,0,4-1.3,6-4,6s-5.2-3-6.5-8.9c-3-14.5-9.1-26.2-18.2-34.9-9.2-8.8-19.9-13.1-32.2-13.1-24,0-36,12.8-36,38.3s3.2,20.6,9.5,27.9c3.3,4,7,7.1,11,9.5,4,2.3,15.7,8.1,35,17.4,21.7,10.6,37,20.8,46,30.6,9,9.8,13.5,21.3,13.5,34.6Z"/>
    </g>
  </g>
</svg>