<?xml version="1.0" encoding="UTF-8"?>
<svg id="_레이어_1" data-name=" 레이어 1" xmlns="http://www.w3.org/2000/svg" version="1.1" viewBox="0 0 1417.3 566.9">
  <defs>
    <style>
      .cls-1 {
        fill: #40dfee;
      }

      .cls-1, .cls-2, .cls-3, .cls-4, .cls-5, .cls-6, .cls-7, .cls-8, .cls-9, .cls-10, .cls-11, .cls-12 {
        stroke-width: 0px;
      }

      .cls-2 {
        fill: #331011;
      }

      .cls-3 {
        fill: #ed6869;
      }

      .cls-13, .cls-9 {
        fill: #000;
      }

      .cls-13, .cls-14 {
        stroke: #000;
        stroke-miterlimit: 10;
      }

      .cls-4 {
        fill: #01576e;
      }

      .cls-5 {
        fill: #a0430a;
      }

      .cls-6 {
        fill: #fdfcfa;
      }

      .cls-7 {
        fill: #f8c15a;
      }

      .cls-8 {
        fill: #01677b;
      }

      .cls-10 {
        fill: #047c85;
      }

      .cls-14 {
        fill: none;
      }

      .cls-15 {
        opacity: .5;
      }

      .cls-16 {
        isolation: isolate;
      }

      .cls-11 {
        fill: #903508;
      }

      .cls-12 {
        fill: #49180f;
      }
    </style>
  </defs>
  <g class="cls-15">
    <g>
      <path class="cls-2" d="M888.1,317.9c1.1,6.7-6.2,21.7-12.7,24.3-.4.2-2.5.4-3.5.6-9,1.3-23.6-3-24.6-13.3-6.9,9.5-15.8-.2-18.5,0-.5,0-5.8,3.9-8.1,4.6-19.1,6-39.1,3.9-42.2,4.6-1.3.3-2.8,2.8-3.5,2.9-1.5.3-6-2.3-6.4-2.3-6.4-.7-30.7,5.4-39.9,4.6-.9.9,2.1,8.3,2.6,9.8,1.3,3.9,2.1,5.2,2.3,5.8,4.1,10.9,14.9,35.7,20.3,45.4,4.8,8.7,11.3,16.2,15.1,22.9,5.5,9.9,24.5,50.1,26.6,52.1-13.3-.1-43.1,2.1-54.4.6-.9-.1-2.1.2-2.6,0-1.7-.6-15.6-25.9-18.8-31-14.3-22.3-29.3-44.5-48-63.4.3-.4,2.7-9,3.2-9.3,2.2-1.2,29.1,5.7,31.2-31.2-5.4,2.3-10.9,4.3-16.2,6.9-2.3,1.2-4.4,4.7-7.5,4.1-2.1-10.4,25.2-15.3,41.1-23.7,5.4-2.9,13.1-9.7,13.9-9.8,2.7-.6,11.7,4.8,22.6-.6,3-1.5,6.5-5.7,6.9-5.8,1.9-.2,20,13.4,28.9-15.1,18,25.9,50.4,3.9,33.9-21.1-.7-5.5,12.2,0,9.8,16.8-.8,5.7-7.7,8.6,3.8,17.6,20.5,16.1,36.6-3.7,38.8-3.5.4,0,5.6,3.3,6.1,6.4h-.2Z"/>
      <path class="cls-6" d="M908.9,310.9c-6.7,10.2-16.3,10.7-16.8,11.9-.2.4,0,4.9-1.2,8.1-4.8,12-17.5,18.4-17.9,19.7-.7,2.2,1.2,20-15.6,43.4-19.8,27.6-44.1,23-48.9,24.6-1.8.6-8.9,15.1-32.7,14.8,5.7,10,10.9,20.2,16.2,30.4,1.3,2.4,7.4,16.7,8.1,17.4-1.5.7-3.5-.1-4.6-1.2-2.2-2-21.1-42.1-26.6-52.1,14.2,4,20.8,1.2,31.2-8.1,2-1.8,4.2-3.5,5.8-5.8.5,0,1.9-1.2,2-1.2,2.9.2,7.4,3.4,20.8-1.7,11-4.2,21.8-14.9,28.1-24.6,14.6-22.5,11.9-37.4,12.7-39.4.3-.6,6.7-2.3,5.8-4.9,6.5-2.6,13.8-17.6,12.7-24.3,26.7-3.9,19.4-30,19.7-32.1,0-.3,2.4-2.7,2.9-6.4,1.4-10.5-3.6-15.2-3.5-17.4,0-1.6,8.2-14.3-2.3-29.5-3.8-5.5-9.7-8-9.8-8.7-.4-1.4,7.5-10.4-.6-28.9-8.8-20.3-24.6-19.3-25.5-20.8-.2-.4,1.2-5.1.6-9.3-1.7-11.9-14.8-28.7-27.8-20-.6-2.2-1.7-3.3-1.7-3.5-8.8-23.4-29.8-27.8-38.8-23.1-.7-.2-.8-1.2-1.2-1.7-9.4-15.8-31.6-22.2-46.9-11-.7.5-1.4,1.3-2.3,1.2-5.1-18.6-40.4-19.1-53.5-9.8-1.7,1.2-8.1,8-8.4,9.8-8.4-18.9-42.1-14.7-50.3,2.3-.3.5-.6,1.7-1.2,1.7-10.9-9.1-32-2.9-36.5,11,0,0-1.1.5-1.2,2.3-24.6-4-25.9,18.1-27.5,19.1-1.5.9-19.2-2.3-18.2,23.1-.6,0-.5.3-.6.6-22.8-2.2-23.6,21-24.3,22.9-.2.6-5.2,3-7.5,5.8-9.2,11.1-4.3,27.4-4.6,28.9-.2.8-6.9,6.5-9.3,14.5-3.7,12.5-2.4,50.1,5.2,61.1.5.8,1.6,3,2.3,3.5,5.3,26.6,28.8,41.6,55.6,37.6-6.1,35.4,31.3,61.4,63.9,55.6,2.3-.4,4.9-2.9,5.2-2.9,1.1-.1,6.2,4.3,20.8-1.2,1.4-.5,10.2-5.7,10.7-6.4,18.7,18.9,33.7,41.1,48,63.4,3.2,5,17.1,30.3,18.8,31,.5.2,1.7-.1,2.6,0,0,2.2-3.8,1.2-6.4,1.2,1.2-1.7-.4-.9-.6-1.2-3.8-3.9-45.4-73.8-62.2-88-26.4,12.8-62.1,15.3-86.2-4.1-23.2-18.6-18.9-40.3-20.8-41.7-2.2-1.6-31.5,1.5-47.2-23.7-3.1-4.9-12.8-28.8-13.9-34.4-1.6-7.9-3.1-35.8-2.3-43.4,1.7-16,10.8-21.9,11-23.1.2-1.2-3.9-12.4,1.7-24.9,3.5-7.9,10.6-10.3,11-11,1.7-3,.7-21.7,23.7-25.5,2.4-25.7,18.4-23.2,20-24,.3-.2,1.7-4.8,2.6-6.1,11.4-15.9,21.3-11.4,24-12.4,1.1-.4,4.6-10.7,16.2-15.1,14.5-5.4,22.5.2,23.7,0,1.7-.2,9.6-13.8,30.1-14.5,16.4-.5,22.5,7.6,23.7,7.5,1.9,0,9.1-12.9,35.9-11,20,1.4,27.3,11.9,28.9,12.2,1.7.2,13-8,33,0,11.6,4.6,16.8,13.5,17.9,13.9,2.8.9,9.6-2.8,23.1,5.2,13.7,8.1,16.1,19.2,17.4,19.7,1.2.4,11.8-1.4,21.7,10.1,9.4,10.9,6.9,21.1,7.5,22.6.6,1.4,12.8,2.7,22,18.5,11.8,20.4,5.4,33,5.8,34.7.2,1.1,9.7,7.5,12.2,18.5,2.8,12.7-1.8,20.9-1.7,22,0,.9,3.5,1.8,2.9,17.9,0,1.7-2.2,6.1-2.3,6.9,0,1.2,4.2,9.9-4.6,23.4h.3Z"/>
      <g>
        <g>
          <path class="cls-4" d="M834.9,351.5c1.9,7.6,7.4,4.6,9.8,6.9-40.7-2.8-66.5-7.9-111.1,1.2-.2-.5-1.1-1.9-2.3-5.8,41.1-6.9,64.1-4.7,103.6-2.3h0Z"/>
          <path class="cls-8" d="M866.1,359.6c-1,.6-18.4-.9-21.4-1.2-2.4-2.4-7.9.7-9.8-6.9,4,.2,29.7.3,31,1.2.7.5,0,5.7.3,6.9h0Z"/>
        </g>
        <g>
          <path class="cls-1" d="M875.4,342.2c.9,2.6-5.5,4.3-5.8,4.9-.9,1.9,1.9,16.8-12.7,39.4-6.3,9.7-17.1,20.4-28.1,24.6-13.5,5.1-17.9,1.9-20.8,1.7,0,0-1.6,1.2-2,1.2-10.3-1.1-28.7-9.1-36.7-15.6-10.5-8.5-8.4-15.1-17.1-12.4,13.8,20.9,24.9,26,48,33.9-10.4,9.3-17,12.1-31.2,8.1-3.7-6.6-10.3-14.2-15.1-22.9-5.3-9.7-16.2-34.5-20.3-45.4,44.7-9,70.4-3.9,111.1-1.2,3,.2,20.4,1.8,21.4,1.2,3.9-2.6-1.8-14.7,7.5-15.9l-1.7-.9c.9-.1,3-.4,3.5-.6h0Z"/>
          <g>
            <path class="cls-4" d="M805.9,413.9c-1.6,2.3-3.7,4-5.8,5.8-23.1-7.8-34.2-12.9-48-33.9,8.6-2.6,6.6,3.9,17.1,12.4,8.1,6.6,26.5,14.5,36.7,15.6h0Z"/>
            <path class="cls-4" d="M770.9,360.7c9-.3,18.1.2,27.2,0v5.2c-7.5-1-52.9,3.9-55.6,2.9-.7-.3-4-5.7-1.2-5.8,9.8-.2,19.7-2,29.5-2.3h0Z"/>
            <path class="cls-8" d="M805.1,380.4c12.6-1.1,35.1,4.4,48.9,5.5-1.1.9-4.3,6.5-4.9,6.7-4.3,1.2-36.3-5.8-43.4-8.7-4.9-2-8.1-2.8-.6-3.5h0Z"/>
            <g>
              <path class="cls-8" d="M800.1,376.3c-1.4-3.4,4.8-3.6,4.6-6.4,18.5-.3,36.8,2.5,55.3,4.1,1.1.6-2.3,5.9-2.6,6.1-3.1,2.4-34.7-4-40.8-4.3-5.6-.3-11,.5-16.5.6h0Z"/>
              <path class="cls-4" d="M804.8,370c0,2.8-6.1,3-4.6,6.4-14.4.2-50.5,3.9-52.9,2.9-.4-.2-1.7-4.2-2.6-4.9,20-1,40.2-4.1,60.2-4.3h-.1Z"/>
            </g>
            <path class="cls-8" d="M809.1,360.7l55.6,2.9c1.9.8-.4,6.5-2.3,6.9-17.9-3.1-36.6-2.8-54.1-6.7l.9-3.2h-.1Z"/>
            <g>
              <path class="cls-4" d="M814.6,391.4c1.4,3.1-2.5,3.7,0,6.9-11.9-2.9-22.7-9.3-33.6-14.8,3.3-.2,11.5-1.9,13.6-1.4,1.1.2,5,5.3,20,9.3Z"/>
              <path class="cls-8" d="M814.6,398.3c-2.5-3.3,1.4-3.9,0-6.9,10.2,2.7,20.9,3.3,31.2,4.9-1.3,1-4.9,5.3-5.5,5.5-2.1.6-22-2.6-25.7-3.5Z"/>
            </g>
            <path class="cls-8" d="M759.3,404.1c10.8,12.7,31.6,17,31.5,18.8-1.7.9-3.8,3.7-5.5,3.8-2.4,0-28.8-10.8-26-22.6h0Z"/>
            <g>
              <path class="cls-4" d="M804.8,401.8c-.9,3.7,1.1,5.5-2.9,5.8-15.5-4.2-25.6-11.9-36.5-23.4,11.2-3.8,8.2-.5,11,2.3,7.9,8.1,17.4,12.7,28.4,15.3h0Z"/>
              <path class="cls-8" d="M801.9,407.6c4-.3,2-2.1,2.9-5.8,9,2.1,26.5,2.4,26.6,3.8-8,8.1-19.7,4.7-29.5,2h0Z"/>
            </g>
            <path class="cls-10" d="M803.9,360.1l1.4.9c-.7,7.3-4-.2-1.4-.9Z"/>
          </g>
        </g>
        <g>
          <path class="cls-1" d="M871.9,342.8l1.7.9c-9.3,1.2-3.7,13.4-7.5,15.9-.2-1.3.4-6.4-.3-6.9-1.3-.9-27-.9-31-1.2-39.5-2.4-62.5-4.6-103.6,2.3-.5-1.5-3.5-8.9-2.6-9.8,9.3.7,33.6-5.3,39.9-4.6.3,0,4.8,2.6,6.4,2.3.6-.1,2.2-2.6,3.5-2.9,3.2-.8,23.1,1.4,42.2-4.6,2.3-.7,7.6-4.6,8.1-4.6,2.7-.2,11.6,9.5,18.5,0,1,10.3,15.6,14.6,24.6,13.3h0Z"/>
          <path class="cls-4" d="M825.9,337.6c1-.1,18.8,2,19.7,2.3.6.2,2.9,4.9,2.6,5.5-5.9.1-18.7-2.6-22.9-2-1.7.2-6.4,4.4-13.9,2.3-.9-.8,13.6-8,14.5-8.1h0Z"/>
        </g>
      </g>
      <g>
        <path class="cls-2" d="M750.9,106.7c.9,0,1.6-.6,2.3-1.2,1.8,0,3.6,5,4.1,6.7,5.8,22.8-10.9,33.7-12.2,37-1.8,4.8-1,34.6-3.2,35.6l-4.9-.9c1.6-9-.2-30.8,2.9-37.6,2.2-4.8,18.2-13.3,11-39.6h0Z"/>
        <path class="cls-2" d="M841.8,144.9c-.9.6-5.7,6.6-6.4,7.8-11.5,21.3,12,43.6-3.5,41.7-4-22.7-13.7-34.3,8.1-52.9,0,.2,1.2,1.3,1.7,3.5h.1Z"/>
        <path class="cls-2" d="M691.9,246.1c0-2.3-1-2.5-1.7-4.1,1.2.2,1.8-.5,2.9-.6,7.1-.7,11.5.4,22.9-4.1,5.5-2.2,34.1-20.2,36.7-24,5.6-8,1.9-22.1,8.1-30.7,2.1-2.9,5.9-4.6,8.1-7.5,15.1-20.4-4.8-53.9,13.9-52.7-7.1,16.6,2.2,24.4-4.1,45.1-1.4,4.8-5.8,4.5-.6,11.6-17.7,2.6-14.2,11.2-16.2,24.3-1.5,10.1-6.3,8.8,2.3,12.7.3,2.8-6.9,2.1-14.8,6.1-10.6,5.3-29.2,27.7-57.6,23.7h0v.2Z"/>
        <path class="cls-2" d="M693.1,227.6c-1.9-3.2,3-6.4,5.8-8.7,2.1-1.7,6.5-3.5,8.4-5.2,15.4-13.5-.5-18.8-6.7-26-.9-1.1-1.4-2.5-1.7-2.9.2-1.2,1.5-3.1,2.3-4.1.3-.3.8-.7,1.2-1.2,3.6-3.9,8.4-6.9,11.9-11,5.8,4.1-3,8.7-9.6,16.5,0,3.1,40.9,19-11.6,42.5h0Z"/>
        <g>
          <path class="cls-3" d="M750.9,106.7c7.2,26.4-8.8,34.9-11,39.6-3.1,6.8-1.3,28.6-2.9,37.6l4.9.9c2.2-1,1.4-30.8,3.2-35.6,1.3-3.4,18-14.2,12.2-37-.4-1.6-2.2-6.8-4.1-6.7,15.2-11.2,37.5-4.8,46.9,11-10.5,2.5-13.1,18.1-5.2,17.6-1.9-7.3,4.3-14.9,6.4-15.9,9-4.6,30-.3,38.8,23.1-21.8,18.7-12.1,30.3-8.1,52.9,15.5,1.9-8-20.3,3.5-41.7.6-1.2,5.5-7.2,6.4-7.8,13-8.7,26.1,8.1,27.8,20,.6,4.2-.8,8.9-.6,9.3.8,1.5,16.6.5,25.5,20.8,8.1,18.5.2,27.5.6,28.9.2.6,6,3.2,9.8,8.7,10.5,15.3,2.4,28,2.3,29.5,0,2.2,4.9,6.8,3.5,17.4-.5,3.7-2.9,6-2.9,6.4-.3,2.2,7,28.2-19.7,32.1-.5-3.1-5.6-6.3-6.1-6.4-2.1-.2-18.2,19.6-38.8,3.5-11.5-9-4.6-11.9-3.8-17.6,2.4-16.9-10.5-22.3-9.8-16.8,16.5,25-15.9,47-33.9,21.1-8.9,28.4-27,14.8-28.9,15.1-.4,0-3.9,4.3-6.9,5.8-10.9,5.3-19.8,0-22.6.6-.8.2-8.5,6.9-13.9,9.8-15.9,8.5-43.2,13.3-41.1,23.7,3.1.7,5.2-2.9,7.5-4.1,5.2-2.7,10.8-4.6,16.2-6.9-2.2,36.9-29,30-31.2,31.2-.5.3-2.9,8.9-3.2,9.3-.5.6-9.3,5.8-10.7,6.4-14.6,5.4-19.8,1-20.8,1.2-.3,0-2.9,2.5-5.2,2.9-32.6,5.8-70.1-20.1-63.9-55.6.5-2.9,1.6-5.4,2.9-8.1.6-1.3,1.5-2.9,2.3-4.1,9.8-13.8,27.3-18.3,42.8-21.4.3,0,4,.6,6.9-.9-8.9-5.8-8.3-21.5.9-24.6,2.7-.9,5.2-.3,7.8-.6.2,0,.4,1,3.2.6,13.6-2,28.7-5.9,39.6-14.5,8.2,1.9,29.6,4,26.3-2.3-7.5.5-14.9-.5-22.3-1.2,4.1-4.1,10.5-12,10.4-17.9,28.4,4,47-18.4,57.6-23.7,7.8-3.9,15.1-3.3,14.8-6.1-8.6-4-3.8-2.6-2.3-12.7,2-13.1-1.5-21.7,16.2-24.3-5.2-7-.8-6.8.6-11.6,6.2-20.8-3.1-28.5,4.1-45.1-18.6-1.2,1.3,32.2-13.9,52.7-2.2,2.9-6,4.6-8.1,7.5-6.2,8.6-2.5,22.7-8.1,30.7-2.7,3.9-31.2,21.9-36.7,24-11.4,4.4-15.7,3.4-22.9,4.1,1-2.3,0-2.6,0-2.9.5-2.7,3-6.2,2.3-9-.2-.8-1.9-1.3-2.3-2,52.5-23.6,11.6-39.4,11.6-42.5,6.6-7.8,15.4-12.3,9.6-16.5-3.5,4.1-8.2,7.1-11.9,11-3.7-19.4-7.7-39-11-58.4,16.7,2.6,14.5-6.3-.6-4.6-.5-3.1-2.3-6.6-1.7-9.8.3-1.9,6.7-8.6,8.4-9.8,13.1-9.3,48.5-8.8,53.5,9.8h-.2Z"/>
          <g>
            <path class="cls-12" d="M800.1,116.5c.3.6.4,1.5,1.2,1.7-2,1-8.3,8.6-6.4,15.9-7.9.5-5.3-15.2,5.2-17.6h0Z"/>
            <path class="cls-2" d="M852.5,164c10.5,2.8,6.6,22.8,7.2,24,.6,1.1,14.3.1,19.1,15.1-3.6,4.5-9.4-13-20.3-8.1-1.1,4.7-9.9,13.5-10.4,15.1-.4,1.2-.2,7.2-.6,8.7-2.8,10.8-15.2,11.2-15.6,12.2-.6,1.3,5.6,12.3-6.9,27.8,11.6,2.8,5.9.1,9.8-7.5,7.2-13.9,22.9-9.8,24-10.7.9-.7-3.7-12.8,2-21.1,6.8-10,21.1-4.2,16.5.3-18.4-4.7-16.6,20.1-6.9,29.5,9.9-3.8,6.5-7.6,8.1-8.1l17.1,12.4c-4.5,10.9-11-11.3-22.6.6,1.7,6.3.7,15,1.2,15.6.6.9,12.6-1.7,16.8,11.6,1.6,5.1,4,31.1-5.2,25.5,2.5-10.5,3.6-35-12.7-31.2,0,10.3-5.5,18.1-5.2,19.1s4.9.7,5.2,4.6c-1.5,4.3-15.9,2.3-16.2.6,12.2-7.5,18.5-49.4,3.2-54.1-14.2-4.4-24.4,10.4-22.9,15.9.3,1.1,7,2.6,4.9,6.1-27.9-11.3-37.2,5.6-39.6,4.3-.3-.2-2.8-5.6-4.1-6.4,48.2-10.7,26.4-55,10.1-43.7-9,6.2-.3,15-.3,15.9s-6,8.7-6.9,9.8c-23.4,30.2-67.2,21.5-85.4,25.2-12.2,2.5-25.1,14.1-39.4,18.5-11.5,3.5-24.1,4.4-35.9,6.9-5.7-7,11.7-6.1,23.7-9.3,25.3-6.5,35.9-18,46.9-20.8,16.5-4.2,58.4,3.3,81-18.5,11.6-11.2,7.1-15.5,7.2-16.5,1.5-17.1,10.3-16,11-17.4.5-1-.9-14.6,9.6-17.6,9-2.6-3.2,4.5-4.3,17.1,14.1,5.3,10.1,15.1,21.1,8.4,7.5-4.6,5.4-12.2,6.7-15.9,2-6,17.8-9.9,9-43.7h0v-.2Z"/>
            <path class="cls-2" d="M790,262.9c10.4-.3-12.4,3.8-4.9,23.4,3.1,8.2,10,7.4,3.8,13-9-5.6-13.3,6.2-16.2,4.6-6-17-22.4-17.6-33-3.5-5.4-5.8.2-9.6-15.6-6.4-7.2,1.5-15.5,7.2-20.8,8.7-9.5,2.6-24.3.5-38.2,11-6.9,5.2-12.3,16.5-17.1,11.9,19.3-28.6,36.3-23.4,53.5-28.1,6.3-1.7,12.9-6.5,19.1-8.1,1.8-.5,17.1-2.7,17.9-2.3s.8,4.1,2.3,4.1,16-16.7,34.7,5.2c13-6-2.2-9.8,3.8-25.2,1.2-3.2,7.2-8.3,10.7-8.4h0Z"/>
            <path class="cls-2" d="M652.3,309.2c8.1-.2-9.4,14.1-16.8,15.6-10.1,2.1-23.8-1.9-34.1,8.7-10.8,11.1-7,29.3,4.1,26,.7-.2,4.9-5.4,6.4-6.4,9.9-6.6,18.1-2.7,22-4.6,1.5-.7,7.9-13.5,13.6-7.8-10.6,19.8-9.1,10.8-24,13-12.6,1.9-19,15.7-12.4,26.3-12,6.1-6.8-14.1-7.5-15.1-.7-.9-10.7,1.6-13.3-8.7-2.7-10.9,1.8-23,10.7-29.8,16.2-12.3,28.5,2,51.5-17.4l-.2.2Z"/>
            <path class="cls-2" d="M807.9,134.5l11.3,7.8c-6.5,2.6-8.1,1.8-11,8.7-1.5,3.6-5.6,27.3-6.4,33,0,1.1,1.7,1.1,1.7,1.7,0,1.8-7,15.7-8.7,17.9-2.2,3-8.9,8.1-11.6,11.6-7.3,9.2-20.5,32.3-24.9,23.1,8.1-7.3,13.2-17,19.7-25.5,3.1-4,9.1-8.2,12.2-12.7,10.3-15.3,7-42.5,17.6-65.7h.1Z"/>
            <path class="cls-2" d="M722.3,311.5l2.6,4.3c-16.4,14.7-23.8,8.9-35.6,11.3-18.9,3.9-30.1,22.8-16.5,39.1,0,1.3-5.1-.3-7.2.3-3,.9-6.6,10.2-13.6,6.1-.7-1,10.8-9.6,11-10.4.5-2.2-7-18.6,7.8-31.5,16.9-14.9,35.1-2.7,51.5-19.1h0Z"/>
            <path class="cls-2" d="M717.1,106.7h2.9c1.9,5.6,13.4,39.1,11.9,41.9-1.2.8-2.3,1-3.8.9-2-.7-10.2-36.3-12.4-40.8l1.4-2h0Z"/>
            <path class="cls-2" d="M615.3,370.6c6.7,4.3,18.7.5,20.3,1.2,1.5.6,3,10.8,3.8,13,1.9,5.3,6.7,4.3,1.4,8.4-10.2-5.7-7.1-14.7-9.3-15.6-2.6-1.1-18.8,2.8-16.2-6.9h0Z"/>
          </g>
        </g>
        <path class="cls-12" d="M634.6,281.4c-2.6.3-5.2-.3-7.8.6-9.2,3-9.7,18.8-.9,24.6-3,1.5-6.6.8-6.9.9-10-12.5-1-35.7,15.6-26h0Z"/>
        <path class="cls-2" d="M691.3,121.2c-.2-1.5-.3-3.1-.6-4.6,15.1-1.7,17.3,7.3.6,4.6Z"/>
        <path class="cls-3" d="M698.9,218.9c2.1-10.3,1.8-20.7,1.7-31.2,6.1,7.2,22.1,12.6,6.7,26-1.9,1.7-6.3,3.5-8.4,5.2Z"/>
      </g>
    </g>
    <g>
      <path class="cls-7" d="M573.9,332.9c-1.3,2.6-2.4,5.1-2.9,8.1-26.8,4-50.2-11-55.6-37.6,6.6,4,18.4-3.1,19.4-2.9.6.1,3.6,5,8.7,9.8,1.4,1.3,8,4.7,8.4,5.5.6,1.2.2,15.4,13,22.9,7.4,1.5-9.9-8.9-7.5-20.8,3.3,1.5,13.2,1.4,13.9,1.7,1.7.7,0,9.2,2.6,13.3h0Z"/>
      <path class="cls-11" d="M576.2,328.9c-.8,1.2-1.7,2.8-2.3,4.1-2.5-4.1-.9-12.6-2.6-13.3-.6-.3-10.6-.2-13.9-1.7-2.4,11.9,14.9,22.4,7.5,20.8-12.8-7.4-12.4-21.6-13-22.9-.4-.8-7-4.2-8.4-5.5-5.1-4.8-8-9.7-8.7-9.8-1-.2-12.8,6.9-19.4,2.9-.7-.4-1.8-2.7-2.3-3.5,2.8,2.9,19.1-1,19.7-3.8.4-2.1-10.7-16.8-.6-42.2-17.5,3.6-.4-4.9,12.4-11.3,1.5.7-9.9,10.2-11.9,24-3.8,26.5,11.8,49.6,39.6,49.5,2.7-8.3,16.6-32.2,21.7-26.3-9.6,10.7-20.8,23.6-17.9,39.1h.1Z"/>
      <path class="cls-12" d="M681.5,264.1c7.4.6,14.8,1.7,22.3,1.2,3.3,6.4-18.1,4.2-26.3,2.3-3.3-.7-11.4-2.1-10.1-5.2,4.7.9,9.4,1.3,14.2,1.7h-.1Z"/>
      <g>
        <path class="cls-7" d="M689,106.7c-.6,3.3,1.3,6.7,1.7,9.8.2,1.5.3,3.1.6,4.6,3.3,19.5,7.3,39,11,58.4-.4.4-.9.8-1.2,1.2-14.2-11.8-4.7-30.4-20.5-38.8-3.4-1.8-15.7,1.3-3.2-25.7-9.6-1.8-12.3,24-6.1,27.5.9.5,12.7.4,15.9,12.4,2.3,8.7-3.4,10.8,11.6,28.6.4.4.8,1.8,1.7,2.9,0,10.5.4,20.9-1.7,31.2-2.8,2.3-7.7,5.5-5.8,8.7.4.7,2.1,1.2,2.3,2,.7,2.7-1.8,6.3-2.3,9-6.2-12.7-38.9-24-34.4-13.3,10.9-.8,26.5,7,31.5,16.8.8,1.5,1.7,1.8,1.7,4.1,0,6-6.3,13.8-10.4,17.9-4.8-.4-9.5-.9-14.2-1.7-1.3,3.1,6.9,4.5,10.1,5.2-10.9,8.5-26,12.5-39.6,14.5-2.8.4-3-.6-3.2-.6-16.6-9.6-25.6,13.6-15.6,26-15.5,3.1-33.1,7.6-42.8,21.4-2.9-15.4,8.4-28.4,17.9-39.1-5.1-5.9-19,18-21.7,26.3-27.8,0-43.4-23-39.6-49.5,2-13.9,13.4-23.3,11.9-24-12.9,6.4-29.9,14.9-12.4,11.3-10.1,25.4,1,40.1.6,42.2-.5,2.7-16.9,6.7-19.7,3.8-7.6-11-8.9-48.5-5.2-61.1,2.3-7.9,9.1-13.6,9.3-14.5.3-1.5-4.6-17.8,4.6-28.9,2.3-2.8,7.3-5.1,7.5-5.8.7-1.8,1.5-25.1,24.3-22.9-.2.9-.4,1.9-1.2,2.6,10,3.5,12.8,1.7,1.7-3.2-1-25.5,16.8-22.3,18.2-23.1,1.6-1,2.9-23.1,27.5-19.1,0,2.7,12.8,7.4,13.3,9,.4,1.2-3.3,10.5-2.3,25.5.7,10.7,6.9,38,19.7,37.6.9-1.2-6.6-8.2-9.8-16.2-10.3-25.2-2.2-46.2-2.9-48.6-.2-.9-14.6-8.5-16.8-9.6,4.4-13.9,25.5-20.1,36.5-11,.5.4,7.5,9.9,7.5,10.7,0,2.2-11.7,22.7-9.8,43.4,7.4,4.7,3-5.5,6.4-21.4,4.1-19.9,16.2-20.5-2.9-34.4,8.2-17,42-21.2,50.3-2.3h0v.2Z"/>
        <g>
          <path class="cls-11" d="M599.9,124c0-1.8,1.1-2.2,1.2-2.3,2.1,1,16.5,8.6,16.8,9.6.6,2.4-7.4,23.4,2.9,48.6,3.3,8,10.8,15,9.8,16.2-12.8.4-19-26.9-19.7-37.6-1-15,2.7-24.2,2.3-25.5-.5-1.5-13.4-6.3-13.3-9h0Z"/>
          <path class="cls-5" d="M637.5,110.7c.6,0,.9-1.2,1.2-1.7,19.1,13.9,7,14.6,2.9,34.4-3.3,15.9,1,26.1-6.4,21.4-1.8-20.7,9.9-41.1,9.8-43.4,0-.8-7-10.3-7.5-10.7h0Z"/>
          <path class="cls-11" d="M553.6,166.9c0-.3,0-.6.6-.6,11,4.9,8.3,6.7-1.7,3.2.8-.7.9-1.7,1.2-2.6h0Z"/>
          <path class="cls-11" d="M693.1,238.6c0,.3,1,.6,0,2.9-1.1,0-1.7.8-2.9.6-5-9.8-20.6-17.6-31.5-16.8-4.4-10.7,28.2.6,34.4,13.3h0Z"/>
          <path class="cls-11" d="M591.5,147.8l.9.9c-10.1,35.3,4.7,48.6,27.5,71.5,2.7-.5.3-20.3,6.7-16.5l.3,8.4c16-16.5,40.6-23,61.9-13.9,4.2,8.5-6.1-.6-22,0-13.7.5-34,10.2-41.9,21.7-4.7,6.8,2.3,6.4.9,12.4-22,1-58.9,8.8-65.7,33.3-5.1,18.4,2.8,33-3.5,27.2-10.5-34.8,13.5-47.7,14.5-50.3,1.3-3.5-3.6-7.3,4.3-7.2.9.6-.5,4.7,1.2,5.2,2.2.7,26.6-12.6,43.7-13-10-13.6-25.7-22.4-31.8-38.8-3.8-10.2-7.5-34.9,3.2-40.8h-.2Z"/>
          <path class="cls-5" d="M701.2,180.8c-.8.9-2.1,2.9-2.3,4.1-15-17.8-9.2-19.9-11.6-28.6-3.2-12.1-15-11.9-15.9-12.4-6.3-3.5-3.5-29.3,6.1-27.5-12.5,27-.2,23.9,3.2,25.7,15.8,8.4,6.4,26.9,20.5,38.8h0Z"/>
          <path class="cls-11" d="M558,189.4c5.3-1,2.2,2.8,3.8,7.2,5.1,14.1,20,7.2,18.5,11.6-17.6,1.7-33.1,9.7-48.3,18.2-5.6-8,30.1-17.6,31-19.4.4-.9-8.5-7.4-4.9-17.6h0Z"/>
          <path class="cls-5" d="M647.1,249.6c5.9-2.1,3.5,6.6,3.5,16.8-4.4-5-35.2-9-39.4-8.7-5.4.4-5.6,5.8-5.5-2,1.6-2.6,13.5-1,20-.3,21.4,2.3,21.7,8.5,21.4-5.8h0Z"/>
          <path class="cls-11" d="M659.2,150.1c3.5-1,4.2,11.3,8.4,17.6-5.9,6.4-11.6-16.7-8.4-17.6Z"/>
        </g>
      </g>
    </g>
  </g>
  <g class="cls-16">
    <g class="cls-16">
      <g class="cls-16">
        <path class="cls-9" d="M354.2,312.2c0,1.2-1.3,1.8-3.8,1.8h-43.5c-2.6,0-4-.5-4-1.6s3.1-1.8,9.3-2.2c3.3-.3,5.2-.8,5.7-1.7.5-.9.8-4,.8-9.3v-58.2h-60.2v56.6c0,6,.5,9.5,1.4,10.6.9,1.1,4.1,1.8,9.4,2.2,3.5.3,5.2.9,5.2,1.8s-1.3,1.8-4,1.8h-43.4c-2.7,0-4-.5-4-1.6s1.3-1.7,4-2c1.7-.1,3.5-.3,5.4-.4,2.9-.3,4.8-.9,5.6-2,.4-.7.6-4.4.6-11.2v-105.4c0-6-.3-9.5-.9-10.6-.6-1.1-2.7-1.7-6.3-1.8-4.1-.3-6.6-.5-7.3-.6-.7-.1-1.1-.7-1.1-1.7s.9-1.7,2.6-1.7,1.7,0,3.4.2c3.3.3,11.2.4,23.6.4s11.5,0,14.2-.3c.9-.2,2.1-.3,3.6-.3,2.4,0,3.6.7,3.6,2s-2.2,1.8-6.5,1.8-6.9.5-7.8,1.5c-.9,1-1.3,4.2-1.3,9.5v46.2h60.2v-43.1c0-7.1-.5-11.3-1.6-12.5-1.1-1.3-4.8-1.8-11.2-1.7-2,0-3-.6-3-1.8s1.1-1.8,3.4-1.8h43.6c2.8,0,4.2.6,4.2,1.8s-2.9,1.9-8.8,2c-1.7,0-3,.1-3.8.4-1.3.4-2.2,1.1-2.5,2.2-.3,1.1-.5,4.2-.5,9.4v106.4c0,6.4.3,10.1,1,11.2,1.3,1.5,5.1,2.2,11.5,2.2,2.1-.3,3.2.3,3.2,1.6Z"/>
        <path class="cls-9" d="M403.4,312.8c0,.8-.6,1.2-1.8,1.2h-33.6c-2.3,0-3.4-.3-3.4-1s1.5-1.4,4.4-1.6c4-.3,6.1-.7,6.3-1.4.2-.7.3-3.6.3-8.7v-64.9c0-5.2-.1-8.3-.4-9.2-.3-.9-1.3-1.4-3-1.5h-6c-1.2,0-1.8-.5-1.8-1.4s.9-1.4,2.6-1.4c-.1,0,.3,0,1.2,0h31.8c2.1,0,3.2.5,3.2,1.6s-2.3,1.3-6.8,1.4c-1.9,0-3,.3-3.4.9-.4.6-.6,2.4-.6,5.5v75.4c0,1.3.5,2.2,1.5,2.6,1,.4,3.4.7,7.1,1,1.6.1,2.4.6,2.4,1.4Z"/>
        <path class="cls-9" d="M482,245c0,7.3-3,13.2-9,17.7-6,4.5-13.8,6.7-23.5,6.7s-4.1-.2-8-.6h-1.2v36.2c0,3.6.9,5.6,2.7,5.9,1.8.3,4.3.5,7.6.5s2.2.5,2.2,1.4-.8,1.1-2.3,1.2c-1.5.1-6.8.2-15.9.2s-17.9,0-19.8-.2c-1.9-.1-2.8-.6-2.8-1.3s.5-1.4,1.6-1.3h3c3.1-.3,4.9-.4,5.4-.5.5,0,.9-.3,1.2-.7.3-.4.4-2.7.4-6.8v-67c0-5.3,0-8.2-.2-8.6-.4-1.2-2.6-1.8-6.5-1.8h-2.6c-1.5,0-2.2-.5-2.2-1.6s.7-1.1,2.2-1.2c1.5-.1,6.5-.2,15-.2,17.1,0,27.6.3,31.5,1,14.2,2.4,21.3,9.4,21.3,21ZM464.6,245.1c0-12.7-5.6-19.1-16.9-19.1s-5.4.3-6.1.8c-.8.5-1.2,2.1-1.2,4.6v34.6c16.1,0,24.2-7,24.2-20.9Z"/>
        <path class="cls-9" d="M559.6,245c0,7.3-3,13.2-9,17.7-6,4.5-13.8,6.7-23.5,6.7s-4.1-.2-8-.6h-1.2v36.2c0,3.6.9,5.6,2.7,5.9,1.8.3,4.3.5,7.6.5s2.2.5,2.2,1.4-.8,1.1-2.3,1.2c-1.5.1-6.8.2-15.9.2s-17.9,0-19.8-.2c-1.9-.1-2.8-.6-2.8-1.3s.5-1.4,1.6-1.3h3c3.1-.3,4.9-.4,5.4-.5.5,0,.9-.3,1.2-.7.3-.4.4-2.7.4-6.8v-67c0-5.3,0-8.2-.2-8.6-.4-1.2-2.6-1.8-6.5-1.8h-2.6c-1.5,0-2.2-.5-2.2-1.6s.7-1.1,2.2-1.2c1.5-.1,6.5-.2,15-.2,17.1,0,27.6.3,31.5,1,14.2,2.4,21.3,9.4,21.3,21ZM542.2,245.1c0-12.7-5.6-19.1-16.9-19.1s-5.4.3-6.1.8c-.8.5-1.2,2.1-1.2,4.6v34.6c16.1,0,24.2-7,24.2-20.9Z"/>
        <path class="cls-9" d="M658.4,269.1c0,12.9-4.2,23.8-12.6,32.8-8.4,9-18.7,13.5-30.8,13.5s-23.8-4.6-32.7-13.7c-8.9-9.1-13.3-20.3-13.3-33.4s4.2-24.9,12.7-33.6c8.5-8.7,19.3-13.1,32.5-13.1s23,4.6,31.5,13.7c8.5,9.1,12.7,20.4,12.7,33.8ZM639.6,269.7c0-15.4-3.1-27.6-9.4-36.5-4-5.7-9.5-8.6-16.6-8.6s-16.8,5.3-21.2,16c-3.1,7.5-4.6,16.9-4.6,28.3s2.4,24.4,7.2,32.1c4.8,7.7,11.5,11.6,20,11.6,16.4,0,24.6-14.3,24.6-42.9Z"/>
        <path class="cls-9" d="M749.6,284.2c0,.4,0,1.5-.2,3.4-.5,7.2-.8,12.3-.8,15.2s.2,4.9.6,8.8v1.4c0,1.3-.5,2-1.6,2s-2.1-1.1-3.2-3.4l-1.8-3.8c-.1-.3-.3-.7-.6-1.2-6,5.9-14.3,8.8-24.8,8.8s-24.7-4.5-33.6-13.5c-8.9-9-13.4-20.3-13.4-33.8s4.1-24.7,12.4-33.4c8.3-8.7,18.8-13.1,31.6-13.1s18.4,2.6,25.2,7.8c.5.5,1.1.8,1.6.8s1.3-.9,1.8-2.6c.9-2.9,2.1-4.4,3.4-4.4s1.4.5,1.4,1.6-.1.7-.4,1.8c-.8,4.5-1.3,11.3-1.4,20.2-.1,5.6-.9,8.4-2.2,8.4s-1.8-1-2.2-3c-1.3-7.2-2.9-12.5-4.8-15.9-4.3-7.5-11.3-11.3-21-11.3s-14.6,3.9-19.4,11.7-7.2,18.4-7.2,31.8,2.7,24,8,31.8c5.3,7.8,12.5,11.7,21.6,11.7s12.7-2.3,17.3-7c4.6-4.7,7.6-11.2,9.1-19.5.7-3.4,1.5-5.1,2.6-5.1s2,1.3,2,3.8Z"/>
        <path class="cls-9" d="M849.4,313c0,.8-1.3,1.2-4,1.2h-39.4c-2.4,0-3.6-.5-3.6-1.6s2.4-1.7,7.2-1.8c5.7-.1,8.6-.8,8.6-2s-.4-1.5-1.2-3.8c-.3-1.1-1.8-5.5-4.6-13.3l-2.4-6.8h-28.6c-5.5,13.7-8.2,21.7-8.2,23.8s.8,1.9,2.4,2l2.6.2h3l1.8.6c1.6,0,2.4.4,2.4,1.2s-1.4,1.4-4.2,1.4-2.8-.1-7.1-.3c-4.3-.2-8.2-.3-11.5-.3h-1.8l-1.8.3-2.2.3h-.4c-2.1,0-3.2-.4-3.2-1.2s.9-1.5,2.6-1.6c2.4-.1,4-.3,4.8-.4,2.3-.4,3.7-1,4.4-1.8.8-.4,4.1-8,9.8-22.9,2.3-6,4.5-11.6,6.6-16.8.8-1.9,1.3-3.3,1.6-4.2.3-.9.8-2.3,1.6-4.2,2.3-5.5,5.5-13.8,9.6-24.9l3-8.4,1.4-3.6c.8-2,1.6-3,2.4-3s1.3,1.9,2.6,5.6c4,9.7,14.3,35.5,31,77.2,1.6,4.1,3.1,6.3,4.6,6.6.4.1,2.5.3,6.4.6,2.5.1,3.8.7,3.8,1.8ZM808.8,281.6l-12.9-34.2c-3.2,8-7.7,19.4-13.4,34.2h26.2Z"/>
        <path class="cls-9" d="M951.6,312.6c0,1.1-1.2,1.6-3.6,1.6.5,0-.1,0-2,0h-33.6c-2.4,0-3.6-.5-3.6-1.4s.3-.9.9-1c.6-.1,2.8-.2,6.7-.3,2.8-.1,4.4-.5,4.9-1.2.5-.7.7-3.1.7-7.4v-64.6c-2.4,6.7-6.3,17.7-11.6,33-3.1,9.2-6.9,21.1-11.6,35.6-1.3,4.1-2.4,6.2-3.2,6.2s-2.2-1.8-3.4-5.4c-3.1-9.2-12.1-32-27-68.4v68.6c0,1.7.7,2.8,2,3.2,1.9.1,4.3.2,7.2.2s2.6.5,2.6,1.4-1.3,1.6-4,1.6h-22.8c-2,0-3-.5-3-1.6s2.1-1.5,6.4-1.6c2.9-.1,4.6-.5,5.1-1.1.5-.6.7-2.8.7-6.5v-67.8c0-4.5-.4-7.2-1.3-8-.9-.8-3.8-1.3-8.7-1.4-1.7,0-2.6-.5-2.6-1.6s1.1-1.3,3.4-1.4c2.3-.1,10.3-.2,24-.2l.8,2.2c.7,1.5,1.5,3.5,2.6,6.2l4.8,12c1.3,3.3,3.6,8.9,6.8,16.8l10.5,26.2c2-6.4,3.6-11.1,4.7-14.2l17.2-49.2h24c3.5-.1,5.2.4,5.2,1.7s-1.3,1.6-3.8,1.7c-3.5.1-5.5.3-6.2.4-1.9.7-2.8,2.1-2.8,4.4v70.6c0,5.3.5,8.2,1.4,8.6.9.4,4,.6,9.2.6s3,.5,3,1.6Z"/>
        <path class="cls-9" d="M1027.6,245c0,7.3-3,13.2-9,17.7-6,4.5-13.8,6.7-23.5,6.7s-4.1-.2-8-.6h-1.2v36.2c0,3.6.9,5.6,2.7,5.9,1.8.3,4.3.5,7.6.5s2.2.5,2.2,1.4-.8,1.1-2.3,1.2c-1.5.1-6.8.2-15.9.2s-17.9,0-19.8-.2c-1.9-.1-2.8-.6-2.8-1.3s.5-1.4,1.6-1.3h3c3.1-.3,4.9-.4,5.4-.5.5,0,.9-.3,1.2-.7.3-.4.4-2.7.4-6.8v-67c0-5.3,0-8.2-.2-8.6-.4-1.2-2.6-1.8-6.5-1.8h-2.6c-1.5,0-2.2-.5-2.2-1.6s.7-1.1,2.2-1.2c1.5-.1,6.5-.2,15-.2,17.1,0,27.6.3,31.5,1,14.2,2.4,21.3,9.4,21.3,21ZM1010.2,245.1c0-12.7-5.6-19.1-16.9-19.1s-5.4.3-6.1.8c-.8.5-1.2,2.1-1.2,4.6v34.6c16.1,0,24.2-7,24.2-20.9Z"/>
        <path class="cls-9" d="M1125,224.6c0,.9-1.1,1.4-3.2,1.4h-5c-2.1,0-3.2,1.3-3.2,4v36.8c0,12.9-.3,21.2-.8,24.9-.5,3.7-1.9,7.4-4.2,11.2-5.2,8.4-14.4,12.5-27.6,12.5s-19.7-2.5-26.2-7.6c-6-4.7-9-13.6-9-26.9v-42.1c0-7.2-.2-11.1-.7-11.8-.5-.7-2.4-1-5.9-1s-4.2-.5-4.2-1.6.9-1.4,2.8-1.4h31.6c2.4,0,3.6.5,3.6,1.6s-2.5,1.9-7.4,1.8c-1.5,0-2.3.2-2.6.7-.3.5-.4,2-.4,4.5v47.9c0,13,1.7,21.5,5,25.3,3.7,4.4,9.3,6.6,16.6,6.6s17.3-4.2,21-12.7c1.9-4.2,2.8-11.1,2.8-20.5,0,.1,0-.6,0-2.2v-46c0-1.7-.3-2.8-1-3.2-.7-.4-2.5-.6-5.6-.6s-4.6-.6-4.6-1.8.8-1.4,2.4-1.4h22.6c2.1,0,3.2.5,3.2,1.6Z"/>
        <path class="cls-9" d="M1195.4,288.3c0,7.4-3.2,13.8-9.6,19.1-6.4,5.3-14.1,8-23.2,8s-13.8-2.1-21-6.2c-.8-.3-1.3-.4-1.6-.4-.8,0-1.3.6-1.4,1.9-.1,1.3-.3,2.4-.6,3.3-.3.9-.9,1.4-2,1.4s-2-.7-2-2,.1-2.3.4-6c.3-3.7.4-6.9.4-9.6v-10.2c0-2.5.7-3.8,2-3.8s2.3,2.1,3,6.2c2.5,14.7,10.4,22,23.6,22s16.8-5.6,16.8-16.7-1.3-8.9-4-11.9c-2.7-3.1-7.9-6.5-15.6-10.4-10.1-5-16.6-9-19.4-11.9-3.6-3.9-5.4-8.6-5.4-14.3s2.7-13.3,8-18c5.3-4.7,12.1-7.1,20.2-7.1s10.5,1.5,16.2,4.6c.7.4,1.2.6,1.6.6.9,0,1.5-1,1.8-2.9.3-1.9,1.1-2.9,2.4-2.9s2,.7,2,2,0,.8-.2,1.6c-.3,2.1-.4,4.9-.4,8.2s.2,5.6.6,10.8c.1.5.2,1.1.2,1.8,0,1.6-.5,2.4-1.6,2.4s-2.1-1.2-2.6-3.6c-1.2-5.8-3.6-10.5-7.3-14-3.7-3.5-8-5.3-12.9-5.3-9.6,0-14.4,5.1-14.4,15.3s1.3,8.2,3.8,11.2c1.3,1.6,2.8,2.9,4.4,3.8,1.6.9,6.3,3.3,14,7,8.7,4.2,14.8,8.3,18.4,12.2,3.6,3.9,5.4,8.5,5.4,13.8Z"/>
      </g>
      <g class="cls-16">
        <path class="cls-14" d="M354.2,312.2c0,1.2-1.3,1.8-3.8,1.8h-43.5c-2.6,0-4-.5-4-1.6s3.1-1.8,9.3-2.2c3.3-.3,5.2-.8,5.7-1.7.5-.9.8-4,.8-9.3v-58.2h-60.2v56.6c0,6,.5,9.5,1.4,10.6.9,1.1,4.1,1.8,9.4,2.2,3.5.3,5.2.9,5.2,1.8s-1.3,1.8-4,1.8h-43.4c-2.7,0-4-.5-4-1.6s1.3-1.7,4-2c1.7-.1,3.5-.3,5.4-.4,2.9-.3,4.8-.9,5.6-2,.4-.7.6-4.4.6-11.2v-105.4c0-6-.3-9.5-.9-10.6-.6-1.1-2.7-1.7-6.3-1.8-4.1-.3-6.6-.5-7.3-.6-.7-.1-1.1-.7-1.1-1.7s.9-1.7,2.6-1.7,1.7,0,3.4.2c3.3.3,11.2.4,23.6.4s11.5,0,14.2-.3c.9-.2,2.1-.3,3.6-.3,2.4,0,3.6.7,3.6,2s-2.2,1.8-6.5,1.8-6.9.5-7.8,1.5c-.9,1-1.3,4.2-1.3,9.5v46.2h60.2v-43.1c0-7.1-.5-11.3-1.6-12.5-1.1-1.3-4.8-1.8-11.2-1.7-2,0-3-.6-3-1.8s1.1-1.8,3.4-1.8h43.6c2.8,0,4.2.6,4.2,1.8s-2.9,1.9-8.8,2c-1.7,0-3,.1-3.8.4-1.3.4-2.2,1.1-2.5,2.2-.3,1.1-.5,4.2-.5,9.4v106.4c0,6.4.3,10.1,1,11.2,1.3,1.5,5.1,2.2,11.5,2.2,2.1-.3,3.2.3,3.2,1.6Z"/>
        <path class="cls-14" d="M403.4,312.8c0,.8-.6,1.2-1.8,1.2h-33.6c-2.3,0-3.4-.3-3.4-1s1.5-1.4,4.4-1.6c4-.3,6.1-.7,6.3-1.4.2-.7.3-3.6.3-8.7v-64.9c0-5.2-.1-8.3-.4-9.2-.3-.9-1.3-1.4-3-1.5h-6c-1.2,0-1.8-.5-1.8-1.4s.9-1.4,2.6-1.4c-.1,0,.3,0,1.2,0h31.8c2.1,0,3.2.5,3.2,1.6s-2.3,1.3-6.8,1.4c-1.9,0-3,.3-3.4.9-.4.6-.6,2.4-.6,5.5v75.4c0,1.3.5,2.2,1.5,2.6,1,.4,3.4.7,7.1,1,1.6.1,2.4.6,2.4,1.4Z"/>
        <path class="cls-14" d="M482,245c0,7.3-3,13.2-9,17.7-6,4.5-13.8,6.7-23.5,6.7s-4.1-.2-8-.6h-1.2v36.2c0,3.6.9,5.6,2.7,5.9,1.8.3,4.3.5,7.6.5s2.2.5,2.2,1.4-.8,1.1-2.3,1.2c-1.5.1-6.8.2-15.9.2s-17.9,0-19.8-.2c-1.9-.1-2.8-.6-2.8-1.3s.5-1.4,1.6-1.3h3c3.1-.3,4.9-.4,5.4-.5.5,0,.9-.3,1.2-.7.3-.4.4-2.7.4-6.8v-67c0-5.3,0-8.2-.2-8.6-.4-1.2-2.6-1.8-6.5-1.8h-2.6c-1.5,0-2.2-.5-2.2-1.6s.7-1.1,2.2-1.2c1.5-.1,6.5-.2,15-.2,17.1,0,27.6.3,31.5,1,14.2,2.4,21.3,9.4,21.3,21ZM464.6,245.1c0-12.7-5.6-19.1-16.9-19.1s-5.4.3-6.1.8c-.8.5-1.2,2.1-1.2,4.6v34.6c16.1,0,24.2-7,24.2-20.9Z"/>
        <path class="cls-14" d="M559.6,245c0,7.3-3,13.2-9,17.7-6,4.5-13.8,6.7-23.5,6.7s-4.1-.2-8-.6h-1.2v36.2c0,3.6.9,5.6,2.7,5.9,1.8.3,4.3.5,7.6.5s2.2.5,2.2,1.4-.8,1.1-2.3,1.2c-1.5.1-6.8.2-15.9.2s-17.9,0-19.8-.2c-1.9-.1-2.8-.6-2.8-1.3s.5-1.4,1.6-1.3h3c3.1-.3,4.9-.4,5.4-.5.5,0,.9-.3,1.2-.7.3-.4.4-2.7.4-6.8v-67c0-5.3,0-8.2-.2-8.6-.4-1.2-2.6-1.8-6.5-1.8h-2.6c-1.5,0-2.2-.5-2.2-1.6s.7-1.1,2.2-1.2c1.5-.1,6.5-.2,15-.2,17.1,0,27.6.3,31.5,1,14.2,2.4,21.3,9.4,21.3,21ZM542.2,245.1c0-12.7-5.6-19.1-16.9-19.1s-5.4.3-6.1.8c-.8.5-1.2,2.1-1.2,4.6v34.6c16.1,0,24.2-7,24.2-20.9Z"/>
        <path class="cls-14" d="M658.4,269.1c0,12.9-4.2,23.8-12.6,32.8-8.4,9-18.7,13.5-30.8,13.5s-23.8-4.6-32.7-13.7c-8.9-9.1-13.3-20.3-13.3-33.4s4.2-24.9,12.7-33.6c8.5-8.7,19.3-13.1,32.5-13.1s23,4.6,31.5,13.7c8.5,9.1,12.7,20.4,12.7,33.8ZM639.6,269.7c0-15.4-3.1-27.6-9.4-36.5-4-5.7-9.5-8.6-16.6-8.6s-16.8,5.3-21.2,16c-3.1,7.5-4.6,16.9-4.6,28.3s2.4,24.4,7.2,32.1c4.8,7.7,11.5,11.6,20,11.6,16.4,0,24.6-14.3,24.6-42.9Z"/>
        <path class="cls-14" d="M749.6,284.2c0,.4,0,1.5-.2,3.4-.5,7.2-.8,12.3-.8,15.2s.2,4.9.6,8.8v1.4c0,1.3-.5,2-1.6,2s-2.1-1.1-3.2-3.4l-1.8-3.8c-.1-.3-.3-.7-.6-1.2-6,5.9-14.3,8.8-24.8,8.8s-24.7-4.5-33.6-13.5c-8.9-9-13.4-20.3-13.4-33.8s4.1-24.7,12.4-33.4c8.3-8.7,18.8-13.1,31.6-13.1s18.4,2.6,25.2,7.8c.5.5,1.1.8,1.6.8s1.3-.9,1.8-2.6c.9-2.9,2.1-4.4,3.4-4.4s1.4.5,1.4,1.6-.1.7-.4,1.8c-.8,4.5-1.3,11.3-1.4,20.2-.1,5.6-.9,8.4-2.2,8.4s-1.8-1-2.2-3c-1.3-7.2-2.9-12.5-4.8-15.9-4.3-7.5-11.3-11.3-21-11.3s-14.6,3.9-19.4,11.7-7.2,18.4-7.2,31.8,2.7,24,8,31.8c5.3,7.8,12.5,11.7,21.6,11.7s12.7-2.3,17.3-7c4.6-4.7,7.6-11.2,9.1-19.5.7-3.4,1.5-5.1,2.6-5.1s2,1.3,2,3.8Z"/>
        <path class="cls-14" d="M849.4,313c0,.8-1.3,1.2-4,1.2h-39.4c-2.4,0-3.6-.5-3.6-1.6s2.4-1.7,7.2-1.8c5.7-.1,8.6-.8,8.6-2s-.4-1.5-1.2-3.8c-.3-1.1-1.8-5.5-4.6-13.3l-2.4-6.8h-28.6c-5.5,13.7-8.2,21.7-8.2,23.8s.8,1.9,2.4,2l2.6.2h3l1.8.6c1.6,0,2.4.4,2.4,1.2s-1.4,1.4-4.2,1.4-2.8-.1-7.1-.3c-4.3-.2-8.2-.3-11.5-.3h-1.8l-1.8.3-2.2.3h-.4c-2.1,0-3.2-.4-3.2-1.2s.9-1.5,2.6-1.6c2.4-.1,4-.3,4.8-.4,2.3-.4,3.7-1,4.4-1.8.8-.4,4.1-8,9.8-22.9,2.3-6,4.5-11.6,6.6-16.8.8-1.9,1.3-3.3,1.6-4.2.3-.9.8-2.3,1.6-4.2,2.3-5.5,5.5-13.8,9.6-24.9l3-8.4,1.4-3.6c.8-2,1.6-3,2.4-3s1.3,1.9,2.6,5.6c4,9.7,14.3,35.5,31,77.2,1.6,4.1,3.1,6.3,4.6,6.6.4.1,2.5.3,6.4.6,2.5.1,3.8.7,3.8,1.8ZM808.8,281.6l-12.9-34.2c-3.2,8-7.7,19.4-13.4,34.2h26.2Z"/>
        <path class="cls-14" d="M951.6,312.6c0,1.1-1.2,1.6-3.6,1.6.5,0-.1,0-2,0h-33.6c-2.4,0-3.6-.5-3.6-1.4s.3-.9.9-1c.6-.1,2.8-.2,6.7-.3,2.8-.1,4.4-.5,4.9-1.2.5-.7.7-3.1.7-7.4v-64.6c-2.4,6.7-6.3,17.7-11.6,33-3.1,9.2-6.9,21.1-11.6,35.6-1.3,4.1-2.4,6.2-3.2,6.2s-2.2-1.8-3.4-5.4c-3.1-9.2-12.1-32-27-68.4v68.6c0,1.7.7,2.8,2,3.2,1.9.1,4.3.2,7.2.2s2.6.5,2.6,1.4-1.3,1.6-4,1.6h-22.8c-2,0-3-.5-3-1.6s2.1-1.5,6.4-1.6c2.9-.1,4.6-.5,5.1-1.1.5-.6.7-2.8.7-6.5v-67.8c0-4.5-.4-7.2-1.3-8-.9-.8-3.8-1.3-8.7-1.4-1.7,0-2.6-.5-2.6-1.6s1.1-1.3,3.4-1.4c2.3-.1,10.3-.2,24-.2l.8,2.2c.7,1.5,1.5,3.5,2.6,6.2l4.8,12c1.3,3.3,3.6,8.9,6.8,16.8l10.5,26.2c2-6.4,3.6-11.1,4.7-14.2l17.2-49.2h24c3.5-.1,5.2.4,5.2,1.7s-1.3,1.6-3.8,1.7c-3.5.1-5.5.3-6.2.4-1.9.7-2.8,2.1-2.8,4.4v70.6c0,5.3.5,8.2,1.4,8.6.9.4,4,.6,9.2.6s3,.5,3,1.6Z"/>
        <path class="cls-14" d="M1027.6,245c0,7.3-3,13.2-9,17.7-6,4.5-13.8,6.7-23.5,6.7s-4.1-.2-8-.6h-1.2v36.2c0,3.6.9,5.6,2.7,5.9,1.8.3,4.3.5,7.6.5s2.2.5,2.2,1.4-.8,1.1-2.3,1.2c-1.5.1-6.8.2-15.9.2s-17.9,0-19.8-.2c-1.9-.1-2.8-.6-2.8-1.3s.5-1.4,1.6-1.3h3c3.1-.3,4.9-.4,5.4-.5.5,0,.9-.3,1.2-.7.3-.4.4-2.7.4-6.8v-67c0-5.3,0-8.2-.2-8.6-.4-1.2-2.6-1.8-6.5-1.8h-2.6c-1.5,0-2.2-.5-2.2-1.6s.7-1.1,2.2-1.2c1.5-.1,6.5-.2,15-.2,17.1,0,27.6.3,31.5,1,14.2,2.4,21.3,9.4,21.3,21ZM1010.2,245.1c0-12.7-5.6-19.1-16.9-19.1s-5.4.3-6.1.8c-.8.5-1.2,2.1-1.2,4.6v34.6c16.1,0,24.2-7,24.2-20.9Z"/>
        <path class="cls-14" d="M1125,224.6c0,.9-1.1,1.4-3.2,1.4h-5c-2.1,0-3.2,1.3-3.2,4v36.8c0,12.9-.3,21.2-.8,24.9-.5,3.7-1.9,7.4-4.2,11.2-5.2,8.4-14.4,12.5-27.6,12.5s-19.7-2.5-26.2-7.6c-6-4.7-9-13.6-9-26.9v-42.1c0-7.2-.2-11.1-.7-11.8-.5-.7-2.4-1-5.9-1s-4.2-.5-4.2-1.6.9-1.4,2.8-1.4h31.6c2.4,0,3.6.5,3.6,1.6s-2.5,1.9-7.4,1.8c-1.5,0-2.3.2-2.6.7-.3.5-.4,2-.4,4.5v47.9c0,13,1.7,21.5,5,25.3,3.7,4.4,9.3,6.6,16.6,6.6s17.3-4.2,21-12.7c1.9-4.2,2.8-11.1,2.8-20.5,0,.1,0-.6,0-2.2v-46c0-1.7-.3-2.8-1-3.2-.7-.4-2.5-.6-5.6-.6s-4.6-.6-4.6-1.8.8-1.4,2.4-1.4h22.6c2.1,0,3.2.5,3.2,1.6Z"/>
        <path class="cls-14" d="M1195.4,288.3c0,7.4-3.2,13.8-9.6,19.1-6.4,5.3-14.1,8-23.2,8s-13.8-2.1-21-6.2c-.8-.3-1.3-.4-1.6-.4-.8,0-1.3.6-1.4,1.9-.1,1.3-.3,2.4-.6,3.3-.3.9-.9,1.4-2,1.4s-2-.7-2-2,.1-2.3.4-6c.3-3.7.4-6.9.4-9.6v-10.2c0-2.5.7-3.8,2-3.8s2.3,2.1,3,6.2c2.5,14.7,10.4,22,23.6,22s16.8-5.6,16.8-16.7-1.3-8.9-4-11.9c-2.7-3.1-7.9-6.5-15.6-10.4-10.1-5-16.6-9-19.4-11.9-3.6-3.9-5.4-8.6-5.4-14.3s2.7-13.3,8-18c5.3-4.7,12.1-7.1,20.2-7.1s10.5,1.5,16.2,4.6c.7.4,1.2.6,1.6.6.9,0,1.5-1,1.8-2.9.3-1.9,1.1-2.9,2.4-2.9s2,.7,2,2,0,.8-.2,1.6c-.3,2.1-.4,4.9-.4,8.2s.2,5.6.6,10.8c.1.5.2,1.1.2,1.8,0,1.6-.5,2.4-1.6,2.4s-2.1-1.2-2.6-3.6c-1.2-5.8-3.6-10.5-7.3-14-3.7-3.5-8-5.3-12.9-5.3-9.6,0-14.4,5.1-14.4,15.3s1.3,8.2,3.8,11.2c1.3,1.6,2.8,2.9,4.4,3.8,1.6.9,6.3,3.3,14,7,8.7,4.2,14.8,8.3,18.4,12.2,3.6,3.9,5.4,8.5,5.4,13.8Z"/>
      </g>
    </g>
  </g>
  <g class="cls-16">
    <g class="cls-16">
      <g class="cls-16">
        <path class="cls-9" d="M638,411.6c0,.8-.9,1.2-2.7,1.2.4,0-.1,0-1.5,0h-25.2c-1.8,0-2.7-.3-2.7-1.1s.2-.7.7-.8c.4,0,2.1-.2,5-.3,2.1,0,3.3-.4,3.7-.9.3-.5.5-2.4.5-5.6v-48.4c-1.8,5-4.7,13.3-8.7,24.8-2.3,6.9-5.2,15.8-8.7,26.7-1,3.1-1.8,4.7-2.4,4.7s-1.6-1.3-2.5-4c-2.3-6.9-9.1-24-20.2-51.3v51.4c0,1.3.5,2.1,1.5,2.4,1.4.1,3.2.1,5.4.1s2,.4,2,1.1-1,1.2-3,1.2h-17.1c-1.5,0-2.2-.4-2.2-1.2s1.6-1.1,4.8-1.2c2.2,0,3.5-.4,3.8-.8.3-.5.5-2.1.5-4.9v-50.8c0-3.4-.3-5.4-1-6-.7-.6-2.8-.9-6.5-1-1.3,0-2-.4-2-1.2s.8-.9,2.6-1c1.7,0,7.7-.2,18-.2l.6,1.7c.5,1.1,1.1,2.7,1.9,4.6l3.6,9c1,2.5,2.7,6.7,5.1,12.6l7.9,19.6c1.5-4.8,2.7-8.3,3.5-10.6l12.9-36.9h18c2.6,0,3.9.3,3.9,1.3s-1,1.2-2.8,1.3c-2.6.1-4.2.2-4.7.3-1.4.5-2.1,1.6-2.1,3.3v52.9c0,4,.3,6.2,1,6.5.7.3,3,.5,6.9.5s2.2.4,2.2,1.2Z"/>
        <path class="cls-9" d="M699.8,396.6c0,.1,0,.7-.2,1.9-.2,1.2-.2,2.2-.2,3.1v8.7c0,.9.1,1.9.4,3l-25-.4-28.7.4c-2.1,0-3.2-.4-3.2-1.2s.6-1.4,1.8-1.4c3.2,0,5.1-.2,5.6-.7.5-.5.8-2.1.8-4.9v-51.6c0-4.1-.4-6.3-1.1-6.5-.7-.2-2.5-.4-5.2-.4s-1.8-.3-1.8-1,.6-1.2,1.9-1.2h51.3v3.3c.3,1.5.8,5.9,1.4,13.3,0,.5.1,1.1.1,1.8,0,1.3-.3,1.9-1,1.9s-1.5-1-1.9-3c-1.4-7.6-4-12-7.9-13.3-2.2-.7-7.4-1.1-15.5-1.1h-7.6v28.1h3.6c6.3,0,10.3-.5,11.8-1.6s2.5-3.9,3-8.6c.3-2.8.9-4.2,1.8-4.2s1.5,1,1.5,3,0,3.1-.2,5.5c-.1,2.5-.2,4.4-.2,5.7,0,6.5.1,11,.3,13.3,0,.8.1,1.5.1,2,0,1.6-.5,2.4-1.5,2.4s-1.5-1.2-1.8-3.8c-.6-5.4-1.6-8.6-3-9.7-1.4-1.1-5.3-1.6-11.7-1.6h-3.7v32.4c14.6,0,23.2-.5,25.8-1.2,4-1.1,6.3-5.9,7-14.4,0-1.5.6-2.2,1.6-2.2s1.5,1.4,1.5,4.1Z"/>
        <path class="cls-9" d="M783.2,411.6c0,.8-.9,1.2-2.7,1.2.4,0-.1,0-1.5,0h-25.2c-1.8,0-2.7-.3-2.7-1.1s.2-.7.7-.8c.5,0,2.1-.2,5-.3,2.1,0,3.3-.4,3.7-.9.3-.5.5-2.4.5-5.6v-48.4c-1.8,5-4.7,13.3-8.7,24.8-2.3,6.9-5.2,15.8-8.7,26.7-1,3.1-1.8,4.7-2.4,4.7s-1.6-1.3-2.5-4c-2.3-6.9-9.1-24-20.2-51.3v51.4c0,1.3.5,2.1,1.5,2.4,1.4.1,3.2.1,5.4.1s2,.4,2,1.1-1,1.2-3,1.2h-17.1c-1.5,0-2.2-.4-2.2-1.2s1.6-1.1,4.8-1.2c2.2,0,3.5-.4,3.8-.8.3-.5.5-2.1.5-4.9v-50.8c0-3.4-.3-5.4-1-6-.7-.6-2.8-.9-6.5-1-1.3,0-2-.4-2-1.2s.8-.9,2.6-1c1.7,0,7.7-.2,18-.2l.6,1.7c.5,1.1,1.1,2.7,1.9,4.6l3.6,9c1,2.5,2.7,6.7,5.1,12.6l7.9,19.6c1.5-4.8,2.7-8.3,3.5-10.6l12.9-36.9h18c2.6,0,3.9.3,3.9,1.3s-1,1.2-2.8,1.3c-2.6.1-4.2.2-4.7.3-1.4.5-2.1,1.6-2.1,3.3v52.9c0,4,.3,6.2,1,6.5.7.3,3,.5,6.9.5s2.2.4,2.2,1.2Z"/>
        <path class="cls-9" d="M856.1,379c0,9.7-3.2,17.9-9.5,24.6-6.3,6.7-14,10.1-23.1,10.1s-17.9-3.4-24.5-10.3c-6.7-6.8-10-15.2-10-25.1s3.2-18.7,9.5-25.2c6.3-6.5,14.5-9.8,24.4-9.8s17.3,3.4,23.6,10.3c6.3,6.8,9.5,15.3,9.5,25.4ZM842,379.5c0-11.6-2.4-20.7-7-27.4-3-4.3-7.2-6.4-12.5-6.4s-12.6,4-15.9,12c-2.3,5.6-3.5,12.7-3.5,21.3s1.8,18.3,5.4,24.1c3.6,5.8,8.6,8.7,15,8.7,12.3,0,18.4-10.7,18.4-32.2Z"/>
      </g>
      <g class="cls-16">
        <path class="cls-14" d="M638,411.6c0,.8-.9,1.2-2.7,1.2.4,0-.1,0-1.5,0h-25.2c-1.8,0-2.7-.3-2.7-1.1s.2-.7.7-.8c.4,0,2.1-.2,5-.3,2.1,0,3.3-.4,3.7-.9.3-.5.5-2.4.5-5.6v-48.4c-1.8,5-4.7,13.3-8.7,24.8-2.3,6.9-5.2,15.8-8.7,26.7-1,3.1-1.8,4.7-2.4,4.7s-1.6-1.3-2.5-4c-2.3-6.9-9.1-24-20.2-51.3v51.4c0,1.3.5,2.1,1.5,2.4,1.4.1,3.2.1,5.4.1s2,.4,2,1.1-1,1.2-3,1.2h-17.1c-1.5,0-2.2-.4-2.2-1.2s1.6-1.1,4.8-1.2c2.2,0,3.5-.4,3.8-.8.3-.5.5-2.1.5-4.9v-50.8c0-3.4-.3-5.4-1-6-.7-.6-2.8-.9-6.5-1-1.3,0-2-.4-2-1.2s.8-.9,2.6-1c1.7,0,7.7-.2,18-.2l.6,1.7c.5,1.1,1.1,2.7,1.9,4.6l3.6,9c1,2.5,2.7,6.7,5.1,12.6l7.9,19.6c1.5-4.8,2.7-8.3,3.5-10.6l12.9-36.9h18c2.6,0,3.9.3,3.9,1.3s-1,1.2-2.8,1.3c-2.6.1-4.2.2-4.7.3-1.4.5-2.1,1.6-2.1,3.3v52.9c0,4,.3,6.2,1,6.5.7.3,3,.5,6.9.5s2.2.4,2.2,1.2Z"/>
        <path class="cls-14" d="M699.8,396.6c0,.1,0,.7-.2,1.9-.2,1.2-.2,2.2-.2,3.1v8.7c0,.9.1,1.9.4,3l-25-.4-28.7.4c-2.1,0-3.2-.4-3.2-1.2s.6-1.4,1.8-1.4c3.2,0,5.1-.2,5.6-.7.5-.5.8-2.1.8-4.9v-51.6c0-4.1-.4-6.3-1.1-6.5-.7-.2-2.5-.4-5.2-.4s-1.8-.3-1.8-1,.6-1.2,1.9-1.2h51.3v3.3c.3,1.5.8,5.9,1.4,13.3,0,.5.1,1.1.1,1.8,0,1.3-.3,1.9-1,1.9s-1.5-1-1.9-3c-1.4-7.6-4-12-7.9-13.3-2.2-.7-7.4-1.1-15.5-1.1h-7.6v28.1h3.6c6.3,0,10.3-.5,11.8-1.6s2.5-3.9,3-8.6c.3-2.8.9-4.2,1.8-4.2s1.5,1,1.5,3,0,3.1-.2,5.5c-.1,2.5-.2,4.4-.2,5.7,0,6.5.1,11,.3,13.3,0,.8.1,1.5.1,2,0,1.6-.5,2.4-1.5,2.4s-1.5-1.2-1.8-3.8c-.6-5.4-1.6-8.6-3-9.7-1.4-1.1-5.3-1.6-11.7-1.6h-3.7v32.4c14.6,0,23.2-.5,25.8-1.2,4-1.1,6.3-5.9,7-14.4,0-1.5.6-2.2,1.6-2.2s1.5,1.4,1.5,4.1Z"/>
        <path class="cls-14" d="M783.2,411.6c0,.8-.9,1.2-2.7,1.2.4,0-.1,0-1.5,0h-25.2c-1.8,0-2.7-.3-2.7-1.1s.2-.7.7-.8c.5,0,2.1-.2,5-.3,2.1,0,3.3-.4,3.7-.9.3-.5.5-2.4.5-5.6v-48.4c-1.8,5-4.7,13.3-8.7,24.8-2.3,6.9-5.2,15.8-8.7,26.7-1,3.1-1.8,4.7-2.4,4.7s-1.6-1.3-2.5-4c-2.3-6.9-9.1-24-20.2-51.3v51.4c0,1.3.5,2.1,1.5,2.4,1.4.1,3.2.1,5.4.1s2,.4,2,1.1-1,1.2-3,1.2h-17.1c-1.5,0-2.2-.4-2.2-1.2s1.6-1.1,4.8-1.2c2.2,0,3.5-.4,3.8-.8.3-.5.5-2.1.5-4.9v-50.8c0-3.4-.3-5.4-1-6-.7-.6-2.8-.9-6.5-1-1.3,0-2-.4-2-1.2s.8-.9,2.6-1c1.7,0,7.7-.2,18-.2l.6,1.7c.5,1.1,1.1,2.7,1.9,4.6l3.6,9c1,2.5,2.7,6.7,5.1,12.6l7.9,19.6c1.5-4.8,2.7-8.3,3.5-10.6l12.9-36.9h18c2.6,0,3.9.3,3.9,1.3s-1,1.2-2.8,1.3c-2.6.1-4.2.2-4.7.3-1.4.5-2.1,1.6-2.1,3.3v52.9c0,4,.3,6.2,1,6.5.7.3,3,.5,6.9.5s2.2.4,2.2,1.2Z"/>
        <path class="cls-14" d="M856.1,379c0,9.7-3.2,17.9-9.5,24.6-6.3,6.7-14,10.1-23.1,10.1s-17.9-3.4-24.5-10.3c-6.7-6.8-10-15.2-10-25.1s3.2-18.7,9.5-25.2c6.3-6.5,14.5-9.8,24.4-9.8s17.3,3.4,23.6,10.3c6.3,6.8,9.5,15.3,9.5,25.4ZM842,379.5c0-11.6-2.4-20.7-7-27.4-3-4.3-7.2-6.4-12.5-6.4s-12.6,4-15.9,12c-2.3,5.6-3.5,12.7-3.5,21.3s1.8,18.3,5.4,24.1c3.6,5.8,8.6,8.7,15,8.7,12.3,0,18.4-10.7,18.4-32.2Z"/>
      </g>
    </g>
  </g>
  <rect class="cls-13" x="70.9" y="534.3" width="1275.6" height="8.5"/>
  <rect class="cls-13" x="70.9" y="24.1" width="1275.6" height="8.5"/>
</svg>