<?xml version="1.0" encoding="UTF-8"?>
<svg id="_레이어_1" data-name=" 레이어 1" xmlns="http://www.w3.org/2000/svg" version="1.1" viewBox="0 0 1417.3 566.9">
  <defs>
    <style>
      .cls-1 {
        fill: #03c75a;
        stroke-width: 0px;
      }

      .cls-2 {
        isolation: isolate;
      }
    </style>
  </defs>
  <g class="cls-2">
    <g class="cls-2">
      <path class="cls-1" d="M526.7,284.7V120.1h32.3l67.4,109.9v-109.9h30.9v164.6h-33.4l-66.4-107.4v107.4h-30.9Z"/>
      <path class="cls-1" d="M840.9,284.7h-36.2l-14.4-37.4h-65.8l-13.6,37.4h-35.3l64.1-164.6h35.2l65.9,164.6ZM779.7,219.6l-22.7-61.1-22.2,61.1h44.9Z"/>
      <path class="cls-1" d="M883.5,284.7l-58.8-164.6h36l41.7,121.9,40.3-121.9h35.3l-59,164.6h-35.5Z"/>
      <path class="cls-1" d="M994.9,284.7V120.1h122.1v27.9h-88.8v36.5h82.7v27.7h-82.7v44.8h92v27.7h-125.2Z"/>
      <path class="cls-1" d="M1148.4,284.7V120.1h70c17.6,0,30.4,1.5,38.4,4.4,8,3,14.4,8.2,19.1,15.8,4.8,7.6,7.2,16.2,7.2,25.9s-3.6,22.6-10.9,30.6c-7.3,8-18.1,13.1-32.6,15.2,7.2,4.2,13.1,8.8,17.8,13.8,4.7,5,11,13.9,18.9,26.7l20.1,32.1h-39.8l-24-35.8c-8.5-12.8-14.4-20.9-17.5-24.2-3.1-3.3-6.5-5.6-10-6.8-3.5-1.2-9.1-1.9-16.7-1.9h-6.7v68.7h-33.2ZM1181.6,189.7h24.6c15.9,0,25.9-.7,29.9-2,4-1.3,7.1-3.7,9.3-7,2.2-3.3,3.4-7.4,3.4-12.4s-1.5-10-4.4-13.4c-3-3.4-7.1-5.6-12.5-6.5-2.7-.4-10.8-.6-24.3-.6h-25.9v41.8Z"/>
    </g>
  </g>
  <g class="cls-2">
    <g class="cls-2">
      <g class="cls-2">
        <path class="cls-1" d="M652.4,446.5v-128.8h38.9l23.4,87.9,23.1-87.9h39v128.8h-24.2v-101.4l-25.6,101.4h-25l-25.5-101.4v101.4h-24.2Z"/>
        <path class="cls-1" d="M802.7,446.5v-128.8h95.5v21.8h-69.5v28.6h64.7v21.7h-64.7v35.1h72v21.7h-98Z"/>
        <path class="cls-1" d="M922.4,446.5v-128.8h38.9l23.4,87.9,23.1-87.9h39v128.8h-24.2v-101.4l-25.6,101.4h-25l-25.5-101.4v101.4h-24.2Z"/>
        <path class="cls-1" d="M1067.5,382.9c0-13.1,2-24.1,5.9-33,2.9-6.6,6.9-12.5,12-17.7,5.1-5.2,10.6-9.1,16.7-11.6,8-3.4,17.3-5.1,27.8-5.1,19,0,34.2,5.9,45.6,17.7,11.4,11.8,17.1,28.2,17.1,49.1s-5.7,37.1-17,48.8c-11.3,11.7-26.4,17.6-45.4,17.6s-34.4-5.8-45.7-17.5c-11.3-11.7-17-27.8-17-48.3ZM1094.3,382c0,14.6,3.4,25.7,10.1,33.2,6.7,7.5,15.3,11.3,25.7,11.3s18.9-3.7,25.5-11.2c6.6-7.5,10-18.7,10-33.6s-3.2-25.8-9.7-33c-6.5-7.3-15.1-10.9-25.8-10.9s-19.4,3.7-25.9,11c-6.6,7.4-9.8,18.4-9.8,33.3Z"/>
      </g>
    </g>
  </g>
  <path class="cls-1" d="M354.4,70.9h-141.7c-78.3,0-141.7,63.5-141.7,141.7v141.7c0,78.3,63.5,141.7,141.7,141.7h141.7c78.3,0,141.7-63.5,141.7-141.7v-141.7c0-78.3-63.5-141.7-141.7-141.7h0ZM364.9,364.3h-50l-60.4-86.5v86.5h-52.5v-161.6h50.1l60.4,86.5v-86.5h52.4v161.6Z"/>
  <path class="cls-1" d="M354.4,70.9h-141.7c-78.3,0-141.7,63.5-141.7,141.7v141.7c0,78.3,63.5,141.7,141.7,141.7h141.7c78.3,0,141.7-63.5,141.7-141.7v-141.7c0-78.3-63.5-141.7-141.7-141.7h0ZM364.9,364.3h-50l-60.4-86.5v86.5h-52.5v-161.6h50.1l60.4,86.5v-86.5h52.4v161.6Z"/>
</svg>