<?xml version="1.0" encoding="UTF-8"?>
<svg id="_레이어_2" data-name=" 레이어 2" xmlns="http://www.w3.org/2000/svg" version="1.1" viewBox="0 0 1591.8 540.2">
  <defs>
    <style>
      .cls-1 {
        fill: none;
        stroke: #33419a;
        stroke-miterlimit: 10;
        stroke-width: 30px;
      }

      .cls-2 {
        isolation: isolate;
      }

      .cls-3 {
        fill: #33419a;
        stroke-width: 0px;
      }
    </style>
  </defs>
  <rect class="cls-1" x="15" y="15" width="510.2" height="510.2" rx="141.7" ry="141.7"/>
  <g class="cls-2">
    <g class="cls-2">
      <g class="cls-2">
        <g class="cls-2">
          <path class="cls-3" d="M549.8,266.1c0-36.2,9.7-64.6,29.2-85.1s44.6-30.8,75.4-30.8,38.3,4.8,54.5,14.4c16.2,9.6,28.5,23.1,37,40.3s12.7,36.8,12.7,58.6-4.5,41.9-13.4,59.4-21.6,30.7-38,39.7-34.1,13.5-53,13.5-38.9-5-55.1-14.9c-16.2-9.9-28.4-23.5-36.8-40.7-8.3-17.2-12.5-35.3-12.5-54.5h0ZM579.6,266.5c0,26.3,7.1,47,21.2,62.2,14.1,15.1,31.9,22.7,53.2,22.7s39.6-7.6,53.7-22.9c14-15.3,21.1-37,21.1-65.1s-3-33.3-9-46.5c-6-13.3-14.8-23.5-26.4-30.8-11.6-7.3-24.5-10.9-38.9-10.9-20.5,0-38.1,7-52.8,21.1s-22.1,37.5-22.1,70.4v-.2Z"/>
          <path class="cls-3" d="M786,302.3l27.3-2.4c1.3,10.9,4.3,19.9,9,26.9s12,12.7,22,17c9.9,4.3,21.1,6.5,33.5,6.5s20.7-1.6,29.2-4.9c8.4-3.3,14.7-7.8,18.8-13.5s6.2-11.9,6.2-18.7-2-12.8-6-17.9-10.5-9.4-19.7-12.9c-5.9-2.3-18.8-5.8-38.9-10.6-20.1-4.8-34.1-9.4-42.1-13.6-10.4-5.5-18.2-12.2-23.3-20.3s-7.7-17.2-7.7-27.2,3.1-21.3,9.4-30.9c6.3-9.6,15.4-16.9,27.4-21.8,12-5,25.4-7.4,40.1-7.4s30.5,2.6,42.8,7.8c12.4,5.2,21.9,12.9,28.5,23,6.7,10.1,10.2,21.6,10.7,34.4l-27.7,2.1c-1.5-13.8-6.5-24.2-15.1-31.3-8.6-7-21.3-10.6-38.1-10.6s-30.2,3.2-38.2,9.6c-8,6.4-12,14.1-12,23.2s2.8,14.3,8.5,19.4c5.6,5.1,20.1,10.3,43.6,15.6s39.6,10,48.3,13.9c12.7,5.9,22.1,13.3,28.1,22.3,6.1,9,9.1,19.3,9.1,31.1s-3.3,22.6-10,32.8c-6.7,10.3-16.2,18.3-28.7,24s-26.5,8.6-42.1,8.6-36.3-2.9-49.7-8.6c-13.4-5.8-23.8-14.4-31.4-26-7.6-11.6-11.6-24.6-12-39.2l.2-.4Z"/>
          <path class="cls-3" d="M975.3,372.4l83.8-218.3h31.1l89.4,218.3h-32.9l-25.5-66.1h-91.3l-24,66.1h-30.7.1ZM1038.3,282.8h74l-22.8-60.5c-7-18.4-12.1-33.5-15.5-45.3-2.8,14-6.7,27.9-11.8,41.7l-24,64h.1Z"/>
          <path class="cls-3" d="M1201.5,372.4v-218.3h28.9v108.3l108.4-108.3h39.2l-91.6,88.5,95.6,129.9h-38.1l-77.7-110.5-35.7,34.8v75.7h-29Z"/>
          <path class="cls-3" d="M1382.2,372.4l83.8-218.3h31.1l89.4,218.3h-32.9l-25.5-66.1h-91.3l-24,66.1h-30.7,0ZM1445.2,282.8h74l-22.8-60.5c-7-18.4-12.1-33.5-15.5-45.3-2.8,14-6.7,27.9-11.8,41.7l-24,64h.1Z"/>
        </g>
      </g>
    </g>
  </g>
  <g>
    <path class="cls-3" d="M240,51.6c-1.5.7-1.6,1.5-.3,1.9l1,.3-.3,5.4c-.2,3-.3,6.6-.4,8.1,0,1.5-.2,3.5-.4,4.6-.2,1.8-.2,2,1.3,3.8.8,1,1.5,2.1,1.4,2.3,0,.2-.8.6-1.6.9-2,.7-2.6,1.5-3.8,5.1-.7,2.2-.9,3.2-.6,3.7.2.4,1.6,2,3.3,3.5l2.9,2.8,4.9-.6c3.1-.3,5.1-.4,5.4-.2.3.2,1.3,1.9,2.3,3.7,2.4,4.5,2.3,4.4,3.5,3.5,1-.7,1.2-.7,3.7-.2,1.8.4,2.8.4,3.1.2.7-.7,1-.4,1,.6s.5,1.2,2.1.6c1.3-.5,1.7,0,1.7,2.5s.1,1.8.6,1.6c.3-.2,2.5-.6,4.7-1.1,4-.8,4.3-.8,5-.2.5.4,1,.6,1.6.4s1.3,0,2.1.7c3.9,2.8,6.2,4.9,6.8,5.9.7,1.4.4,3.1-.5,3.4-.5.2-7.7-.5-9.5-.9-.8-.2-10.1,5.7-10.1,6.4s.7.6,1.5.8c1.3.4,1.6.7,2.1,2.2.3,1,.8,2.7,1,3.8.2,1.1.5,2.1.7,2.2.2.1,1.3-.3,2.5-1,2.6-1.3,2.8-1.3,3.5-.2.5.8.5,1.2-1.1,5.3-1,2.4-1.9,5-2.1,5.7-.6,2.5-3.9,12.8-4.2,13.1-.2.2-1.3.4-2.7.5-2.3.3-2.4.3-2.1,1.3.2.5.8,2.2,1.5,3.7,1,2.3,1.1,3.1,1.1,5.5,0,2.2-.3,3.1-.8,3.6-.4.5-1.1,2-1.5,3.4l-.8,2.6,1.6,4.1c1.5,3.8,1.7,4.1,2.8,4.5.7.2,2.4,1.5,3.8,2.9s2.8,2.6,3,2.6.6,2.3.8,5.4c.8,8.8.7,8.7,2.2,9.2,1.2.4,1.3.6,1.3,2.2s.3,2.6,1.5,2.7c.8.2,1,.4,1.5,3.1.8,4.7,1.6,11.1,1.4,11.4,0,.2-1.1.2-2.4,0-2.2-.2-2.3-.2-3,1.1-.7,1.1-.8,2-.8,4.7v3.4l-7.9,5.2c-4.4,2.8-8.3,5.5-8.8,5.9l-.8.7,2.9,3.9c2.9,3.8,3.8,5.6,3.4,6.2-.1.2-1.3.7-2.6,1.1-1.4.5-2.7,1.1-2.9,1.4-.7.8-3.4,2.1-3.8,1.9-.2-.2-1.6.4-3.3,1.2-3,1.5-4.2,2.9-3.6,4,.5.9-1,2.3-2.5,2.3s-1.5.3-2.3,1.2c-1.9,2.2-1.9,2.6-.6,5.2,1.4,2.8,1.8,3,6.4,2.6l3.2-.2.6,1.4c.4,1.1.5,2.1.3,3.8-.2,1.5-.1,2.5.2,2.6s.3.9.2,2c-.1.9,0,2.1.2,2.5.4.9,1.2,5,1.2,6.2s-.4,1.1-1,1.6c-1.2,1.1-1.3,2.8,0,4.2,1.4,1.7,3.1,8.6,3.5,14.8,0,1.2.5,3.6.8,5.2.3,1.6.6,3.4.6,4,0,1.3-2,7.7-2.4,7.8-.5.2-4.6,7-7.8,12.6-1,1.8-1.9,3.2-2.1,3.2s-.6-.4-.9-.8c-.5-.9-.6-.8-1.1.8-.7,2.3-1.3,2.4-3,.4-1.4-1.6-1.5-1.6-1.9-.8-.6,1.1-.3,1.7,1.2,2.5.7.4,1.6,1,2.1,1.4,1.1.8.9,1.3-1.5,3.8-1.1,1.2-1.6,2-1.5,2.9,0,.7-.1,2.3-.3,3.5l-.2,2.3,1.5,1.1c.8.6,1.6,1.2,1.8,1.4.2.2,0,.8-.8,1.5l-1.1,1.2,1.1.9c1.1.8,1.1,1,.8,2.4-.4,1.8-1.1,1.8-3.3,0-1.1-.9-1.6-1.1-1.8-.7-.5.7.4,3.2,1.2,3.4,1.5.4.5,2.3-1.7,3.1-1,.4-1.1.3-1.5-.6l-.4-1-1.1,1.5c-1.4,1.8-1.4,2-.2,3l1,.8-1.3,2.5c-1.4,2.6-2.1,3.2-2.3,1.9-.2-1.2-.9-1.3-1.4-.2-.6,1.3-.9,1.2-1.8-.2-.5-.8-.6-1.5-.4-2.3.2-.9,0-1.4-.8-2.5-.5-.7-1.2-1.3-1.5-1.3-.5,0-6,8.1-6,8.7s.5.6,1,1c.8.5,1.1.6,1.8.2,1.1-.6,1.6.2,1,1.7-.4,1-2.5,5.4-2.8,5.9,0,0-.6-.3-1.3-.8-1.2-.9-1.2-.9-1.8-.1-.5.7-.5.8,0,1.1,2.2,1.3,2.2,1.4,1,3.2-.7.9-1.4,1.6-1.6,1.6s-.8-.6-1.2-1.3c-.5-.7-1-1.3-1.3-1.3-.8,0-1,1.7-.4,3,.8,1.5.8,1.6,0,1.6s-1.1.5-1.9,1.2c-.9.8-1.6,1.1-2.2,1-.4-.1-1.4.1-2.2.5s-2,.9-2.6,1.2c-1,.3-1.2.7-1.1,1.1.1.4-.3,1.4-1,2.3-1.3,1.8-2.2,3.8-2.2,5.2s-1,1.5-2,.9c-.6-.4-.8-.3-1.5.5-.4.5-.7,1.3-.5,1.7.1.4,0,.8-.4.9-.3.2-.6.5-.6.9,0,.5-.3.6-1.3.4-1.3-.3-1.3-.2-3.5,2.8l-2.2,3.1h-2c-2.1-.3-3.7.4-3.7,1.5s-.2.7-.5.7c-.5,0-2.9,2.8-9.5,11.4-1.8,2.4-3.7,4.5-4.1,4.7-1.5.8-14.7,5.7-14.9,5.6-.2,0-1.5,0-3.1.2-1.8.2-2.9.2-3.3,0s-1.4.2-3.3,1.3c-2.2,1.3-3.5,1.8-5.2,2-1.2.2-2.6.5-3,.8-1,.7-2,.7-3.4,0-1.9-1-3.1-.7-5.5,1.4-1,.8-1.6,1.1-2.9,1.1s-1.9.2-2.9,1.3c-1.1,1.1-1.6,1.4-3.3,1.5-6.7.7-6.2.6-7.7,2.2-2.3,2.5-2.4,2.8-1.8,3.6.5.6.7.7,1.6.3.9-.3,1.3-.3,2.1.2q1.2.7-.6,4.6c-1.3,2.8-1.3,2.8-.8,5.6.5,3.1.8,3.5,2.8,4,1.3.3,1.3.4,2,3.3.3,1.6.8,3.1.9,3.2.2.1,1.3-.2,2.6-.7,3.9-1.5,4.1-1.5,5.2,0,.9,1.1,1.1,1.2,2.1.9.9-.3,1.2-.8,1.8-2.7.7-2.1.9-2.4,2.2-2.9,2-.8,2.3-.7,4.6.4,1.9,1,2,1,1.7,2.3-.3,1.6-.2,1.6,2.7.3,2.1-.9,2.5-1,6.5-.7l4.2.2,1.1-1.3c.8-1,2-1.6,4.7-2.6,2-.7,3.8-1.5,4.1-1.8.3-.3.7-2.2,1-4.2.5-4.4.7-4.8,2.2-5.4,1-.4,1.4-.3,3.8.9l2.6,1.3,7.2-4.1,7.2-4.1,3.3.9c1.8.5,3.5,1,3.7,1,.2,0,1.6-.6,3-1.5,1.4-.8,2.8-1.5,3.1-1.4.2.1,1.4,2.3,2.5,4.9s2.2,4.7,2.4,4.9,1.2-.4,2.4-1.2c1.9-1.3,2.1-1.5,2.3-3.2.2-1,.3-2.1.4-2.5.1-.4,1.8-1.2,4.8-2.3,3.6-1.3,4.9-1.6,6-1.3l1.4.2-.2-1.5c-.2-1.8,0-2.1,2.6-3.9,1.1-.8,1.8-1.5,2-2.3.2-1.3.9-1.4,3.1-.5,1.4.5,1.7.5,3.7,0,2.3-.7,2.9-.5,4.2.9.8.9,1.5,1,4.5.3s2.4-.4,3.6.2c1.3.6,1.5.6,5.4-.3,7.5-1.7,6.9-1.5,8.1-3.9,1-2.1,1.1-2.2,2.6-2.1.8,0,2.6.2,3.9.3l2.3.3,2.1-2.3,2-2.3h2.8c1.5,0,3.4-.3,4.3-.6,1.4-.5,2-.5,4.7,0l3.1.6,2.6-1.6c1.8-1.2,3.2-2.4,4.6-4.2,1.1-1.4,2.1-2.6,2.3-2.6s.9,1,1.5,2.3c1,2,1.4,2.4,3.6,3.5s2.5,1.4,2.6,1.6c.1.2.5,1.5.7,2.9.7,3.9.8,4.2,1.1,4.2s2.8-1.9,5.9-4.1c4.4-3.3,6.9-4.9,12.2-7.5,8-4,7.3-3.6,11.8-7.3l3.7-3,3.8.2,3.8.2,1.2-1.3,1.1-1.3,3.1.8c1.7.5,3.3.9,3.7,1,.4.1,1.2-.7,2.4-2.2l1.8-2.3,7.2.3,7.2.3,3-3.7c3.1-3.8,3.4-3.9,7.1-4.7,1.1-.2,1.4-.6,2.2-2.4,1-2.4,1.2-3.6.5-5.2-.4-1-.5-1.1-2.2-.9l-1.7.2-1.3-2.6c-.7-1.5-1.3-2.8-1.3-3s.9-.8,1.9-1.3c2.5-1.3,4.7-4.6,7.1-10.7l1.7-4.5-1.4-3.7-1.4-3.7.7-6.2c.7-6.1.7-6.2,0-7.3-1.5-2.1-4.3-7.8-4.3-8.6s.3-1.3.6-1.9c.4-.7.7-2.9.8-6l.3-4.9-2.1-1.6c-1.7-1.3-2.4-1.6-3.4-1.5h-1.2c0,.1-.8-3.3-.8-3.3l-.8-3.4-1.5.2c-1.2.2-1.5.1-2.1-.7-.5-.8-.5-1.1-.2-2,.2-.6.9-3,1.5-5.3l1-4.2,3.4-2.1,3.4-2.2v-1.8c-.2-1.7-.1-1.9,2.1-4.3l2.3-2.5-.9-1.1c-.8-.9-1-1.7-1.2-4.5-.1-1.9-.4-3.5-.5-3.7-.2-.1-2.4-.4-5-.5-4.7-.3-4.8-.3-5.9-1.5-.6-.7-1.1-1.5-1.1-1.8s.8-1.4,1.7-2.3c1.3-1.3,1.7-2,1.7-2.9,0-1.5,2.9-14.2,4.9-21.8.8-3.2,2.3-7.5,3.3-9.7l1.8-4-1.4-6.4c-.8-3.5-1.3-6.7-1.2-6.9.1-.3,2.8-2.8,5.9-5.5,3.1-2.7,6.3-5.5,7-6.2l1.4-1.2-1.7-5.8c-1.4-4.9-1.6-6-1.3-7.2.3-1.5.4-1.5,2.1-1.4,2.6.2,3-.6,3.4-6.9.3-4.2.2-5.1-.2-5.7-.8-.8-.7-1.1.4-3.6,1.1-2.4,1-2.4,3.6-.3l1.6,1.3,2.1-1c3.1-1.5,6.5-5.7,8.3-10.3.8-2,1.4-3.8,1.4-3.9s-1.6-2.8-3.5-5.9c-3.1-4.8-3.8-5.6-5.1-6.2-1.3-.6-1.9-1.2-3.4-3.9-4.1-7.2-5.2-9-6.3-10.3l-1.1-1.3-2.4.7c-2.7.8-2.7.8-3.4-2.3-.4-1.5-.4-2.3,0-3,.2-.5.3-1,0-1.2s-.4-1.4-.5-2.6v-2.3c-.1,0-2.1-1.1-2.1-1.1-1.8-1-2-1.2-2.8-3.4-.8-2.3-.8-2.5-.2-4.1.8-2.3.8-2.6-1-4.7-.8-1.1-1.5-2.3-1.5-2.8,0-1.2-3.3-3.7-4.5-3.4-.6.2-.9,0-1.1-.5-.2-.5-1.1-1-2.8-1.6-4.6-1.5-4.7-1.6-4.7-4s.1-2.2,1-2.6c.5-.2,1-.6,1-.8s-2.9-4.5-4-5.9c-.4-.5-6.7-1.9-7-1.6s-.6.2-.9-.2c-.8-1-1.5-.7-3.7,1.3q-2,1.9-4.6,1.9c-2.9,0-4.3-.3-4.3-.8s.3-1.3.6-2.5c.5-1.8.9-2.3,2.9-3.7,2.6-1.8,2.6-2,3.8-8.3l.8-4.4-1-2.6-1-2.6-3.9.3c-3.6.2-3.9.3-4.7,1.2l-.9,1-.8-1c-.5-.5-1.6-1.8-2.4-2.9l-1.6-1.9-2.1,1.6c-1.1.9-2.2,2-2.3,2.5-.5,2.3-.4,2.7,1.3,3.8,1.3,1,1.6,1.3,1.6,2.4s-.2,1.4-.3,1.5c-.2.1-1.6.3-3.1.5-1.5.2-2.9.5-3,.7-.2.2-.5,1.5-.7,3.1-.3,1.8-.7,3.2-1.4,4.2-1.1,1.6-1.2,2.1-.6,2.1s.7-.6,1-1.3c.7-1.4,2-2,1.5-.7s-.6,1.8-.2,2.4c.3.5.6.4,2.2-.5,1.9-1,1.9-1,3.7-.5,2.3.8,2.6,1.6,2.5,6l-.2,3.4-1.8,1.6-1.7,1.6h-4.7c-3,.2-5.3,0-6.2-.2-1.2-.4-1.5-.3-2.5.3-.9.6-1.5.7-2.8.6-.9-.1-1.9-.4-2.1-.6-.8-.6-.6-2.5.3-3.9.6-1,.7-1.3.3-1.5-.3,0-1.6-.5-2.9-1-1.3-.5-3.3-1.5-4.4-2.3-1.9-1.4-2-1.6-2.5-4-.3-1.4-.7-2.8-.9-3.1-.2-.3-1.3-.6-2.3-.8-1.7-.2-1.9-.2-2.9.9-1,1.2-2.1,1.5-4.6,1s-5.8-4.4-5.8-5.2.7-1.1,1.5-2l1.5-1.6-1.1-1.7c-.7-.9-1.1-1.9-1.1-2.2s.8-.8,1.7-1.3,1.7-1,1.7-1.3-.6-1.8-1.3-3.6c-.7-1.7-1.3-3.5-1.3-3.9s.8-1.5,1.8-2.4c1.2-1.1,1.7-1.8,1.4-2-.4-.4-9.3-4.4-14.4-6.4-1.8-.7-3.6-1.5-4-1.7s-2.2-.8-4-1.4l-3.2-1-3.2,1.6c-2.5,1.3-3.5,1.6-4.8,1.5-1.6-.1-1.7-.2-2.8-2.7-.9-2-1.6-2.3-3.1-1.3-1.9,1.4-2,1.4-3.2.4-1-.8-1.5-1-4.9-1h-3.8c0-.1-1-2.9-1-2.9-1-2.6-1-2.9-.6-4.5.6-2.2.3-2.6-3.3-3.4-3.3-.8-5.7-.8-7.4,0ZM275.6,273.2c2.3.4,4,1,4.3,1.3.2.3.5,2,.7,3.8l.3,3.1-1.3,1.1c-3.2,2.7-7,3.4-8.6,1.6-.7-.8-1.3-1-2.8-1s-2-.2-2.1-.5c-.3-.7.5-2.6,1.5-3.6.8-.9.7-1.5-.7-2-.6-.2-.9-.7-1-1.5-.2-1.4.3-2.1,2.2-2.9s1.5-.5,7.7.7ZM270.1,289.5c0,.4-.2.9-.4,1-.6.3-1.3-.5-1-1.1.3-.9,1.4-.8,1.4.1Z"/>
    <path class="cls-3" d="M188.8,389.5c-1,.9-1.8,1.9-1.8,2.3s-.2.7-.7.6c-.8,0-5,2.8-5,3.4s-.4.6-.8.7c-.5.2-1.8,1.1-2.9,2.1l-2,1.8,1.6,2c.8,1.1,1.8,2,2,2s1.6-1.1,3.1-2.4c2.9-2.6,6.8-5.6,11.2-8.5,1.5-1,2.8-2.1,2.8-2.3s-.5-1-1.1-1.7c-.8-1-1.4-1.3-2.8-1.5-1.6-.2-1.9,0-3.5,1.4Z"/>
  </g>
</svg>