<?xml version="1.0" encoding="UTF-8"?>
<svg id="_레이어_2" data-name=" 레이어 2" xmlns="http://www.w3.org/2000/svg" version="1.1" viewBox="0 0 1589.8 540.2">
  <defs>
    <style>
      .cls-1 {
        isolation: isolate;
      }

      .cls-2 {
        fill: indigo;
        stroke-width: 0px;
      }

      .cls-3 {
        fill: none;
        stroke: indigo;
        stroke-miterlimit: 10;
        stroke-width: 30px;
      }
    </style>
  </defs>
  <rect class="cls-3" x="15" y="15" width="510.2" height="510.2" rx="141.7" ry="141.7"/>
  <g class="cls-1">
    <g class="cls-1">
      <g class="cls-1">
        <g class="cls-1">
          <path class="cls-2" d="M619.4,398.5v-192.6h-71.9v-25.8h173.1v25.8h-72.2v192.6h-29Z"/>
          <path class="cls-2" d="M735.8,292.2c0-36.2,9.7-64.6,29.2-85.1s44.6-30.8,75.4-30.8,38.3,4.8,54.5,14.4c16.2,9.6,28.5,23.1,37,40.3s12.7,36.8,12.7,58.6-4.5,41.9-13.4,59.4-21.6,30.7-38,39.7-34.1,13.5-53,13.5-38.9-5-55.1-14.9c-16.2-9.9-28.4-23.5-36.8-40.7-8.3-17.2-12.5-35.3-12.5-54.5h0ZM765.6,292.6c0,26.3,7.1,47,21.2,62.2,14.1,15.1,31.9,22.7,53.2,22.7s39.6-7.6,53.7-22.9c14-15.3,21.1-37,21.1-65.1s-3-33.3-9-46.5c-6-13.3-14.8-23.5-26.4-30.8-11.6-7.3-24.5-10.9-38.9-10.9-20.5,0-38.1,7-52.8,21.1s-22.1,37.5-22.1,70.4v-.2Z"/>
          <path class="cls-2" d="M980.7,398.5v-218.3h28.9v108.3l108.4-108.3h39.2l-91.6,88.5,95.6,129.9h-38.1l-77.7-110.5-35.7,34.8v75.7h-29Z"/>
          <path class="cls-2" d="M1246.8,398.5v-92.5l-84.1-125.8h35.1l43,65.8c7.9,12.3,15.3,24.6,22.2,36.9,6.6-11.4,14.5-24.3,23.8-38.6l42.3-64.2h33.7l-87.1,125.8v92.5h-28.9Z"/>
          <path class="cls-2" d="M1379.9,292.2c0-36.2,9.7-64.6,29.2-85.1s44.6-30.8,75.4-30.8,38.3,4.8,54.5,14.4c16.2,9.6,28.5,23.1,37,40.3s12.7,36.8,12.7,58.6-4.5,41.9-13.4,59.4-21.6,30.7-38,39.7-34.1,13.5-53,13.5-38.9-5-55.1-14.9-28.4-23.5-36.8-40.7c-8.3-17.2-12.5-35.3-12.5-54.5h0ZM1409.7,292.6c0,26.3,7.1,47,21.2,62.2,14.1,15.1,31.9,22.7,53.2,22.7s39.6-7.6,53.7-22.9c14-15.3,21.1-37,21.1-65.1s-3-33.3-9-46.5c-6-13.3-14.8-23.5-26.4-30.8s-24.6-10.9-38.9-10.9c-20.5,0-38.1,7-52.8,21.1-14.7,14.1-22.1,37.5-22.1,70.4v-.2Z"/>
        </g>
      </g>
    </g>
  </g>
  <g>
    <path class="cls-2" d="M296.5,53.1c0,.7-.1.9-.4,1-.2,0-.5.3-.6.6s-.3.5-.6.6c-.2,0-.4.2-.4.4s-.2.2-.3.2-.3,0-.3.2-.2.3-.6.4c-.3,0-.6.2-.6.3s-.1.2-.2.2-.6.3-1,.8c-.4.4-1,.8-1.3.9-.3,0-.8.4-1,.7-.5.5-1.2.5-1.2,0s-.5-.2-1-.2-1.1-.1-1.3-.3c-.2-.2-.6-.3-.9-.3-.5,0-.5.1-.6,1.2v1.2c0,0-2,0-2,0-2.7,0-2.7,0-2.7.5s0,.4-.2.4-.2.5-.2,1.1-.1,1.1-.3,1.2c-.2,0-.2.1,0,.1.2,0,.3.3.3.8s0,.8.2.8.2.4.3.9c.1.7.2.9.6.9s.5.2.6.4c0,.2.3.5.6.6.6.2,2.8,2.4,2.8,2.8s.2.4.4.5c.2,0,.5.4.6.8,0,.4.5,1,.9,1.4.4.4.8.8.8,1s0,.2.2.2.3.2.4.4c0,.2.3.5.6.6.2,0,.5.3.6.6,0,.2.3.5.6.6.2,0,.5.4.6.7,0,.3.2.5.3.5s.2.4.2.8.1.8.2.8.2-.1.2-.2.2-.2.6-.2c.4,0,.6.1.6.6s0,.6-.2.6-.2.2-.2.4-.2.5-.3.6c-.2,0-.3.3-.3.6s-.2.5-.4.6c-.2,0-.4.3-.4.5s-.2.6-.6.8c-.3.2-.6.5-.6.7s-.2.5-.5.8-.6.7-.7,1c0,.2-.4.5-.6.6s-.5.3-.6.6-.3.5-.6.6c-.2,0-.5.4-.6.7,0,.3-.2.5-.3.5s-.2.2-.2.4.1.4.2.4.2.4.2.9,0,.9-.2.9-.2.2-.2.5c0,.6-.4,1-1.4,1.2-.6.1-.8.3-.8.6s-.2.4-1.8.5c-1.1,0-1.9.2-1.9.4,0,.2-.2.3-.4.3s-.3,0-.3.2-.4.3-.8.4c-.5,0-.8.3-.9.6,0,.2-.3.5-.6.5-.2,0-.5.4-.6.7,0,.3-.2.5-.3.5s-.2.2-.2.4,0,.4-.2.4-.2.1-.2.3c0,.4-.6,1-.9,1s-.2-.2-.2-.6-.1-.6-.3-.6-.3,0-.3.2-.2.2-.3.2-.3,0-.3.2-.3.2-.7.3c-.4,0-.9.3-1.1.6-.2.2-.6.5-1,.6-.3,0-.6.2-.6.4s-.2.2-.6.2-.6,0-.6.2c0,.2-1.8.5-2.3.3-.4-.1-.5-1-.2-1s.3-1.4.4-3.1c0-1.7.2-3.1.4-3.1s.2-.4.2-.8,0-.8-.2-.8-.3-.2-.3-.5c0-.3-.3-.6-.6-.7-.2,0-.5-.3-.6-.6,0-.2-.4-.5-.6-.6s-.6-.3-.8-.6c-.2-.2-.7-.5-1.1-.6-.4,0-.7-.2-.7-.3s-.6-.2-1.4-.2-1.4,0-1.4.2-.4.3-.8.4c-.5,0-.8.3-.9.6,0,.2-.3.4-.6.4s-.5.2-.6.3c0,.2-.3.3-.6.3s-.6.2-.8.3c-.2.2-.6.3-.9.3s-.5,0-.5.2-.4.2-.8.2-.8,0-.8.2-.4.2-.9.2-.9-.1-.9-.2c0-.3-1.5-.3-1.6,0s-.1-.7-.1-1.9c0-1.3-.1-2.2-.2-2.2s-.2,0-.2-.2c0-.4-.8-1.1-1.2-1.1s-.4-.1-.4-.2-.1-.2-.3-.2-.4-.1-.4-.2c0-.2-1.6-.3-4.7-.3-3.4,0-4.7-.1-4.7-.3,0-.2-.6-.3-1.7-.3s-1.6,0-1.6-.2-.7-.2-1.5-.3c-.8,0-1.5-.2-1.6-.4,0-.1-.3-.2-.6-.2s-.5,0-.5-.2-.2-.3-.6-.3c-.3,0-.6-.2-.6-.4s-.1-.2-.2-.2-.6-.4-1-.8c-.4-.4-.8-.8-1-.8s-.7-.5-1.3-1.1c-.6-.6-1.3-1.2-1.6-1.2-.2,0-.5-.4-.6-.6,0-.2-.4-.5-.6-.6-.3,0-.7-.4-1-.7s-.7-.5-.8-.5-.3-.1-.3-.2c0-.3-.4-.3-.8.1-.2.2-.6.3-.9.3s-.5-.1-.5-.6,0-.6-.2-.6-.3-.2-.3-.5c0-.3-.3-.6-.6-.7-.2,0-.4-.2-.4-.4s-.2-.2-.3-.2-.3,0-.3-.2-.5-.3-1.1-.4c-.6,0-1.1-.2-1.1-.4s-1.1-.2-2.4-.2-2.4,0-2.4.2-.3.3-.7.4c-.4,0-.7.2-.7.4s-.2.2-.4.2-.5.2-.6.8c-.2.9-.7,1.2-1.1.7-.3-.4-3.2-.5-3.2-.1s-1.5.2-4,.2-4,0-4-.2-.4-.2-1-.2-1,0-1-.2-.5-.3-1.2-.3c-.6,0-1.2-.3-1.4-.4-.2-.2-.2-.2-.3,0-.1.3-1.8.4-1.8,0s-2-.2-5.5-.2-5.5,0-5.5-.2-.6-.2-1.3-.2-1.3,0-1.3.2-.4.2-.8.2-.8,0-.8.2-.7.2-1.6.3c-1.3,0-1.7.2-2.1.5-.2.3-.6.5-.9.6-.3,0-.5.3-.5.4s-.2.2-.3.2-.3,0-.3.2-.2.3-.5.4c-.3,0-.8.5-1.2.9-.7.7-1.4,1-1.4.5s-.2-.2-.3-.2-.3,0-.3.2-.1.2-.2.2-.4.2-.6.3c-.5.6-.8.3-.9-.8,0-.8-.2-1-.5-1.2-.2,0-.4-.2-.4-.4s-.2-.2-.6-.2-.6,0-.6.2-.5.2-1.1.3c-.6,0-1.1.2-1.1.4s-.1.2-.2.2c-.5,0-.8.7-1,2,0,.7-.2,1.4-.3,1.4s-.2.4-.2.8,0,.8-.2.8-.3.2-.3.6c0,.3-.2.6-.4.6s-.2.2-.2.3.1.3.2.3.2.2.2.3-.2.3-.4.3-.4,0-.4.2-.2.2-.3.2-.3.2-.3.3,0,.3-.2.3-.2.2-.3.5c0,.4-.2.5-.7.6-.4,0-.6.2-.6.3s-.5.2-1,.2c-.9,0-1.6.4-1.6.8s-.6.7-1.1.9c-.7.2-1.6,1.1-1.6,1.7s.1.4.2.4.2.2.2.6,0,.6-.2.6-.2.2-.2.5c0,.5-.7,1.3-1.1,1.3s-.2,0-.2.2-.5.2-1.1.2-1.1,0-1.1.3,0,.3-.2.3-.2.2-.2.3,0,.3-.2.3-.2.4-.3,1c-.1,1-.8,2-1.7,2.2-.2,0-.5.4-.6.6,0,.3-.3.6-.6.8-.5.4-.6,1.9-.2,2,.2,0,.2.2-.1.5-.2.2-.4.6-.4.9s0,.5-.2.5-.2,1-.2,2.6,0,2.6-.2,2.6-.2.2-.2.6.1.6.2.6.2.1.2.2.2.4.3.6c.4.4.4,1.3,0,1.7-.2.2-.3.4-.3.6s0,.2-.2.2-.2.8-.3,1.8c0,1-.2,1.9-.4,1.9-.1,0-.2.5-.2,1s0,.9-.2.9-.2.4-.2.8v.8h-6.2v-1c0-.7-.1-1-.3-1.1-.2,0-.3-.5-.3-1.8s0-1.7-.4-1.7-.4-.1-.4-.2-.5-.2-1.1-.2-1.1,0-1.1.2-.4.2-.9.2-1,.2-1.2.3c-.5.5-1.2.4-1.3-.2,0-.3-.3-.6-.5-.6-.4,0-1.9,1.5-1.9,1.8s-.6.8-1,.8-.6-.2-.7-.4c-.2-.2-.4-.4-.6-.4s-.3-.2-.3-.3,0-.3-.2-.3-.3-.2-.4-.6c-.1-.5-1-.8-1-.4s-.3.3-.6.4c-.3,0-.7.3-.8.4,0,.2-.3,0-.7-.4-.6-.6-1.5-.8-1.5-.3s0,.3-.2.3-.2.2-.2.4,0,.4-.2.4-.3.2-.3.6c-.2.8-.6.7-.6-.2s-.1-.8-.3-.8-.3,0-.3.2-.4.3-.8.3c-.4,0-.8.2-.8.4,0,.3-.9.3-1.2,0-.3-.3-.5-1.8-.4-3,0-.3.2-.5.5-.6.2,0,.5-.3.6-.6,0-.2.4-.5.6-.6.3,0,.7-.4,1-.7.3-.3.7-.5.8-.5s.3-.1.3-.2.1-.2.3-.2.4-.1.4-.2c0-.1.6-.3,1.2-.3,1,0,1.8-.5,1.8-.9s-.4-.2-1-.3c-.6,0-1-.2-1-.3s-.4-.2-.9-.2-.9,0-.9-.2-.8-.3-1.7-.4c-.9,0-1.7-.2-1.7-.4s-.2-.2-.5-.2c-.8,0-1.1-.5-1.1-1.8v-1.1h-.9c-.5,0-.9-.1-.9-.2,0-.3-.9-.3-1.2,0-.2.2-.3.6-.4.8,0,.5-.2.5-1.1.4-.6,0-1-.2-1.1-.3,0-.1-.2-.2-.4-.2s-.3,0-.3-.2-.5-.3-1-.4c-.6,0-1.1-.3-1.2-.4-.2-.4-.6.2-.6.9s-.1.5-.4.5-.5.2-.6.9c0,.5-.2.9-.3.9s-.2.2-.2.5c0,.8-.5,1.1-1.7,1.1s-1.2.1-1.6.4c-.5.4-.7,1.4-.3,1.4s.2.2.2.6-.1.6-.3.6-.3,0-.3.2-.4.3-1,.4h-1v1.2c0,1.2-.3,1.4-1,.8-.4-.4-.8-.4-.8-.1s-.4.2-1,.2c-1.5,0-1.7.1-1.8,1.4,0,.6-.2,1.1-.3,1.1s-.2.2-.2.4,0,.4-.2.4-.3.2-.3.6c-.1.5-.2.6-1.9.6s-1.7,0-1.6.6c0,.3.2.6.2.6s.3,0,.5.2c.3.2.2.3-.2.6-.4.3-.8.5-1.6.5s-1.1,0-1.1.5c0,.3-.2.5-.6.6-1,.2-1.5,1.1-.8,1.7.2.2.3.6.3.9,0,.6-.9.9-2.4.7-.8-.1-1,0-1.1.2,0,.2-.4.4-.7.4s-.5,0-.5.2-.2.3-.4.4c-.2,0-.5.3-.6.6-.1.4-1,.6-1,.2s-.2-.2-.3-.2-.3-.1-.3-.2c0-.2-.6-.9-.8-.9s0,4.3.2,4.9c.1.3.5.8.7,1,.3.2.5.6.5.8s.1.4.2.4.2.1.2.2.2.4.3.6c.2.2.3.6.3.9s.1.5.2.5.2.1.2.2.2.5.6.8c.5.4.6.7.6,1.8s0,1.2.2,1.2.3.2.4.6c0,.3.2.6.3.6s.2.2.2.3.1.3.2.3.2.7.2,1.6c0,1.5,0,1.6-.6,1.6s-.6,0-.4.6c0,.4.2.6.4.7.1,0,.2.3.2.5s.1.4.2.4c.3,0,.3.4,0,.8-.2.2-.8.3-1.3.3h-1v.9c0,.5,0,.9.2.9s.3.4.4.9c0,.5.2.9.3.9s.2.4.2,1,0,1,.2,1.1c0,0,.2,1.8.3,3.9,0,3.1,0,3.9-.2,4-.2,0-.3.3-.3.5s0,.4-.2.4c-.4,0-.2,1.6.2,2,.2.2.5.6.6.8,0,.3.4.6.6.6.4.1.5.6.4,1.6,0,.2-.1.5-.2.5s-.2.3-.2.6,0,.5-.2.5-.2.3-.2.6-.2.8-.3,1c-.2.2-.3.5-.3.8s0,.5-.2.5-.2.4-.3.9c0,.5-.2.9-.4.9s-.2.2-.2.6,0,.6-.2.6-.3.5-.4,1.1c0,.6-.2,1.1-.3,1.1s-.2.5-.2,1.1-.1,1.1-.2,1.2c-.4.1-.4,2.4,0,2.6.3.1.4.7,0,.7s-.3,1.3.1,1.7c.2.2.8.4,1.3.5.5,0,1,.2,1,.3s.2.2.6.2.6,0,.6.2.5.3,1.1.4c.6,0,1.1.2,1.1.4s.2.2.3.2.3,0,.3.2.5.3,1.1.4c.6,0,1.1.2,1.1.4s.2.2.4.2.4,0,.4.2.3.3.6.3c.3,0,.9.5,1.3.9.4.4.8.8.9.8s1,.9,2.1,2c1.1,1.1,2.1,2,2.3,2s.4.2.6.4c.2.2.6.5.9.6.3,0,.6.2.6.4s.2.2.4.2.5.2.6.3c0,.2.3.3.6.3s.5.2.6.4c0,.3.4.5.9.6.4,0,.8.2.8.4s.2.2.3.2.3,0,.3.2.2.2.4.2.5.2.6.3c0,.2.3.3.4.3s.6.3,1,.8c.4.4.9.8,1.2.9.3,0,.6.4.6.6s.4.5.6.6c.5.2,1,.6,1,.9s.7,1,1.4,1.6l.6.6c.5.5.9.8,1.2.8s.2,0,.2.2.2.3.6.4c.4,0,.6.3.6.6s.1.4.2.4.2.2.2.3,0,.3-.2.3-.2.2-.2.3,0,.3-.2.3-.3.4-.3.8c0,.4-.2.8-.4.8s-.2.2-.2.3,0,.3-.2.3-.3.4-.3.8c0,.4-.2.8-.4.8s-.2.1-.2.3-.1.4-.3.4c-.2,0,0,.3.3.6.7.7.8.9,0,.9s-.8.3-.8,2.8,0,2.1-.4,2.1c-.8,0-1.1.3-1.1.8s0,.5-.2.5-.2.2-.2.4c0,.5-.9,1.3-1.1,1-.1-.4-1.6-.3-2,0-.4.4-.4,1.9,0,1.9s.2.2.2.4.2.4.3.4.3.2.3.3.2.3.3.3.6.2.9.6c.3.3.6.6.8.6s.2,0,.2.2.2.3.4.4c.2,0,.5.3.6.6,0,.2.3.5.6.6.2,0,.5.3.6.6,0,.2.3.5.6.6.7.2.7.8.1,1.4-.3.3-.6.6-.6.7s-.2.2-.3.2-.3,0-.3.2-.2.2-.3.2-.3,0-.3.2-.2.2-.4.2c-.4,0-.4.2-.4.7s0,.7,1,.7,1,0,1.1.5c0,.3.2.5.6.6.6,0,.7.9,0,.9s-.4.2-.4.3.1.3.2.3.2.5.2,1.1,0,1.1.2,1.2c.1,0,.3.4.4.8v.7c.1,0-2.3.2-2.3.2-1.3,0-3.4.1-4.6,0-1.8-.1-2.2,0-2.2.2s.2.3.3.3.3,0,.3.2.2.2.3.2.3.1.3.2.4.6.8,1c1.1,1,1,1.7-.1,2.8l-.9.8v2c0,1.6,0,2.1.3,2.2.2,0,.3.3.3.6,0,.4-.2.4-.9.4s-1.6,0-2.5.2c-1.2.1-1.5.2-1.5.5s.2.5.5.6c.3,0,.6.3.8.5.2.2.6.4.8.5.3,0,.5.3.5.4s.2.2.3.2.3,0,.3.2.4.3.8.3c.4,0,.8.2.8.4s.2.2.3.2.3,0,.3.2.2.3.4.4c.3.1.5.4.6,1.5,0,.7.2,1.3.3,1.3s.2.2.2.6.1.6.2.6.2.2.2.6c0,.4.1.6.6.6s.6.1.6.4c0,.5-1.2,1.8-1.7,1.8s-.4.2-.5.5c-.2.7-.6,1-1.4,1.2-.6.1-.7.2-.7,1.1s.2,1.2,1.4,1.2.7.1.8.6c0,.3.2.6.3.6s.2.2.2.4.2.5.3.6c.3,0,.3.5.3,1.9s0,1.8.2,1.8.2.2.2.4,0,.4-.2.4-.2.5-.2,1.1.1,1.1.2,1.1.2.2.2.4c0,.6.8,1.3,1.5,1.3s1.3.6,1.4,2.3c0,.8.2,1.5.3,1.5.3,0,.2,1.6-.1,1.9-.3.3-.3,1-.3,3.2s0,2.9-.2,2.9-.2.4-.2,1q0,1-.9,1.1c-.5,0-.9.2-.9.3s-.4.2-1,.2-1,0-1-.2-.2-.2-.5-.3c-.4-.1-.7,0-1.1.5-.3.4-.5.7-.4.7s.2.2.2.6,0,.6-.2.6-.3.2-.4.5c0,.3-.4.7-.7,1-.3.3-.5.6-.5.8s-.3.5-.6.7c-.6.4-.6.5-.4,2,0,.8.2,1.6.4,1.6.1,0,.2.3.2.6s0,.5.2.5.3.4.3,1c.1.7.3,1,.6,1.1.2,0,.4.3.4.6s.2.5.3.6c.2,0,.3.3.3.4,0,.4.8,1.2,1.2,1.2s.3,0,.3.2.2.2.5.2.8.3,1.1.7c.3.4.8.7,1,.7s.3.3.3,1,.1,1,.2,1,.2.2.2.6,0,.6-.2.6-.2.1-.2.2c0,.3.6.9.9.9s.2.1.2.3.1.4.3.4c.2,0,.2.6.2,1.9,0,1.5,0,1.8.3,1.8.4,0,1,.6,1,1s-.2.4-.3.6c-.2.2-.3.5-.3.8s0,.5-.2.5-.3.4-.4.8c0,.4-.2.8-.3.8s-.2.2-.2.6c0,.5,0,.6-.8.6s-.8-.1-.9-.4c-.2-.6-.6-.6-.6,0s-.1.5-.2.5c-.4.1-.4,4.9,0,5,.2,0,.3.5.3,1.2s.1,1.1.2,1.1.4.2.6.3c.2.2.6.3.9.3s.5,0,.5.2.2.2.6.2.6,0,.6-.2.5-.3,1-.4c.7,0,1.2-.3,1.5-.6.4-.5.6-.5,2.6-.4,1.2,0,2.2.2,2.2.3s.2.2.4.2.5.2.6.3c0,.2.3.3.6.3s.4,0,.4.2.1.2.2.2.5.2.8.6c.3.3.7.6.8.6s.4.2.5.3c0,.2.3.3.6.3s.4,0,.4.2.1.2.3.2.4.1.4.2c.1.4,2,.5,2.4.1s.5-.4.6-.4.3-.1.3-.3c.1-.3,3.8-.3,3.9,0,0,.1.2.2.4.2.4,0,1.7,1.2,1.7,1.6s.2.2.3.2.3,0,.3.2.1.2.2.2.4.1.5.3c.7.7,1,.8,1.2.8s.3.1.3.3c.1.2.2.2.3,0,0-.1.4-.3.7-.3s.5-.1.5-.2.4-.2.9-.2.9,0,.9.2.2.2.3.2.3,0,.3.2.2.3.5.4c.3,0,.7.4,1,.7.5.5.7.5,1.4.4.8-.1.8,0,.8.4s.2.6.5.7c.3,0,.8.5,1.2.9.4.4.9.8,1.2.8s.5.1.5.5c0,.6.5,1.1,1.4,1.2.4,0,.9.4,1.2.7.2.3.6.5.8.5s.4,0,.4.2.2.2.6.2.6,0,.6.2.3.3.7.4c.4,0,.7.2.7.4s.2.2.4.2c.5,0,.7.4.7,1.4s1.1,2,1.6,2,.5.3.9.8c.4.4,1,.8,1.3.9.3,0,.6.3.7.4.1.2.2.2.3,0,0-.1.4-.3.7-.4.4-.1.5,0,.5.4s.2.6.3.7c.2,0,.3.3.3.6s.2.5.4.6c.2,0,.5.3.6.6,0,.2.3.5.6.6.2,0,.4.3.4.5,0,.4,1.4,1.8,1.8,1.8s.4.2.5.4c0,.2.4.5.6.6.3,0,.7.4,1,.7s.6.5.8.5.4.2.6.4c.2.2.6.5.9.6.3,0,.5.3.5.4s.2.2.3.2.3,0,.3.2.2.3.6.3c.3,0,.6.2.6.4s.2.2.3.2.3,0,.3.2.2.2.4.2c.4,0,1.2.7,1.2,1.1s0,.2.2.2.3.2.4.6c0,.3.2.6.3.6s.2.2.2.4,0,.4.2.4.3.2.3.5c0,.3.3.6.6.7.2,0,.4.2.4.4s.2.2.3.2.3,0,.3.2.2.3.6.3c.3,0,.6.2.6.4s.2.2.3.2.3,0,.3.2.2.3.5.4c.3,0,.7.4,1,.7.3.3.7.5.8.5s.3,0,.3.2.7.2,1.7.2,1.7,0,1.7.2.4.2.9.2.9-.1.9-.2.9-.2,2.4-.2h2.3l2,2c1.1,1.1,2,2.2,2.1,2.4,0,.2.4.5.6.6.2,0,.5.3.6.6,0,.2.2.4.4.4s.2.2.2.6,0,.6.2.6.3.5.4,1.1c0,.6.2,1.1.4,1.1s.2.3.2.7,0,.7.2.7.3.7.4,1.6c0,.8.2,1.6.4,1.6s.2.4.2.9,0,.9.2.9.3.5.4,1.1c0,.6.2,1.1.4,1.1s.2.4.2.8,0,.8.2.8.3.3.4.7c0,.4.2.7.4.7s.2.2.2.6,0,.6.2.6.2.6.3,1.3.2,1.3.4,1.3.2.2.2.5.1.6.2.6c.1,0,.3.6.4,1.1,0,.6.2,1,.3,1s.2.2.2.6,0,.6.2.6.2.6.3,1.3c0,.7.2,1.3.4,1.3s.2.2.2.3,0,.3.2.3.2.4.3.8c0,.5.3,1,.6,1.2.2.2.5.6.6,1,0,.4.3.8.6.8.2,0,.5.3.6.6.2.6,1.3,1.7,1.7,1.7s.4.2.5.4c0,.2.3.4.5.4s.6.2.8.6c.2.3.7.6,1.1.7.4,0,.8.3.8.5,0,.2.4.5.9.5.4,0,.8.2.8.4s.2.2.6.2.6,0,.6.2.2.3.6.3c.3,0,.6.2.6.4s.2.2.3.2.3,0,.3.2.2.3.5.4c.3,0,.8.5,1.2.9.4.4.9.8,1,.8s.4.1.4.3c0,.2,1,.3,2.9.4,1.7,0,2.8.2,2.9.4.1.2.2.2.3,0,0-.2.5-.4.9-.4.6-.1.7,0,.7.2s.2.4.3.4.3,0,.3.2.4.3.8.4c.4,0,.8.2.8.3s.2.2.6.2.6,0,.6.2.2.3.5.3c.3,0,.6.3.7.6,0,.2.3.4.5.4.5,0,2.7,2.3,2.9,3,0,.3.2.6.3.6s.2.6.2,1.3,0,1.3-.2,1.3-.2.2-.2.5-.2.7-.3.8c-.6.5-.9.8-1.2,1.1l-.6.6c-.4.4-.8.9-.8,1.1,0,.3-2,2.1-2.3,2.1s-.4.2-.5.4c0,.2-.2.4-.4.4s-.2.1-.2.3-.1.4-.3.4c-.2,0-.3.8-.3,2.4s0,2.3.3,2.4c.1,0,.3.4.3.6s0,.5.2.5.3.3.4.6c0,.3.3.8.6.9.2.2.4.4.4.6,0,.4,1,1.4,1.4,1.4s.4.2.6.4c.2.2.6.5.9.6.3,0,.6.2.6.4s.2.2.5.2.6.1.6.3c0,.2.7.3,2.1.3s2.1,0,2.5-.6c.4-.4.5-.5.7-.2.1.2.2.4.2.5,0,.3,2.2.2,2.2,0s.4-.2.8-.2.8,0,.8-.2.6-.3,1.4-.4c.8,0,1.4-.2,1.4-.4s.4-.2,1-.2,1,0,1-.2.4-.2.9-.3c.5,0,.9-.2.9-.4s.2-.2.3-.2.3-.1.3-.2.2-.2.4-.2,1.4-1,2.7-2.3c1.3-1.3,2.4-2.3,2.6-2.3s.4-.2.6-.4c.2-.2.6-.5.9-.6.3,0,.5-.3.5-.4s.1-.2.3-.2.4-.1.4-.3c.1-.3,4.7-.3,4.8,0,0,.1.2.2.4.2s.3,0,.3.2.2.2.3.2.8.5,1.4,1.1c.9.9,1.3,1.2,2,1.2.8.1,1,0,1.9-.9.6-.6,1-1.1,1-1.3s0-.2.2-.2.3-.2.4-.6c0-.3.2-.6.3-.6s.2-.2.2-.3c0-.4.8-1.2,1.2-1.2s.4-.1.4-.3c.2-.4,4.1-.4,4.4,0,.1.2.2.2.2,0s.2-.3.6-.4c.5,0,.6,0,.6.4s.4.8,1.4.8.6,0,.6.2.6.2,1.4.2,1.4,0,1.4-.2.5-.3,1.1-.4c.6,0,1.1-.2,1.1-.4s.6-.2,1.3-.2,1.3,0,1.3.2,1.5.2,3.3.3c3.1,0,3.4,0,3.8.6.2.3.7.6,1.1.6.4,0,.8.3.8.5,0,.2.4.4.8.5.4,0,.8.3,1,.6.2.2.7.5,1.1.6.4,0,.7.3.7.4s.2.2.4.2.5.2.6.3c0,.2.3.3.6.3s.4,0,.4.2.2.2.3.2.3,0,.3.2.4.3.8.4c.4,0,.8.2.8.3s.2.2.3.2.3,0,.3.2.2.3.6.4c.3,0,.6.2.6.3s.1.2.2.2.4.1.5.3c.7.7,1,.8,1.2.8s.2,0,.2.2.2.3.5.4c.3,0,.6.3.8.5.2.2.6.4.8.5.3,0,.6.4.6.6,0,.2.3.4.6.4s.5.2.6.3c0,.2.3.3.5.3s.4.2.5.3c0,.2.3.3.6.3s.5.2.6.4c0,.2.4.5.6.6.3,0,.7.4,1,.7s.6.5.8.5.4.2.6.4c.2.2.6.5.8.6.3,0,.6.4.6.6,0,.2.3.4.6.4s.5.2.6.3c0,.2.3.3.5.3s.4.2.5.3c0,.2.3.3.6.3s.5.2.6.4c0,.2.4.5.6.6.3,0,.7.4,1,.7.3.3.6.5.8.5s.4.2.6.4c.2.2.6.5.9.6.3,0,.5.3.5.4s.1.2.2.2.5.2.8.6c.3.3.7.6.8.6s.4.2.5.3c0,.2.3.3.6.3s.5.2.6.4c0,.2.4.5.6.6s.6.3.8.6c.2.2.5.4.6.4s.5.3.8.6c.4.4.9.6,1.6.7.7,0,1,.2,1,.4,0,.4,1.4,1.8,1.8,1.8s.4.2.5.4c0,.2.3.4.6.4s.5.2.6.3c0,.2.3.3.5.3s.4.2.5.3c0,.2.3.3.6.3s.5.2.6.4c0,.2.2.4.4.4s.2.4.2.9,0,.9.2.9.2.6.3,1.4c0,.8.2,1.4.4,1.5.2,0,.3.3.3.5s0,.4.2.4.3.2.3.5c0,.3.3.6.6.7.2,0,.4.3.4.5s.2.6.6.8c.3.2.6.5.6.7s.2.5.5.8c.3.3.6.7.7,1,0,.2.4.5.6.6.2,0,.4.3.4.5,0,.3,1.8,2.3,2.1,2.3s.3.1.4.3c.7.6,1,.8,1.2.8s.2,0,.2.2.2.3.5.3c.3,0,.7.4.9.7.2.3.6.5.8.5s.5.2.5.4c0,.2.3.4.5.4s.6.2.8.5c.2.3.6.6.9.7.3,0,.5.2.5.3s.1.2.2.2.4.1.5.3c.7.7,1,.8,1.2.8s.2,0,.2.2.7.2,1.7.2,1.7,0,1.7-.2.2-.2.3-.2.3,0,.3-.2.2-.3.4-.4c.2,0,.5-.3.6-.6,0-.2.3-.4.5-.4s.8-.5,1.4-1.1c.6-.6,1.2-1.1,1.3-1.1s.5-.3.9-.7c.4-.4.8-.7,1-.7s.4-.2.5-.4c0-.2.4-.5.8-.6.4,0,.8-.3,1-.6.2-.2.6-.5.9-.6.3,0,.5-.3.5-.4s.2-.2.3-.2.3,0,.3-.2.2-.3.6-.3c.3,0,.6-.2.6-.4s.2-.2.3-.2.3-.1.3-.2.2-.2.4-.2.5-.2.6-.3c0-.2.3-.3.6-.3s.4,0,.4-.2.2-.3.6-.3c.3,0,.6-.2.6-.4s.2-.2.3-.2.3,0,.3-.2.4-.2.9-.3c.5,0,.9-.2.9-.4s.2-.2.4-.2.4,0,.4-.2.4-.2.9-.3c.5,0,.9-.2.9-.4s.2-.2.6-.2.6,0,.6-.2.4-.3.9-.4c.5,0,.9-.2.9-.3s.2-.2.6-.2.6,0,.6-.2.4-.3,1-.3c.6,0,1-.2,1-.4s.3-.2.7-.2.7,0,.7-.2.7-.3,1.6-.4c.9,0,1.6-.2,1.6-.4s.2-.2.6-.2.6,0,.6-.2.8-.3,1.8-.4,1.8-.2,1.8-.4.4-.2,1-.2,1,0,1-.2,1-.3,2.2-.4c1.2,0,2.2-.2,2.2-.4s.5-.2,1.1-.2,1.1,0,1.1-.2,1-.3,2.3-.4c1.3,0,2.3-.2,2.3-.4s.5-.2,1.1-.2,1.1,0,1.1-.2,1-.3,2.2-.4c1.2,0,2.2-.2,2.2-.4s.5-.2,1.1-.2,1.1,0,1.1-.2,1.1-.3,2.4-.4c1.4,0,2.4-.2,2.4-.4s.5-.2,1.1-.2,1.1,0,1.1-.2,1-.3,2.2-.4c1.2,0,2.2-.2,2.2-.4s.5-.2,1.1-.2,1.1,0,1.1-.2,1.1-.3,2.4-.4c1.4,0,2.4-.2,2.4-.4s.6-.2,1.2-.2,1.2,0,1.2-.2,1-.3,2.2-.4c1.2,0,2.2-.2,2.2-.4s.6-.2,1.3-.2,1.3,0,1.3-.2,1-.3,2.2-.4c1.2,0,2.2-.2,2.2-.4s.5-.2,1.1-.2,1.1,0,1.1-.2,1.1-.3,2.4-.4c1.4,0,2.4-.2,2.4-.4s.2-.2.6-.2.6,0,.6-.2.3-.3.7-.4c.4,0,.7-.2.7-.4s.2-.2.4-.2.4,0,.4-.2.3-.3.7-.4c.4,0,.7-.2.7-.4s.2-.2.4-.2.4,0,.4-.2.3-.3.7-.4c.4,0,.7-.2.7-.4s.2-.2.4-.2.4,0,.4-.2.3-.3.7-.4c.4,0,.7-.2.7-.4s.2-.2.3-.2c.4,0,1.6-1.1,1.8-1.8,0-.2.2-.5.4-.5s.2-.2.2-.3,0-.3.2-.3.3-.2.4-.6c0-.3.2-.6.3-.6s.2-.2.2-.4.2-.5.3-.6c.2,0,.3-.3.3-.6s.1-.4.2-.4.2-.2.2-.3,0-.3.2-.3.3-.2.4-.5c0-.3.3-.6.5-.8.2-.2.5-.6.6-.9,0-.3.4-.7.6-.9s.4-.6.5-.8c0-.3.3-.5.4-.5s.2-.2.2-.3.1-.3.2-.3.2-.2.2-.4.2-.5.3-.6c.2,0,.3-.3.3-.6s0-.4.2-.4.3-.2.3-.6c0-.3.2-.6.4-.6s.2-.2.2-.3.1-.3.2-.3c.4,0,.2-.4-.4-1.1-.3-.4-.8-.7-1-.7s-.4-.2-.5-.4c0-.2-.4-.5-.6-.6-.3,0-.8-.5-1.2-.9-.4-.4-.8-.8-1-.8s-.6-.3-1-.8c-.4-.4-.9-.8-1.2-.9-.3,0-.6-.4-.6-.6,0-.2-.3-.4-.5-.4s-.6-.3-1-.7c-.3-.4-.7-.7-.9-.7s-.6-.4-1-.8c-.4-.4-.8-.8-.9-.8s-.3-.1-.5-.3c-.7-.6-1-.8-1.1-.8s-.5-.4-.9-.8c-.4-.4-.8-.8-1-.8s-.5-.2-.8-.5c-.3-.3-.7-.6-1-.7-.2,0-.5-.4-.6-.6,0-.2-.4-.5-.6-.6-.3,0-.8-.5-1.2-.9-.4-.4-.8-.8-1-.8s-.6-.3-1-.8c-.4-.4-.9-.8-1.2-.9-.3,0-.6-.4-.6-.6,0-.2-.4-.5-.6-.6-.3,0-.7-.4-1-.7-.3-.3-.6-.5-.8-.5s-.5-.2-.7-.6c-.2-.3-.6-.6-.8-.6s-.4-.2-.5-.4c0-.2-.3-.5-.6-.6-.2,0-.4-.2-.4-.4s-.1-.2-.2-.2-.6-.4-1.1-.9-1-.9-1.1-.9c-.4,0-2.7-2.4-2.7-2.8s0-.3-.2-.3-.3-.3-.4-.6c0-.3-.3-.8-.5-.9-.2-.2-.5-.8-.5-1.4,0-.5-.2-1-.4-1.1-.1,0-.2-.2-.2-.4s0-.3-.2-.3-.2-.2-.2-.4-.2-.5-.3-.6c-.2,0-.3-.3-.3-.6s0-.4-.2-.4-.3-.3-.4-.7c0-.4-.2-.7-.4-.7s-.2-.2-.2-.4,0-.4-.2-.4-.3-.3-.4-.7c0-.4-.2-.7-.4-.7s-.2-.2-.2-.4,0-.4-.2-.4-.3-.2-.3-.6c0-.3-.2-.6-.4-.6s-.2-.2-.2-.3-.2-.3-.3-.3-.3-.2-.3-.3,0-.3-.2-.3-.2-.2-.2-.6,0-.6-.2-.6-.3-.2-.4-.6c0-.3-.2-.6-.3-.6s-.2-.2-.2-.4,0-.4-.2-.4-.3-.3-.4-.7c0-.4-.2-.7-.4-.7s-.2-.2-.2-.4,0-.4-.2-.4-.3-.3-.4-.7c0-.4-.2-.7-.4-.7s-.2-.2-.2-.4-.2-.5-.3-.6c-.2,0-.3-.3-.3-.6s0-.4-.2-.4-.2-.2-.2-.6,0-.6-.2-.6-.3-.2-.3-.6c0-.3-.2-.6-.4-.6s-.2-.2-.2-.3,0-.3-.2-.3-.3-.4-.4-.8c0-.4-.2-.8-.3-.8s-.2-.2-.2-.3,0-.3-.2-.3-.3-.4-.4-.8c0-.4-.2-.8-.3-.8s-.2-.2-.2-.3,0-.3-.2-.3-.3-.4-.4-.8c0-.4-.2-.8-.3-.8s-.2-.2-.2-.3,0-.3-.2-.3-.3-.2-.4-.6c0-.3-.2-.6-.3-.6s-.2-.2-.2-.3,0-.3-.2-.3-.3-.4-.3-.8c0-.4-.2-.8-.4-.8s-.2-.2-.2-.3,0-.3-.2-.3-.3-.4-.3-.8c0-.4-.2-.8-.4-.8s-.2-.2-.2-.3,0-.3-.2-.3-.3-.4-.3-.8c0-.4-.2-.8-.4-.8s-.2-.2-.2-.3,0-.3-.2-.3-.2-.2-.2-.4-.2-.5-.3-.6c-.2,0-.3-.3-.3-.6s0-.4-.2-.4-.3-.3-.4-.7c0-.4-.2-.7-.4-.7s-.2-.2-.2-.4-.2-.5-.3-.6c-.2,0-.3-.3-.3-.6s-.2-.5-.4-.6c-.2,0-.5-.3-.6-.6,0-.2-.3-.5-.6-.6-.2,0-.5-.3-.6-.6,0-.2-.3-.5-.6-.6-.2,0-.5-.3-.6-.6,0-.2-.2-.4-.4-.4s-.2-.2-.2-.3,0-.3-.2-.3-.3-.4-.4-.8c0-.4-.2-.8-.3-.8s-.2-.2-.2-.6,0-.6-.2-.6-.3-.4-.4-.9c0-.5-.2-.9-.3-.9s-.2-.2-.2-.3,0-.3-.2-.3-.3-.4-.3-1c0-.6-.2-1-.4-1s-.2-.2-.2-.6,0-.6-.2-.6-.3-.4-.4-.9c0-.5-.2-.9-.3-.9s-.2-.2-.2-.3,0-.3-.2-.3-.3-.4-.3-1c0-.6-.2-1-.4-1s-.2-.2-.2-.6,0-.6-.2-.6-.3-.4-.4-.9c0-.5-.2-.9-.3-.9s-.2-.2-.2-.3,0-.3-.2-.3-.3-.4-.3-1c0-.6-.2-1-.4-1s-.2-.2-.2-.6,0-.6-.2-.6-.2-.4-.3-.9c0-.5-.2-.9-.4-.9s-.2-.2-.2-.3,0-.3-.2-.3-.3-.4-.3-1c0-.6-.2-1-.4-1s-.2-.2-.2-.6,0-.6-.2-.6-.2-.4-.3-.9c0-.5-.2-.9-.4-.9s-.2-.2-.2-.6,0-.6-.2-.6-.3-.6-.4-1.3c0-.7-.2-1.3-.3-1.3s-.2-.3-.2-.7,0-.7-.2-.7-.2-.4-.2-1c0-.8,0-1,.4-1.1.2,0,.5-.4.6-.6,0-.3.4-.7.7-1,.3-.3.5-.6.5-.8,0-.3,2-2.2,2.3-2.2s.4-.2.6-.4c.2-.2.6-.5.8-.6.3,0,.6-.4.6-.6,0-.2.3-.4.5-.4s.6-.3,1-.7c.3-.4.7-.7.8-.7.3,0,3.1-2.8,3.1-3.1s.2-.4.5-.7c.3-.3.6-.7.7-1,0-.3.3-.5.4-.5s.2-.2.2-.3,0-.3.2-.3.3-.6.4-1.3c0-.7.2-1.3.3-1.3s.2-.2.2-.6,0-.6.2-.6.3-.6.4-1.2c0-.7.2-1.2.4-1.2s.2-.4.2-.8.1-.8.2-.8.2-.2.2-.3.5-.8,1.1-1.4c.7-.7,1.1-1.3,1.2-1.9,0-.4.2-.8.4-.8s.2-.2.2-.3,0-.3.2-.3.3-.4.3-.8c.1-.6.3-.8.6-.8s.4,0,.4-.2.4-.2.8-.3c.4,0,1-.3,1.2-.6.2-.2.6-.5.9-.6.3,0,.7-.4.9-.6.2-.2.6-.4.8-.5.3,0,.5-.3.5-.4s.2-.2.3-.2.3,0,.3-.2.2-.3.6-.4c.3,0,.6-.2.6-.3s.2-.2.3-.2.6-.2.9-.6.6-.6.7-.6c.2,0,.8-.6.8-.8s.2-.3.3-.5c.2-.2.3-.6.3-1s.1-.6.2-.6.2-.2.2-.6,0-.6.2-.6.3-.6.4-1.3c0-.7.2-1.3.3-1.3s.2-.2.2-.6.1-.6.2-.6.2-.2.2-.6.1-.6.3-.6.3-.2.3-.5.1-.6.2-.6c.1,0,.3-.6.4-1.1,0-.6.2-1,.3-1s.2-.2.2-.5.1-.6.3-.6c.4-.1.4-21.5,0-21.6-.1,0-.2-.3-.2-.6s0-.5-.2-.5-.3-.5-.4-1.1c0-.6-.2-1.1-.4-1.1s-.2-.2-.2-.6-.1-.6-.3-.6-.3-.4-.3-1.8,0-1.8.3-1.8.3-.3.3-1.3,0-1.3.2-1.3.3-.7.3-1.6c.2-1.5.2-1.6,1.2-2.6.5-.5,1.1-1,1.3-1s.3-.1.3-.2.2-.2.3-.2.3,0,.3-.2.2-.3.6-.4c.3,0,.6-.2.6-.3s.3-.2.8-.2.8-.1.8-.2.6-.3,1.1-.4,1-.2,1-.3.4-.2.9-.2.9,0,1-.2c0-.1,1.2-.3,2.7-.4,1.4,0,2.6-.2,2.6-.3s.8-.2,1.7-.2,1.7,0,1.7-.2.7-.2,1.6-.3c.9,0,1.6-.2,1.7-.4,0-.1.2-.2.3-.2s.7-.5,1.3-1.1c.6-.6,1.2-1.1,1.3-1.1.3,0,1.1-.8,1.1-1.1s.2-.5.6-.8.6-.6.6-.8,0-.2.2-.2.3-.2.4-.4c0-.2.3-.5.6-.6.2,0,.4-.3.4-.5s.3-.6.7-1c.4-.3.7-.8.7-.9s.2-.5.6-.7c.3-.2.6-.6.6-.8s.2-.5.4-.5c.2,0,.4-.3.4-.6s.2-.5.3-.6c.2,0,.3-.3.3-.6s0-.4.2-.4.3-.3.4-.6c0-.3.3-.8.6-1,.2-.2.5-.7.6-1.1,0-.4.2-.7.3-.7s.2-.1.2-.2.2-.4.3-.6c.2-.2.3-.6.3-.9s.2-.6.4-.7c.3,0,.5-.4.6-1.1,0-.5.2-1,.3-1s.2-.3.2-.7,0-.7-.2-.7-.2-.8-.3-1.8c0-1-.2-1.8-.4-1.9-.1,0-.2-.2-.2-.4s0-.3-.2-.3-.3-.5-.4-1.1c0-.6-.2-1.1-.4-1.1s-.2-.2-.2-.4,0-.4-.2-.4-.3-1-.4-2.2-.2-2.2-.4-2.2-.2-.2-.2-.3-.2-.3-.8-.3c-.8,0-.8,0-.8-.9s-.2-1-.8-1.7c-.4-.4-.9-.8-1-.8s-.5-.2-.8-.6-.6-.6-.8-.6-.2,0-.2-.2-.2-.3-.5-.4c-.3,0-.7-.4-1-.7s-.6-.5-.8-.5c-.3,0-1.5-1.3-1.5-1.6s-.2-.4-.3-.4c-.2,0-.3-.3-.3-.6s0-.4-.2-.4-.2-.2-.2-.3,0-.3-.2-.3-.3-.4-.4-.8c0-.4-.2-.8-.3-.8s-.2-.2-.2-.3,0-.3-.2-.3-.3-.4-.4-.8c0-.4-.2-.8-.3-.8s-.2-.1-.2-.2c0-.4-4.1-4.4-4.5-4.4s-.4-.2-.5-.4c0-.2-.3-.5-.6-.6-.2,0-.4-.2-.4-.4s0-.2-.2-.2c-.4,0-1.1-.8-1.1-1.2s-.2-.4-.4-.5c-.3,0-.5-.4-.6-.9,0-.4-.2-.8-.4-.8s-.2-.4-.2-.8,0-.8-.2-.8-.2-1-.2-2.6,0-2.6.2-2.6.2-.4.2-.9,0-.9.2-.9.2-.5.3-1c0-.6.2-1.1.4-1.1.1,0,.2-.3.2-.6s.1-.5.2-.5.2-.3.2-.8c0-.7.4-1.5.9-1.5s.2-.4.3-.8c0-.4.2-.8.4-.8s.2-.2.2-.5.1-.6.3-.6c.4-.1.4-6.4,0-6.5-.1,0-.3-.4-.3-.8s0-.8-.2-.8-.3-.5-.4-1.1c-.1-.8-.3-1.1-.6-1.2-.2,0-.4-.3-.4-.5,0-.5-2.3-2.7-3-2.9-.3,0-.6-.2-.6-.3s-.2-.2-.4-.2-.4,0-.4-.2-.4-.3-.9-.4c-.5,0-.9-.2-.9-.3s-.2-.2-.3-.2-.3,0-.3-.2-.2-.3-.4-.4c-.2,0-.5-.3-.6-.6,0-.2-.3-.5-.6-.6-.2,0-.5-.4-.6-.6,0-.3-.4-.7-.7-1-.3-.3-.5-.6-.5-.8s-.2-.4-.4-.6c-.2-.2-.5-.6-.6-.8s-.4-.6-.6-.6c-.2,0-.4-.3-.4-.6s-.2-.5-.3-.6c-.2,0-.3-.3-.3-.4s-.3-.6-.8-1c-.4-.4-.8-1-.9-1.2,0-.3-.4-.6-.7-.6-.3,0-.5-.3-.5-.5s-.2-.5-.4-.6c-.2,0-.5-.4-.6-.6,0-.3-.3-.6-.6-.8-.2-.2-.5-.7-.6-1.1,0-.4-.2-.7-.3-.7s-.2-.4-.2-.9,0-.9-.2-.9-.2-.9-.3-1.9c0-1.1-.2-2-.4-2-.1,0-.2-.3-.2-.5s0-.4-.2-.4-.3-.2-.3-.6c0-.3-.2-.6-.4-.6s-.2-.2-.2-.3,0-.3-.2-.3-.3-.2-.3-.6c0-.3-.2-.6-.4-.6s-.2-.2-.2-.3,0-.3-.2-.3-.3-.6-.4-1.3c0-.7-.2-1.3-.3-1.3s-.2-.2-.2-.3,0-.3-.2-.3c-.4,0-.2-.9.2-1,.3,0,.5-.4.6-1.2,0-.6.2-1.1.4-1.1s.2-.2.2-.4,0-.4.2-.4.3-.3.4-.7c0-.4.2-.7.4-.7s.2-.2.2-.3c0-.4,1.5-1.9,1.9-1.9s.3-.1.3-.2.2-.2.3-.2.3,0,.3-.2.4-.3.8-.3c.4,0,.8-.2.8-.4s.2-.2.6-.2.6,0,.6-.2.4-.3.8-.4c.4,0,.8-.2.8-.3s.2-.2.3-.2.3-.1.3-.2.2-.2.3-.2.3-.2.3-.3.2-.3.4-.3.4,0,.4-.2.5-.3,1.1-.4c.8-.1,1.1-.3,1.2-.6,0-.2.4-.5.6-.6.3,0,.6-.3.8-.6.2-.2.5-.4.6-.4.5,0,1.2-.9,1.3-1.6,0-.4.2-.8.3-.8s.2-.4.2-1,0-1-.2-1-.2-.4-.3-.9c-.1-.7-.2-.9-.6-.9s-.4,0-.4-.2-.5-.3-1.1-.4c-.6,0-1.1-.2-1.1-.4s-.3-.2-.6-.2-.7-.1-.7-.2c-.1-.4-4.7-.4-4.8,0,0,.2-.4.3-.6.3s-.5,0-.5.2-.2.3-.6.3c-.4,0-.6.3-.6.6s0,.5-3.3.5-3.3,0-3.4.3c0,.2-.5.3-.9.3s-.9.1-1,.3c-.1.2-.2.2-.3,0,0-.1-.5-.3-.9-.3s-.8-.1-.8-.2-.5-.2-1.2-.2c-1.4,0-2.1-.4-2.3-1.5,0-.4-.2-.7-.3-.7s-.2-.2-.2-.3,0-.3-.2-.3-.2-1.2-.2-3,0-3,.2-3,.2-.2.2-.3.1-.3.2-.3.2-.1.2-.3c0-.4,2.6-3,3-3s.4-.2.4-.3c0-.2.3-.3.6-.3s.5-.2.6-.4c0-.2.2-.4.3-.4.4,0,.9-.7.9-1.2s.1-.5.2-.5.2-.4.2-.9,0-.9-.2-.9-.3-.2-.4-.4-.3-.4-.6-.4-.4-.2-.4-.3-.1-.3-.2-.3-.5-.2-.8-.6c-.3-.3-.7-.6-.8-.6s-.4-.1-.4-.3c-.1-.4-5.3-.4-5.4,0,0,.2-.3.3-.6.3s-.5,0-.5.2-.2.2-.6.2-.6.2-.7.3c0,.2-.3.3-.6.3s-.4,0-.4.2-.2.3-.6.3c-.3,0-.6.2-.6.4s-.1.2-.3.2-.4.1-.4.3c0,.2-.7.3-2.6.2-2,0-2.5,0-2.8.3-.2.2-.4.3-.5.3-.2,0-.8.6-.8.9s0,.2-.2.2-.3.5-.4,1c-.1.8-.4,1.2-1.2,2-1,1-1,1-2.3.9-.9,0-1.4-.2-1.7-.6-.2-.2-.6-.5-.9-.6-.3,0-.5-.3-.5-.4s-.1-.2-.2-.2c-.3,0-3-2.7-3.2-3.3,0-.3-.4-.5-.8-.6-.4,0-.8-.3-1-.6-.2-.2-.6-.5-.8-.6-.3,0-.6-.4-.6-.6,0-.2-.2-.4-.4-.4s-.2-.2-.2-.3,0-.3-.2-.3-.2-.2-.2-.3-.2-.6-.5-.8-.6-.7-.7-1c0-.2-.4-.5-.6-.6-.2,0-.4-.4-.5-.6,0-.4-.2-.5-1.2-.6-.6,0-1.2-.2-1.2-.3s-.2-.2-.5-.2-.6-.2-.8-.3-.8-.3-1.5-.3c-1.8,0-2.6.2-2.6.7s-.2.6-.6.8c-.3.2-.6.5-.6.7s-.2.5-.5.8c-.3.3-.6.7-.7,1,0,.2-.4.5-.6.6-.2,0-.4.3-.4.5,0,.5-2.3,2.7-3,2.9-.3,0-.6.2-.6.3s-.2.2-.6.2-.6,0-.6.2-.3.2-.6.2c-1.1,0-1.4.2-1.4,1s0,.7-.4.4c-.2-.2-.4-.4-.5-.4s-.3-.2-.3-.4c0-.2-.4-.5-.7-.6-.3,0-.5-.2-.5-.3s-.2-.2-.4-.2-.5,0-.5-.2c0-.1-.7-.3-1.4-.4-1.2-.2-1.4-.2-2.5-1.4-.6-.7-1.2-1.3-1.2-1.5s-.2-.4-.3-.4c-.2,0-.3-.3-.3-.6s0-.4-.2-.4-.2-.2-.2-.6,0-.6-.2-.6-.2-.4-.2-.9.1-.9.2-.9.2-.2.2-.6,0-.6.2-.6.2-1.5.3-3.3c0-2.1.2-3.3.4-3.4.1,0,.2-.3.2-.6s0-.5.2-.5.3-.4.4-.8c0-.4.2-.8.3-.8s.2-.2.2-.3.1-.3.2-.3.2-.2.2-.3.8-1.1,1.7-2c1.6-1.6,1.7-1.7,1.7-2.7s0-1-.2-1-.2-.2-.2-.3,0-.3-.2-.3-.3-.2-.4-.5c-.2-.6-1.4-1.8-1.8-1.8s-.3,0-.4-.2c0-.1-.3-.3-.7-.4-.5-.1-.6,0-.6.2s0,.4-.2.4-.2.2-.2.5-.1.6-.3.6c-.2,0-.3.5-.2,1.4v1.3s-.6,0-.6,0c-.5,0-.8.1-1.8,1.2-.7.7-1.4,1.2-1.6,1.2s-.4.2-.5.4c0,.3-.4.5-.9.6-.4,0-.8.2-.8.4s-.1.2-.3.2-.4.1-.4.3c-.1.4-6.9.3-7,0,0-.1-.7-.2-1.5-.2s-1.4,0-1.4-.2-.4-.2-1-.2-1,0-1,.2-.3.2-.7.2-.7,0-.7.2-.2.2-.4.2-.5.2-.6.7c-.1.5-.2.6-.6.6-.4,0-.5,0-.5,1,0,.7,0,1.1-.3,1.1s-.3-.1-.3-.2-.2-.2-.3-.2-.3-.1-.3-.2-.2-.2-.4-.2-.4,0-.4.2-.2.2-.3.2-.3,0-.3.2-.2.3-.6.4c-.3,0-.6.2-.6.3s-.4.2-.9.2-.9,0-.9.2-1,.2-2.7.2c-2.5,0-2.7,0-3.1-.5-.3-.4-.8-.5-1.6-.6-.7,0-1.2-.2-1.2-.3s-.3-.2-.7-.2-.7-.1-.7-.2-1-.2-2.4-.2-2.5,0-2.8-.3-.7-.3-1.1-.3-.8-.1-.8-.2-.1-.2-.3-.2c-.4,0-1.9-1.4-1.9-1.8s-.3-.6-.8-1c-.4-.4-.8-1-.9-1.2,0-.3-.3-.5-.4-.5s-.2-.2-.2-.3,0-.3-.2-.3-.3-.2-.3-.5c0-.3-.4-.7-.7-.9-.3-.2-.5-.6-.5-.8s-.2-.4-.4-.5c-.2,0-.5-.4-.6-.6,0-.3-.5-.8-.9-1.2-.4-.4-.8-.9-.8-1s-.2-.4-.3-.4c-.2,0-.3-.3-.3-.6s-.2-.5-.4-.6c-.2,0-.4-.2-.4-.4,0-.3-.6-.2-.8,0,0,.2-.2.2-.4-.1-.2-.3-.6-.4-3-.4h-2.8v.9Z"/>
    <path class="cls-2" d="M274.8,95.4c0,.6,0,.8.5.8.6,0,1.3-.7.9-.8-.1,0-.3-.2-.3-.4s-.2-.3-.6-.3c-.5,0-.6,0-.6.8Z"/>
  </g>
</svg>